<svg width="600" height="350" viewBox="0 0 600 350" fill="none" xmlns="http://www.w3.org/2000/svg">
  <rect x="0" y="0" width="600" height="350" rx="8" fill="#FFFFFF"/>
  <rect x="0.5" y="0.5" width="599" height="349" rx="7.5" stroke="#E6E6E6"/>
  <rect x="0.5" y="0.5" width="599" height="349" rx="7.5" stroke="url(#paint0_linear_299_222)" stroke-opacity="0.2"/>
  <defs>
    <linearGradient id="paint0_linear_299_222" x1="600" y1="0" x2="0" y2="350" gradientUnits="userSpaceOnUse">
      <stop stop-color="#8E24AA"/>
      <stop offset="1" stop-color="#FF5252"/>
    </linearGradient>
  </defs>

  <text x="30" y="40" font-family="Segoe UI, sans-serif" font-size="20" font-weight="bold" fill="#333333">Churn Mensal (Últimos 6 Meses)</text>
  <text x="30" y="65" font-family="Segoe UI, sans-serif" font-size="14" fill="#666666">Análise de retenção e cohorts de clientes</text>

  <text x="40" y="190" transform="rotate(-90 40 190)" font-family="Segoe UI, sans-serif" font-size="12" fill="#777777">Percentual</text>

  <line x1="80" y1="90" x2="570" y2="90" stroke="#EEEEEE" stroke-width="1"/>
  <line x1="80" y1="130" x2="570" y2="130" stroke="#EEEEEE" stroke-width="1"/>
  <line x1="80" y1="170" x2="570" y2="170" stroke="#EEEEEE" stroke-width="1"/>
  <line x1="80" y1="210" x2="570" y2="210" stroke="#EEEEEE" stroke-width="1"/>
  <line x1="80" y1="250" x2="570" y2="250" stroke="#EEEEEE" stroke-width="1"/>

  <text x="50" y="95" font-family="Segoe UI, sans-serif" font-size="11" fill="#777777">7%</text>
  <text x="50" y="135" font-family="Segoe UI, sans-serif" font-size="11" fill="#777777">6%</text>
  <text x="50" y="175" font-family="Segoe UI, sans-serif" font-size="11" fill="#777777">5%</text>
  <text x="50" y="215" font-family="Segoe UI, sans-serif" font-size="11" fill="#777777">4%</text>
  <text x="50" y="255" font-family="Segoe UI, sans-serif" font-size="11" fill="#777777">3%</text>

  <circle cx="110" cy="110" r="4" fill="#E91E63"/>
  <text x="100" y="105" font-family="Segoe UI, sans-serif" font-size="11" fill="#333333">6.5%</text>

  <circle cx="180" cy="120" r="4" fill="#E91E63"/>
  <text x="170" y="115" font-family="Segoe UI, sans-serif" font-size="11" fill="#333333">6.2%</text>

  <circle cx="250" cy="140" r="4" fill="#E91E63"/>
  <text x="240" y="135" font-family="Segoe UI, sans-serif" font-size="11" fill="#333333">5.5%</text>

  <circle cx="320" cy="170" r="4" fill="#E91E63"/>
  <text x="310" y="165" font-family="Segoe UI, sans-serif" font-size="11" fill="#333333">4.8%</text>

  <circle cx="390" cy="190" r="4" fill="#E91E63"/>
  <text x="380" y="185" font-family="Segoe UI, sans-serif" font-size="11" fill="#333333">4.3%</text>
  
  <circle cx="460" cy="198" r="4" fill="#28A745"/>
  <text x="450" y="193" font-family="Segoe UI, sans-serif" font-size="11" fill="#28A745">4.1%</text>


  <polyline points="110,110 180,120 250,140 320,170 390,190 460,198"
            fill="none" stroke="#E91E63" stroke-width="2"/>

  <text x="95" y="270" font-family="Segoe UI, sans-serif" font-size="11" fill="#777777">MÊS 1</text>
  <text x="165" y="270" font-family="Segoe UI, sans-serif" font-size="11" fill="#777777">MÊS 2</text>
  <text x="235" y="270" font-family="Segoe UI, sans-serif" font-size="11" fill="#777777">MÊS 3</text>
  <text x="305" y="270" font-family="Segoe UI, sans-serif" font-size="11" fill="#777777">MÊS 4</text>
  <text x="375" y="270" font-family="Segoe UI, sans-serif" font-size="11" fill="#777777">MÊS 5</text>
  <text x="445" y="270" font-family="Segoe UI, sans-serif" font-size="11" fill="#777777">MÊS 6</text>

  <g transform="translate(30, 290)">
    <rect x="0" y="0" width="220" height="50" rx="4" fill="#E0F2F7"/>
    <text x="10" y="25" font-family="Segoe UI, sans-serif" font-size="14" fill="#0D47A1">Churn Mensal Atual:</text>
    <text x="140" y="25" font-family="Segoe UI, sans-serif" font-size="16" font-weight="bold" fill="#0D47A1">4.1%</text>
    <text x="10" y="40" font-family="Segoe UI, sans-serif" font-size="12" fill="#4CAF50">↓ -37% vs. Antes (6.5%)</text>
  </g>
</svg>