<?xml version="1.0" encoding="UTF-8"?>
<svg version="1.1" xmlns="http://www.w3.org/2000/svg" width="1024" height="1024">
<path d="M0 0 C337.92 0 675.84 0 1024 0 C1024 337.92 1024 675.84 1024 1024 C686.08 1024 348.16 1024 0 1024 C0 686.08 0 348.16 0 0 Z " fill="#FEFEFE" transform="translate(0,0)"/>
<path d="M0 0 C1.41153854 -0.00855011 1.41153854 -0.00855011 2.85159302 -0.01727295 C4.83659767 -0.02666801 6.82161752 -0.0332349 8.80664062 -0.03710938 C11.77763725 -0.04673671 14.74791741 -0.0777809 17.71875 -0.109375 C30.08325505 -0.17809783 41.81791355 0.79068542 53.9453125 3.203125 C54.94530273 3.39664551 55.94529297 3.59016602 56.97558594 3.78955078 C59.29509116 4.27168493 61.58723782 4.80589828 63.8828125 5.390625 C65.10339355 5.70036255 65.10339355 5.70036255 66.34863281 6.01635742 C97.97994434 14.45198049 126.42532299 31.75075537 149.9453125 54.203125 C150.81027344 55.01523438 151.67523437 55.82734375 152.56640625 56.6640625 C162.89296481 66.62008932 170.70967094 77.9042054 177.9453125 90.203125 C178.85990234 91.4715625 178.85990234 91.4715625 179.79296875 92.765625 C180.9453125 95.203125 180.9453125 95.203125 180.42578125 97.68359375 C178.66732092 100.67622412 176.64247497 102.99219197 174.2578125 105.515625 C171.35963713 108.61099369 168.48642947 111.70578657 165.7578125 114.953125 C161.6119321 119.74216107 157.05812727 124.14082041 152.53833008 128.57324219 C149.45299753 131.61637597 146.48160652 134.69053187 143.6640625 137.984375 C138.60392994 143.8527627 133.0021216 149.20341576 127.48828125 154.63964844 C122.84710564 159.22140198 118.20561841 163.80808746 113.76953125 168.58984375 C113.22127686 169.17725342 112.67302246 169.76466309 112.1081543 170.36987305 C110.21693983 173.35142448 110.69970516 176.15325925 110.9296875 179.56640625 C110.98171856 188.34664817 106.12056438 195.03870775 100.24609375 201.10546875 C93.2995605 207.43872572 85.24261781 209.76567634 75.921875 209.5859375 C68.06838771 208.57590895 60.34933646 204.99315067 54.9453125 199.203125 C48.98243501 190.74851368 45.77132908 182.63175698 46.9453125 172.203125 C49.05391763 162.29692641 54.92811994 154.50729387 63.1953125 148.703125 C69.90941549 145.04088701 76.3017085 143.96558792 83.9453125 144.203125 C86.06142699 144.98397906 88.16607688 145.79663703 90.2578125 146.640625 C93.47938535 147.73876096 93.47938535 147.73876096 96.9453125 147.203125 C103.29430346 143.12525529 108.11870222 136.91173933 112.9453125 131.203125 C114.21600687 129.74240087 115.48933668 128.28396404 116.765625 126.828125 C117.31750488 126.19519531 117.86938477 125.56226563 118.43798828 124.91015625 C119.75016051 123.42413289 121.095066 121.96713999 122.4453125 120.515625 C124.20422257 118.32355707 124.20422257 118.32355707 123.734375 115.80078125 C122.37667521 111.331126 119.11389617 108.52502724 115.9453125 105.203125 C115.171875 104.35234375 115.171875 104.35234375 114.3828125 103.484375 C91.7636143 79.5080249 57.28367383 65.23740973 24.60058594 63.99780273 C20.70179211 63.8961445 16.80500084 63.87669428 12.9050293 63.88745117 C10.513698 63.89061721 8.12360216 63.86702391 5.73242188 63.84179688 C-30.67384955 63.68825019 -63.27716662 80.39322878 -89.0546875 105.203125 C-89.68632812 105.77160156 -90.31796875 106.34007812 -90.96875 106.92578125 C-113.18016354 127.50555067 -127.035859 161.36731427 -129.0546875 191.203125 C-130.56083728 230.82141262 -120.7715803 265.61190892 -95.0546875 296.203125 C-93.85005859 297.6571875 -93.85005859 297.6571875 -92.62109375 299.140625 C-74.29123203 320.32982475 -48.58362198 333.51031083 -22.0546875 341.203125 C-21.03882568 341.49775635 -21.03882568 341.49775635 -20.00244141 341.79833984 C7.93079892 349.43776307 42.04262459 344.13073933 67.296875 330.3359375 C76.26902686 325.19203042 84.33482871 319.21180005 91.82421875 312.05078125 C93.9453125 310.203125 93.9453125 310.203125 96.09765625 309.19921875 C98.09527192 308.3513188 98.09527192 308.3513188 98.87524414 306.33642578 C99.99045495 304.11312849 101.13568832 302.79516398 102.9140625 301.07421875 C103.48511719 300.51412109 104.05617188 299.95402344 104.64453125 299.37695312 C105.23878906 298.80396484 105.83304688 298.23097656 106.4453125 297.640625 C107.62465813 296.49581553 108.80182902 295.34876043 109.9765625 294.19921875 C110.49798828 293.69575928 111.01941406 293.1922998 111.55664062 292.67358398 C113.1709233 291.04670592 113.1709233 291.04670592 114.9453125 288.203125 C115.6053125 288.203125 116.2653125 288.203125 116.9453125 288.203125 C117.15800781 287.66171875 117.37070312 287.1203125 117.58984375 286.5625 C119.43550683 283.34987609 121.98495861 280.99763225 124.6328125 278.453125 C128.6447513 274.52666027 132.50033554 270.5858225 136.06640625 266.2421875 C137.9453125 264.203125 137.9453125 264.203125 140.91796875 261.7265625 C144.07133889 259.06697062 146.64053039 256.65805179 148.9453125 253.203125 C148.99494576 248.47693549 147.54565742 244.60553904 145.9453125 240.203125 C145.05509161 231.44928621 148.09891441 223.31651936 153.1484375 216.2421875 C158.52660339 210.13913838 166.43654812 205.8004609 174.5390625 204.921875 C184.3262777 204.59196887 192.3320862 206.78519524 199.90234375 213.109375 C206.35348903 219.7208738 209.94384767 227.72605931 210.3203125 236.890625 C210.09978497 247.35919639 206.44271067 255.01243858 198.9453125 262.203125 C192.7213458 268.10791392 184.49623437 270.39975827 176.05078125 270.3046875 C172.96738697 270.15595234 169.98938899 269.71047108 166.9453125 269.203125 C166.40261719 269.95078125 165.85992188 270.6984375 165.30078125 271.46875 C164.58535156 272.45359375 163.86992188 273.4384375 163.1328125 274.453125 C162.42511719 275.42765625 161.71742188 276.4021875 160.98828125 277.40625 C158.9453125 280.203125 158.9453125 280.203125 157.12109375 282.3125 C155.74953909 284.11968816 155.74953909 284.11968816 156.0390625 286.23046875 C157.1521304 288.65331051 158.48168386 289.961736 160.4453125 291.765625 C165.41828879 296.54182885 169.65943421 301.81355249 173.9453125 307.203125 C174.69296875 308.13769531 175.440625 309.07226562 176.2109375 310.03515625 C176.78328125 310.75058594 177.355625 311.46601563 177.9453125 312.203125 C176.36692866 317.04040725 173.61948634 320.6471535 170.5703125 324.640625 C169.77608887 325.68863281 169.77608887 325.68863281 168.96582031 326.7578125 C158.23682487 340.77585026 146.80465144 353.21818 132.9453125 364.203125 C131.97980469 364.9971875 131.01429688 365.79125 130.01953125 366.609375 C89.54939787 399.10889762 37.08840106 409.95626409 -13.82666016 405.90283203 C-58.67010756 400.85303914 -99.62156658 380.16201315 -132.0546875 349.203125 C-132.90804687 348.40261719 -133.76140625 347.60210938 -134.640625 346.77734375 C-159.00901928 323.2929764 -176.13036465 291.59618046 -185.0546875 259.203125 C-185.24756348 258.53635742 -185.44043945 257.86958984 -185.63916016 257.18261719 C-199.82655033 207.63188915 -192.18270043 151.34434107 -168.0546875 106.203125 C-162.16865535 95.64759378 -155.63728056 85.62000803 -148.0546875 76.203125 C-147.64814941 75.69507324 -147.24161133 75.18702148 -146.82275391 74.66357422 C-135.7089563 60.86143335 -123.35487549 48.67783751 -109.0546875 38.203125 C-107.46720703 37.03330078 -107.46720703 37.03330078 -105.84765625 35.83984375 C-75.21874539 13.97284081 -37.83461134 0.1830798 0 0 Z " fill="#962878" transform="translate(500.0546875,183.796875)"/>
<path d="M0 0 C9.60395011 7.2377595 17.46255548 18.7212906 20.03125 30.63671875 C22.07264308 47.14976967 19.66895267 61.30800679 9.42578125 74.828125 C1.77833004 84.18903816 -9.84671321 90.24153297 -21.57421875 92.828125 C-38.13766237 94.28830212 -52.07216626 91.38769259 -65.171875 80.7109375 C-74.98296878 71.6841393 -81.17788843 59.55473098 -81.9453125 46.12890625 C-82.36169092 29.17370732 -77.92955786 16.80685478 -66.38671875 4.140625 C-48.12677676 -13.17766079 -20.34066414 -14.01180337 0 0 Z " fill="#223544" transform="translate(287.57421875,683.171875)"/>
<path d="M0 0 C6.27 0 12.54 0 19 0 C22.30023673 3.67740664 23.93503426 5.8391057 25.96240234 10.05322266 C27.97058716 13.82104989 30.63793451 17.14909047 33.1875 20.5625 C38.38144441 27.67586327 43.4056496 34.89252009 48.3347168 42.19165039 C52.42980638 48.23780009 56.6959935 54.08199107 61 60 C61.33 40.53 61.66 21.06 62 1 C68.93 1 75.86 1 83 1 C83 33.67 83 66.34 83 100 C77.06 100 71.12 100 65 100 C58.43624317 92.80779837 58.43624317 92.80779837 56.5625 89.3984375 C54.01306172 84.95270651 51.12177807 80.84009501 48.125 76.6875 C47.12341987 75.26673761 46.12343994 73.84484591 45.125 72.421875 C41.82300548 67.73774791 38.47976652 63.0839336 35.125 58.4375 C34.60180176 57.71199951 34.07860352 56.98649902 33.53955078 56.23901367 C30.46257416 51.98450742 27.32640939 47.78922681 24.09716797 43.64868164 C23 42 23 42 23 40 C22.34 40 21.68 40 21 40 C21 59.8 21 79.6 21 100 C14.07 100 7.14 100 0 100 C0 67 0 34 0 0 Z " fill="#243847" transform="translate(434,675)"/>
<path d="M0 0 C3.41476794 2.68303195 6.46511924 5.60656468 9.3515625 8.84765625 C5.3928617 14.08335731 0.83195571 18.20841675 -4.6484375 21.84765625 C-5.3084375 21.84765625 -5.9684375 21.84765625 -6.6484375 21.84765625 C-7.79823631 20.66403982 -8.94699383 19.47938986 -10.08984375 18.2890625 C-16.8519118 12.03542062 -23.4556449 10.40179398 -32.48046875 10.51171875 C-39.44337302 11.25007851 -44.74055956 14.52887425 -49.5234375 19.53515625 C-56.58202621 28.51274662 -57.82711018 37.59668978 -56.6484375 48.84765625 C-54.67126514 57.40130567 -51.07218799 64.81070104 -43.6484375 69.72265625 C-36.63083081 73.71588394 -29.28889996 73.71278333 -21.5859375 71.72265625 C-16.82565009 70.14567352 -12.55597919 68.05202762 -9.6484375 63.84765625 C-8.9884375 61.20765625 -8.3284375 58.56765625 -7.6484375 55.84765625 C-15.2384375 55.84765625 -22.8284375 55.84765625 -30.6484375 55.84765625 C-30.6484375 49.90765625 -30.6484375 43.96765625 -30.6484375 37.84765625 C-16.7884375 37.84765625 -2.9284375 37.84765625 11.3515625 37.84765625 C11.568125 46.01515625 11.568125 46.01515625 11.7890625 54.34765625 C11.85279053 56.04986328 11.91651855 57.75207031 11.98217773 59.50585938 C12.25376922 71.87906617 12.25376922 71.87906617 8.11328125 76.7109375 C6.1809082 78.44970703 6.1809082 78.44970703 4.3515625 79.84765625 C3.15660156 80.90533203 3.15660156 80.90533203 1.9375 81.984375 C-11.35380545 91.30707511 -24.76311197 94.06074212 -40.6484375 92.84765625 C-52.57235146 90.51349385 -63.7496327 82.74467579 -70.6484375 72.84765625 C-79.07589133 58.32445518 -82.02500861 43.89745089 -78.99609375 27.265625 C-74.66323405 13.07690416 -65.81524506 2.70098035 -53.04907227 -4.4362793 C-35.29518285 -13.87793904 -16.28123183 -11.19027263 0 0 Z " fill="#233645" transform="translate(400.6484375,683.15234375)"/>
<path d="M0 0 C21.12 0 42.24 0 64 0 C64 5.94 64 11.88 64 18 C49.81 18 35.62 18 21 18 C21 25.26 21 32.52 21 40 C34.2 40 47.4 40 61 40 C61 45.61 61 51.22 61 57 C47.8 57 34.6 57 21 57 C21 64.59 21 72.18 21 80 C35.19 80 49.38 80 64 80 C64 86.27 64 92.54 64 99 C42.88 99 21.76 99 0 99 C0 66.33 0 33.66 0 0 Z " fill="#253949" transform="translate(845,676)"/>
<path d="M0 0 C23.76 0 47.52 0 72 0 C72 20.51676517 72 20.51676517 65.046875 27.66015625 C61.57563708 31.38144097 58.60022498 35.42350495 55.5625 39.5 C50.73094374 45.86209333 45.70197083 52.0096615 40.5 58.0703125 C34.71775697 64.84637855 29.34553854 71.87261528 24 79 C48.255 79.495 48.255 79.495 73 80 C73 86.27 73 92.54 73 99 C47.26 99 21.52 99 -5 99 C-5 80.59060956 -5 80.59060956 1.44262695 73.5246582 C1.91144287 73.07952881 2.38025879 72.63439941 2.86328125 72.17578125 C6.06561167 69.00700375 8.7763738 65.58112789 11.5 62 C15.06191726 57.40518376 18.7185661 52.91570426 22.5 48.5 C28.20955762 41.82728613 33.61775981 34.93780093 39 28 C41.31 25.03 43.62 22.06 46 19 C30.82 18.67 15.64 18.34 0 18 C0 12.06 0 6.12 0 0 Z " fill="#233645" transform="translate(750,676)"/>
<path d="M0 0 C4.32751279 3.04634124 8.23044635 6.21571364 11.90625 10.02734375 C10.31727996 14.0754341 7.59999052 16.40297728 4.40625 19.27734375 C3.65794922 19.96570313 3.65794922 19.96570313 2.89453125 20.66796875 C-0.83477493 24.02734375 -0.83477493 24.02734375 -3.09375 24.02734375 C-4.76041667 22.36067708 -6.42708333 20.69401042 -8.09375 19.02734375 C-15.69332396 13.36808654 -22.73244873 11.90587638 -32.09375 13.02734375 C-41.09474182 15.77232707 -47.04075039 21.87568591 -51.53125 29.96484375 C-54.82317801 38.17328762 -54.48384878 49.3327926 -51.53125 57.58984375 C-47.76726963 65.30141328 -42.55733472 70.6610997 -34.703125 74.18359375 C-27.32295688 76.56999542 -20.00164072 75.29442645 -13.09375 72.02734375 C-9.98146099 70.17184553 -7.0316783 68.14524789 -4.09375 66.02734375 C-3.10375 65.36734375 -2.11375 64.70734375 -1.09375 64.02734375 C3.19625 68.31734375 7.48625 72.60734375 11.90625 77.02734375 C7.25360571 86.33263234 -3.65856018 90.76077729 -13.09375 94.02734375 C-24.81816037 97.88601046 -39.21571008 94.97190382 -49.87109375 89.63671875 C-63.22864205 82.00383401 -71.90086361 71.11599613 -76.17578125 56.26953125 C-79.39573873 42.88906092 -77.01284345 29.95109482 -70.53125 17.96484375 C-62.80479169 6.02046775 -51.85224936 -2.50959709 -38.14404297 -6.546875 C-24.89659997 -9.29795152 -11.34551795 -7.23420021 0 0 Z " fill="#223544" transform="translate(187.09375,680.97265625)"/>
<path d="M0 0 C7.19920939 5.10445616 12.8339814 12.83396952 14.5859375 21.59375 C15.457967 30.81818701 14.39952697 39.21676958 8.9375 46.91796875 C2.63616545 54.36124821 -3.88511435 58.55717089 -13.4140625 60.59375 C-18.57373577 60.76291962 -23.32824188 60.44138677 -28.4140625 59.59375 C-28.95675781 60.34140625 -29.49945312 61.0890625 -30.05859375 61.859375 C-30.77402344 62.84421875 -31.48945312 63.8290625 -32.2265625 64.84375 C-32.93425781 65.81828125 -33.64195312 66.7928125 -34.37109375 67.796875 C-36.4140625 70.59375 -36.4140625 70.59375 -38.23828125 72.703125 C-39.60983591 74.51031316 -39.60983591 74.51031316 -39.3203125 76.62109375 C-38.2072446 79.04393551 -36.87769114 80.352361 -34.9140625 82.15625 C-29.94108621 86.93245385 -25.69994079 92.20417749 -21.4140625 97.59375 C-20.66640625 98.52832031 -19.91875 99.46289062 -19.1484375 100.42578125 C-18.57609375 101.14121094 -18.00375 101.85664063 -17.4140625 102.59375 C-18.99244634 107.43103225 -21.73988866 111.0377785 -24.7890625 115.03125 C-25.58328613 116.07925781 -25.58328613 116.07925781 -26.39355469 117.1484375 C-37.12255013 131.16647526 -48.55472356 143.608805 -62.4140625 154.59375 C-63.37957031 155.3878125 -64.34507812 156.181875 -65.33984375 157 C-82.3507564 170.66060584 -102.20151545 180.8264101 -122.9140625 187.53125 C-123.82196533 187.82612305 -124.72986816 188.12099609 -125.6652832 188.42480469 C-131.27279849 190.15939608 -136.56198684 191.12391872 -142.4140625 191.59375 C-141.4240625 191.26375 -140.4340625 190.93375 -139.4140625 190.59375 C-139.4140625 189.93375 -139.4140625 189.27375 -139.4140625 188.59375 C-136.20993176 187.57993248 -133.0001722 186.5852192 -129.7890625 185.59375 C-128.88542969 185.30757812 -127.98179687 185.02140625 -127.05078125 184.7265625 C-122.3813718 183.29506471 -118.35970802 182.19941282 -113.4140625 182.59375 C-113.4140625 181.93375 -113.4140625 181.27375 -113.4140625 180.59375 C-112.4034375 180.160625 -111.3928125 179.7275 -110.3515625 179.28125 C-109.7121875 179.00667969 -109.0728125 178.73210937 -108.4140625 178.44921875 C-106.56275267 177.6573499 -104.70732616 176.87512417 -102.8515625 176.09375 C-97.325962 173.68257887 -92.31974972 170.96930817 -87.34375 167.58203125 C-85.4140625 166.59375 -85.4140625 166.59375 -81.4140625 166.59375 C-81.4140625 165.93375 -81.4140625 165.27375 -81.4140625 164.59375 C-79.67858081 163.14848264 -77.87430287 161.7850278 -76.0390625 160.46875 C-75.04132813 159.74429688 -74.04359375 159.01984375 -73.015625 158.2734375 C-70.4140625 156.59375 -70.4140625 156.59375 -68.4140625 156.59375 C-68.0840625 155.93375 -67.7540625 155.27375 -67.4140625 154.59375 C-63.83713942 151.59375 -63.83713942 151.59375 -61.4140625 151.59375 C-61.4140625 150.93375 -61.4140625 150.27375 -61.4140625 149.59375 C-59.72969213 148.28401192 -57.98960093 147.04550407 -56.2265625 145.84375 C-51.82832085 142.73279859 -48.61239493 139.8915092 -45.4140625 135.59375 C-44.95128906 135.14902344 -44.48851562 134.70429687 -44.01171875 134.24609375 C-41.26696703 131.40738965 -39.23634901 128.03972353 -37.03515625 124.7734375 C-35.4140625 122.59375 -35.4140625 122.59375 -33.4140625 121.59375 C-32.36598209 119.61852154 -31.3620214 117.61893491 -30.4140625 115.59375 C-28.9290625 116.08875 -28.9290625 116.08875 -27.4140625 116.59375 C-27.1253125 115.871875 -26.8365625 115.15 -26.5390625 114.40625 C-26.1678125 113.478125 -25.7965625 112.55 -25.4140625 111.59375 C-24.95 110.2634375 -24.95 110.2634375 -24.4765625 108.90625 C-23.4140625 106.59375 -23.4140625 106.59375 -20.4140625 104.59375 C-20.4140625 103.60375 -20.4140625 102.61375 -20.4140625 101.59375 C-21.0740625 101.26375 -21.7340625 100.93375 -22.4140625 100.59375 C-24.0390625 99.21875 -24.0390625 99.21875 -25.4140625 97.59375 C-25.4140625 96.60375 -25.4140625 95.61375 -25.4140625 94.59375 C-26.0121875 94.366875 -26.6103125 94.14 -27.2265625 93.90625 C-29.98033157 92.25398856 -30.77931432 90.3183303 -32.4140625 87.59375 C-33.73053369 86.89437468 -35.06428401 86.22645867 -36.4140625 85.59375 C-39.4140625 82.16517857 -39.4140625 82.16517857 -39.4140625 79.59375 C-40.0740625 79.59375 -40.7340625 79.59375 -41.4140625 79.59375 C-42.88480063 75.79434315 -42.18403463 73.45368381 -40.6640625 69.84375 C-39.6171875 67.484375 -39.6171875 67.484375 -38.4140625 65.59375 C-37.4240625 65.26375 -36.4340625 64.93375 -35.4140625 64.59375 C-33.97458132 62.96492603 -33.97458132 62.96492603 -32.7265625 61.03125 C-32.07107422 60.07025391 -32.07107422 60.07025391 -31.40234375 59.08984375 C-31.07621094 58.59613281 -30.75007812 58.10242188 -30.4140625 57.59375 C-32.3940625 57.09875 -32.3940625 57.09875 -34.4140625 56.59375 C-34.4140625 55.93375 -34.4140625 55.27375 -34.4140625 54.59375 C-35.0740625 54.59375 -35.7340625 54.59375 -36.4140625 54.59375 C-38.140625 52.84375 -38.140625 52.84375 -40.0390625 50.59375 C-40.67070313 49.85125 -41.30234375 49.10875 -41.953125 48.34375 C-42.43523437 47.76625 -42.91734375 47.18875 -43.4140625 46.59375 C-44.3215625 47.3775 -45.2290625 48.16125 -46.1640625 48.96875 C-48.00313136 50.51721128 -49.47714092 51.62353703 -51.6640625 52.65625 C-53.56693767 53.45394826 -53.56693767 53.45394826 -54.28515625 55.41015625 C-55.59949947 57.95243258 -57.157546 59.49863486 -59.2265625 61.46875 C-61.64791855 63.82454587 -63.97268286 66.15743974 -66.1015625 68.78125 C-68.3978222 71.57399828 -70.82669945 74.07107103 -73.4140625 76.59375 C-74.2803125 77.50125 -75.1465625 78.40875 -76.0390625 79.34375 C-78.4140625 81.59375 -78.4140625 81.59375 -81.4140625 82.59375 C-81.0840625 83.58375 -80.7540625 84.57375 -80.4140625 85.59375 C-80.93355469 86.04105469 -81.45304688 86.48835938 -81.98828125 86.94921875 C-86.77386326 91.09646977 -86.77386326 91.09646977 -91.2890625 95.53125 C-93.4140625 97.59375 -93.4140625 97.59375 -95.4140625 97.59375 C-95.6203125 98.356875 -95.8265625 99.12 -96.0390625 99.90625 C-97.83476954 103.41604103 -99.84542562 104.11974781 -103.4140625 105.59375 C-103.4140625 102.59375 -103.4140625 102.59375 -101.5390625 100.40625 C-99.4140625 98.59375 -99.4140625 98.59375 -97.4140625 98.59375 C-97.14529297 97.99828369 -96.87652344 97.40281738 -96.59960938 96.78930664 C-95.41051646 94.58718296 -94.2343195 93.19607843 -92.4453125 91.46484375 C-91.87425781 90.90474609 -91.30320312 90.34464844 -90.71484375 89.76757812 C-90.12058594 89.19458984 -89.52632812 88.62160156 -88.9140625 88.03125 C-87.73471687 86.88644053 -86.55754598 85.73938543 -85.3828125 84.58984375 C-84.86138672 84.08638428 -84.33996094 83.5829248 -83.80273438 83.06420898 C-82.1884517 81.43733092 -82.1884517 81.43733092 -80.4140625 78.59375 C-79.7540625 78.59375 -79.0940625 78.59375 -78.4140625 78.59375 C-78.20136719 78.05234375 -77.98867188 77.5109375 -77.76953125 76.953125 C-75.92386817 73.74050109 -73.37441639 71.38825725 -70.7265625 68.84375 C-66.7146237 64.91728527 -62.85903946 60.9764475 -59.29296875 56.6328125 C-57.4140625 54.59375 -57.4140625 54.59375 -54.44140625 52.1171875 C-51.28803611 49.45759562 -48.71884461 47.04867679 -46.4140625 43.59375 C-46.36442924 38.86756049 -47.81371758 34.99616404 -49.4140625 30.59375 C-50.30428339 21.83991121 -47.26046059 13.70714436 -42.2109375 6.6328125 C-31.47141498 -5.55421088 -13.94724274 -8.12460742 0 0 Z " fill="#ED692A" transform="translate(695.4140625,393.40625)"/>
<path d="M0 0 C0.48879639 0.92224365 0.97759277 1.8444873 1.48120117 2.79467773 C3.31608075 6.25609041 5.15213618 9.71687826 6.98852539 13.17749023 C7.77920483 14.66788314 8.5695764 16.15843941 9.35961914 17.64916992 C13.5055304 25.47159452 17.65890157 33.2834583 22 41 C22.55985596 39.90010742 23.11971191 38.80021484 23.6965332 37.66699219 C25.77815987 33.57991145 27.86476969 29.49539214 29.95288086 25.41162109 C30.85528118 23.64506187 31.75633553 21.8778144 32.65600586 20.10986328 C33.95071325 17.56620294 35.25026889 15.02507128 36.55078125 12.484375 C36.9508992 11.69569031 37.35101715 10.90700562 37.76325989 10.09442139 C41.55530989 2.70851513 41.55530989 2.70851513 44 0 C46.05859375 -0.42578125 46.05859375 -0.42578125 48.4375 -0.3125 C49.74654297 -0.26029297 49.74654297 -0.26029297 51.08203125 -0.20703125 C56.0601484 0.14616849 61.03210357 0.52198935 66 1 C64.58114808 5.90560505 62.38590907 10.04042887 59.75 14.375 C58.85216382 15.8758831 57.9550733 17.37721243 57.05859375 18.87890625 C56.32745361 20.09924561 56.32745361 20.09924561 55.58154297 21.34423828 C52.622762 26.31268832 49.72152084 31.31481154 46.8125 36.3125 C45.67327182 38.26698231 44.53395077 40.22141049 43.39453125 42.17578125 C42.84369873 43.14563965 42.29286621 44.11549805 41.7253418 45.11474609 C40 48 40 48 38.05004883 50.67041016 C31.46148175 60.16606815 31.9905278 69.62487278 32.0625 80.75 C32.04936647 82.62242051 32.03311442 84.49482187 32.01367188 86.3671875 C31.96740829 90.91308774 31.98506841 95.45226474 32 100 C25.07 100 18.14 100 11 100 C11.1134375 97.42574219 11.226875 94.85148438 11.34375 92.19921875 C12.00548929 69.34898253 9.94772483 54.98687213 -3.74853516 36.21923828 C-7.31166428 31.12452773 -10.3047525 25.72810949 -13.33612061 20.30609131 C-14.8684243 17.56974576 -16.42635216 14.84842461 -17.98828125 12.12890625 C-18.49915283 11.23244385 -19.01002441 10.33598145 -19.53637695 9.41235352 C-20.9527766 6.9781619 -20.9527766 6.9781619 -22.68823242 4.80444336 C-24 3 -24 3 -24 1 C-22.25068322 0.82630897 -20.50047676 0.66158247 -18.75 0.5 C-17.77546875 0.4071875 -16.8009375 0.314375 -15.796875 0.21875 C-10.52991424 -0.0846963 -5.27412029 -0.03882788 0 0 Z " fill="#233746" transform="translate(672,675)"/>
<path d="M0 0 C8.67980639 5.14495986 13.4269442 12.5187124 16.47265625 22.1015625 C18.39645925 32.72430078 16.17027831 42.47050796 10.20703125 51.3984375 C5.96498144 56.65771354 -0.45693381 60.88612575 -7.16796875 62.0859375 C-16.39060196 62.91422235 -23.67907442 61.44616923 -30.91796875 55.5234375 C-37.4262374 49.35651161 -40.77160544 41.97040816 -41.37109375 33.0703125 C-41.52409672 22.51310729 -39.98927494 15.40767331 -33.20703125 7.16796875 C-24.47946951 -1.74350713 -11.79980915 -5.41549136 0 0 Z " fill="#FCFDFD" transform="translate(269.16796875,694.9140625)"/>
<path d="M0 0 C6.93 0 13.86 0 21 0 C21 26.4 21 52.8 21 80 C35.19 80 49.38 80 64 80 C64 86.27 64 92.54 64 99 C42.88 99 21.76 99 0 99 C0 66.33 0 33.66 0 0 Z " fill="#223544" transform="translate(593,676)"/>
<path d="M0 0 C6.93 0 13.86 0 21 0 C21 32.67 21 65.34 21 99 C14.07 99 7.14 99 0 99 C0 66.33 0 33.66 0 0 Z " fill="#213443" transform="translate(544,676)"/>
<path d="M0 0 C0.87510727 0.00141495 1.75021454 0.0028299 2.65184021 0.00428772 C5.41246137 0.00982906 8.17299763 0.02237013 10.93359375 0.03515625 C12.81966028 0.04017885 14.70572809 0.04474042 16.59179688 0.04882812 C21.18492792 0.05977918 25.7779965 0.07700241 30.37109375 0.09765625 C30.37109375 0.42765625 30.37109375 0.75765625 30.37109375 1.09765625 C29.40695557 1.1227124 28.44281738 1.14776855 27.44946289 1.17358398 C23.88421533 1.26750931 20.31916942 1.36776564 16.75415039 1.4699707 C15.20895086 1.5133761 13.66370161 1.55504696 12.1184082 1.5949707 C9.90170279 1.65253824 7.68524895 1.71627049 5.46875 1.78125 C4.77395035 1.79796249 4.0791507 1.81467499 3.36329651 1.83189392 C0.08347346 1.66268481 0.08347346 1.66268481 -2.62890625 3.09765625 C-4.10287364 3.30533854 -5.58381885 3.46481642 -7.06640625 3.59765625 C-10.4738813 3.88912569 -10.4738813 3.88912569 -13.62890625 5.09765625 C-15.61721479 5.09765625 -17.605651 5.09527157 -19.59375 5.06640625 C-22.02721045 5.10377225 -24.26440796 5.54130371 -26.62890625 6.09765625 C-27.28890625 6.09765625 -27.94890625 6.09765625 -28.62890625 6.09765625 C-29.28890625 6.75765625 -29.94890625 7.41765625 -30.62890625 8.09765625 C-31.61890625 7.76765625 -32.60890625 7.43765625 -33.62890625 7.09765625 C-39.21342493 7.54858012 -44.10209527 9.12614161 -49.31640625 11.03515625 C-50.06212891 11.30005859 -50.80785156 11.56496094 -51.57617188 11.83789062 C-55.03851917 13.08260602 -58.37803277 14.35917954 -61.62890625 16.09765625 C-71.12890625 20.09765625 -71.12890625 20.09765625 -74.62890625 20.09765625 C-74.95890625 20.75765625 -75.28890625 21.41765625 -75.62890625 22.09765625 C-79.94301587 24.63250032 -84.42287302 26.71680365 -89.19140625 28.22265625 C-89.99578125 28.51140625 -90.80015625 28.80015625 -91.62890625 29.09765625 C-92.12390625 30.58265625 -92.12390625 30.58265625 -92.62890625 32.09765625 C-94.9556249 33.11295166 -97.28925095 34.11253823 -99.62890625 35.09765625 C-100.28890625 36.08765625 -100.94890625 37.07765625 -101.62890625 38.09765625 C-103.30558264 39.05106047 -104.98478135 40.00068429 -106.68359375 40.9140625 C-109.46261713 42.60491408 -111.76598117 44.72323581 -114.1484375 46.92578125 C-115.62890625 48.09765625 -115.62890625 48.09765625 -117.62890625 48.09765625 C-117.62890625 48.75765625 -117.62890625 49.41765625 -117.62890625 50.09765625 C-118.41265625 50.34515625 -119.19640625 50.59265625 -120.00390625 50.84765625 C-122.71064774 51.80145521 -122.71064774 51.80145521 -123.48046875 53.8515625 C-125.03690988 56.89562252 -127.19764494 58.89276685 -129.62890625 61.28515625 C-130.51578125 62.16558594 -131.40265625 63.04601562 -132.31640625 63.953125 C-134.62890625 66.09765625 -134.62890625 66.09765625 -136.62890625 67.09765625 C-137.06203125 67.84015625 -137.49515625 68.58265625 -137.94140625 69.34765625 C-139.82679242 72.42013742 -142.05426076 74.58737689 -144.62890625 77.09765625 C-146.64702976 79.54823479 -147.61456065 81.05461944 -148.62890625 84.09765625 C-149.28890625 84.09765625 -149.94890625 84.09765625 -150.62890625 84.09765625 C-150.89703125 84.67515625 -151.16515625 85.25265625 -151.44140625 85.84765625 C-152.62890625 88.09765625 -152.62890625 88.09765625 -154.25390625 90.16015625 C-155.91827975 92.10943945 -155.91827975 92.10943945 -155.62890625 95.09765625 C-156.20640625 95.65453125 -156.78390625 96.21140625 -157.37890625 96.78515625 C-161.03513533 100.54294725 -162.89422308 105.17931687 -164.75390625 110.03515625 C-165.62890625 112.09765625 -165.62890625 112.09765625 -167.62890625 113.09765625 C-167.97382075 114.42804074 -168.30407207 115.76222686 -168.62890625 117.09765625 C-169.62890625 119.09765625 -170.62890625 121.09765625 -171.62890625 123.09765625 C-171.79390625 123.77828125 -171.95890625 124.45890625 -172.12890625 125.16015625 C-172.80558465 127.78228506 -174.2405046 129.7836535 -175.62890625 132.09765625 C-175.98791525 133.4243067 -176.31791486 134.7589355 -176.62890625 136.09765625 C-177.37475878 138.59058727 -178.14167432 141.07646096 -178.91015625 143.5625 C-179.6649714 146.08962241 -179.6649714 146.08962241 -180.1328125 148.6875 C-180.62890625 151.09765625 -180.62890625 151.09765625 -182.06640625 154.72265625 C-183.66348594 158.84715332 -184.43855311 162.947109 -185.16015625 167.30078125 C-185.60570642 169.95923058 -186.13451629 172.58561852 -186.69140625 175.22265625 C-188.93004428 186.27482982 -188.53341551 197.07382233 -188.2565918 208.28466797 C-188.21322258 210.07303895 -188.17154897 211.86145187 -188.1315918 213.64990234 C-188.07367106 216.23416823 -188.01006962 218.81824121 -187.9453125 221.40234375 C-187.92024376 222.59632278 -187.92024376 222.59632278 -187.89466858 223.81442261 C-187.79159177 227.69418043 -187.54755914 231.30805569 -186.62890625 235.09765625 C-186.48598145 235.76216797 -186.34305664 236.42667969 -186.19580078 237.11132812 C-185.98093018 238.0790918 -185.98093018 238.0790918 -185.76171875 239.06640625 C-185.60010254 239.79569336 -185.43848633 240.52498047 -185.27197266 241.27636719 C-184.91896534 242.85807952 -184.56441003 244.43944698 -184.20849609 246.02050781 C-183.41026803 249.56739831 -182.62620092 253.11112407 -181.91015625 256.67578125 C-180.38556616 264.04463337 -177.95060635 270.48401053 -174.8359375 277.296875 C-173.62890625 280.09765625 -173.62890625 280.09765625 -173.62890625 282.09765625 C-172.96890625 282.09765625 -172.30890625 282.09765625 -171.62890625 282.09765625 C-171.52578125 282.77828125 -171.42265625 283.45890625 -171.31640625 284.16015625 C-170.06706696 289.4982423 -167.91455398 293.76657515 -164.62890625 298.09765625 C-164.43361328 298.98517578 -164.43361328 298.98517578 -164.234375 299.890625 C-163.46626412 302.69051304 -162.11394833 304.77146667 -160.56640625 307.22265625 C-157.62890625 311.88118566 -157.62890625 311.88118566 -157.62890625 314.09765625 C-156.96890625 314.09765625 -156.30890625 314.09765625 -155.62890625 314.09765625 C-155.28859375 314.87109375 -155.28859375 314.87109375 -154.94140625 315.66015625 C-153.42908733 318.46874853 -151.59649082 320.89116645 -149.65234375 323.4140625 C-148.62890625 325.09765625 -148.62890625 325.09765625 -148.62890625 328.09765625 C-147.76265625 328.40703125 -147.76265625 328.40703125 -146.87890625 328.72265625 C-143.82337988 330.58992237 -142.55391348 333.1169999 -140.62890625 336.09765625 C-139.63890625 336.75765625 -138.64890625 337.41765625 -137.62890625 338.09765625 C-137.62890625 339.08765625 -137.62890625 340.07765625 -137.62890625 341.09765625 C-136.96890625 341.09765625 -136.30890625 341.09765625 -135.62890625 341.09765625 C-134.1484375 342.671875 -134.1484375 342.671875 -132.44140625 344.78515625 C-129.15451504 348.66904023 -125.83646144 351.26564795 -121.62890625 354.09765625 C-119.29031341 356.16341326 -118.65062446 357.03250162 -117.62890625 360.09765625 C-116.63890625 360.09765625 -115.64890625 360.09765625 -114.62890625 360.09765625 C-114.62890625 360.75765625 -114.62890625 361.41765625 -114.62890625 362.09765625 C-113.30890625 361.76765625 -111.98890625 361.43765625 -110.62890625 361.09765625 C-110.29890625 362.74765625 -109.96890625 364.39765625 -109.62890625 366.09765625 C-108.63890625 366.09765625 -107.64890625 366.09765625 -106.62890625 366.09765625 C-106.29890625 366.75765625 -105.96890625 367.41765625 -105.62890625 368.09765625 C-103.6042737 368.74978917 -103.6042737 368.74978917 -101.62890625 369.09765625 C-101.62890625 369.75765625 -101.62890625 370.41765625 -101.62890625 371.09765625 C-100.96890625 371.09765625 -100.30890625 371.09765625 -99.62890625 371.09765625 C-99.62890625 371.75765625 -99.62890625 372.41765625 -99.62890625 373.09765625 C-97.97890625 373.42765625 -96.32890625 373.75765625 -94.62890625 374.09765625 C-94.62890625 374.75765625 -94.62890625 375.41765625 -94.62890625 376.09765625 C-93.63890625 376.09765625 -92.64890625 376.09765625 -91.62890625 376.09765625 C-91.62890625 376.75765625 -91.62890625 377.41765625 -91.62890625 378.09765625 C-88.98890625 378.42765625 -86.34890625 378.75765625 -83.62890625 379.09765625 C-83.58765625 379.71640625 -83.54640625 380.33515625 -83.50390625 380.97265625 C-83.21515625 381.67390625 -82.92640625 382.37515625 -82.62890625 383.09765625 C-79.77910986 384.21446331 -79.77910986 384.21446331 -76.62890625 385.09765625 C-74.25390625 386.72265625 -74.25390625 386.72265625 -72.62890625 388.09765625 C-77.54636627 387.49139406 -81.39755352 385.35404749 -85.69140625 383.03515625 C-86.82304199 382.42788696 -86.82304199 382.42788696 -87.97753906 381.80834961 C-104.13348746 373.01397489 -118.36808787 361.75571016 -131.62890625 349.09765625 C-132.48226562 348.29714844 -133.335625 347.49664063 -134.21484375 346.671875 C-158.58323803 323.18750765 -175.7045834 291.49071171 -184.62890625 259.09765625 C-184.82178223 258.43088867 -185.0146582 257.76412109 -185.21337891 257.07714844 C-199.40076908 207.5264204 -191.75691918 151.23887232 -167.62890625 106.09765625 C-161.7428741 95.54212503 -155.21149931 85.51453928 -147.62890625 76.09765625 C-147.22236816 75.58960449 -146.81583008 75.08155273 -146.39697266 74.55810547 C-135.28317505 60.7559646 -122.92909424 48.57236876 -108.62890625 38.09765625 C-107.04142578 36.92783203 -107.04142578 36.92783203 -105.421875 35.734375 C-75.10973735 14.09352704 -37.52901414 -0.23379366 0 0 Z " fill="#5718B4" transform="translate(499.62890625,183.90234375)"/>
<path d="M0 0 C4.03520597 1.58962659 8.01811282 3.28232318 12 5 C12 5.99 12 6.98 12 8 C14.475 8.495 14.475 8.495 17 9 C17.495 10.485 17.495 10.485 18 12 C19.423125 12.4021875 19.423125 12.4021875 20.875 12.8125 C25.00448497 14.38170429 25.12376221 16.0974254 27 20 C28.78067271 21.66436751 30.62639465 23.1415761 32.57421875 24.60546875 C33.27998047 25.29576172 33.27998047 25.29576172 34 26 C34 26.99 34 27.98 34 29 C35.485 29.495 35.485 29.495 37 30 C37.495 32.97 37.495 32.97 38 36 C37.34 36 36.68 36 36 36 C35.62875 37.11375 35.62875 37.11375 35.25 38.25 C33.88812506 41.24612487 32.41814238 42.80168875 30 45 C28.24345326 46.62142776 27.11565926 47.75316012 26.09765625 49.92578125 C24.65688056 52.64838584 22.56309121 54.28031051 20.19921875 56.203125 C18.52436981 57.57156286 16.8875662 58.98670809 15.26953125 60.421875 C13.83673828 61.66710937 13.83673828 61.66710937 12.375 62.9375 C11.47523438 63.73027344 10.57546875 64.52304687 9.6484375 65.33984375 C7 67 7 67 4.1640625 66.75390625 C3.44992187 66.50511719 2.73578125 66.25632812 2 66 C1.67 66.66 1.34 67.32 1 68 C0.67 67.34 0.34 66.68 0 66 C-7.01887166 64.40343263 -15.02410699 64.33907309 -22 66 C-22.33 66.66 -22.66 67.32 -23 68 C-24.134375 68.28875 -25.26875 68.5775 -26.4375 68.875 C-29.97694533 69.58371091 -29.97694533 69.58371091 -31.125 71.6875 C-31.41375 72.450625 -31.7025 73.21375 -32 74 C-32.8166111 75.11659069 -33.65206958 76.21950298 -34.5 77.3125 C-39.82995474 84.76500308 -39.9808119 93.64473924 -38.6171875 102.48046875 C-37.88860737 105.65499648 -37.33454188 107.66545812 -35 110 C-34.375 112.125 -34.375 112.125 -34 114 C-33.4225 114.0825 -32.845 114.165 -32.25 114.25 C-30 115 -30 115 -28.25 116.875 C-21.50502145 123.24525752 -13.08145409 122.29327664 -4.4375 122.10546875 C-2.7359375 122.05326172 -2.7359375 122.05326172 -1 122 C-0.67 121.34 -0.34 120.68 0 120 C1.3921875 119.5978125 1.3921875 119.5978125 2.8125 119.1875 C6.58776801 117.78102761 7.7079054 116.24054753 10 113 C11.68117004 111.18950919 12.78953228 110.10523386 15 109 C16.96382088 102.99301849 17.36108077 97.14995256 17.65625 90.85546875 C18.249841 85.92461627 21.62087079 83.30271674 25 80 C27.02680728 77.97729556 29.0493725 75.95044119 31.0703125 73.921875 C32.65309545 72.34550008 34.26071453 70.79409915 35.875 69.25 C38.04913012 67.1821442 38.04913012 67.1821442 39 64.875 C40 63 40 63 42.125 61.75 C45.75182418 59.54236789 48.33068072 56.72174416 51.23046875 53.64453125 C53 52 53 52 55 52 C55.66 50.35 56.32 48.7 57 47 C57.66 47 58.32 47 59 47 C59 46.34 59 45.68 59 45 C59.66 45 60.32 45 61 45 C61.226875 44.443125 61.45375 43.88625 61.6875 43.3125 C63.37028092 40.34760028 65.56108512 38.383485 68 36 C69.51339761 34.16758284 71.00542892 32.32272215 72.47265625 30.453125 C74.26556821 28.74733664 75.58749134 28.39430249 78 28 C76.51891127 31.4534417 74.57178301 33.64921326 71.89453125 36.265625 C70.66573242 37.47798828 70.66573242 37.47798828 69.41210938 38.71484375 C68.55423828 39.55144531 67.69636719 40.38804687 66.8125 41.25 C59.98928333 47.89232376 59.98928333 47.89232376 53.57421875 54.921875 C48.57592854 60.75382137 43.00831006 66.04810717 37.54296875 71.43652344 C32.90179314 76.01827698 28.26030591 80.60496246 23.82421875 85.38671875 C23.27596436 85.97412842 22.72770996 86.56153809 22.1628418 87.16674805 C20.27162733 90.14829948 20.75439266 92.95013425 20.984375 96.36328125 C21.03640606 105.14352317 16.17525188 111.83558275 10.30078125 117.90234375 C3.354248 124.23560072 -4.70269469 126.56255134 -14.0234375 126.3828125 C-21.87692479 125.37278395 -29.59597604 121.79002567 -35 116 C-40.96287749 107.54538868 -44.17398342 99.42863198 -43 89 C-40.89139487 79.09380141 -35.01719256 71.30416887 -26.75 65.5 C-20.03589701 61.83776201 -13.643604 60.76246292 -6 61 C-3.88388551 61.78085406 -1.77923562 62.59351203 0.3125 63.4375 C3.53407285 64.53563596 3.53407285 64.53563596 7 64 C13.34899096 59.92213029 18.17338972 53.70861433 23 48 C24.27069437 46.53927587 25.54402418 45.08083904 26.8203125 43.625 C27.37219238 42.99207031 27.92407227 42.35914063 28.49267578 41.70703125 C29.80484801 40.22100789 31.1497535 38.76401499 32.5 37.3125 C34.25891007 35.12043207 34.25891007 35.12043207 33.7890625 32.59765625 C32.43136271 28.128001 29.16858367 25.32190224 26 22 C25.484375 21.4328125 24.96875 20.865625 24.4375 20.28125 C18.07593636 13.53799254 10.34978357 7.80776466 2.59765625 2.76171875 C1.74042969 2.18035156 0.88320313 1.59898437 0 1 C0 0.67 0 0.34 0 0 Z " fill="#C33140" transform="translate(590,267)"/>
<path d="M0 0 C0 0.33 0 0.66 0 1 C-1.06734375 1.14695313 -2.1346875 1.29390625 -3.234375 1.4453125 C-40.7989459 6.95256292 -75.98602995 24.89342792 -99.34838867 55.47680664 C-122.30239525 86.56327261 -131.75418473 123.49213953 -127.3125 161.875 C-122.88722715 189.00650046 -111.65670336 212.99668393 -94 234 C-93.19691406 234.969375 -92.39382813 235.93875 -91.56640625 236.9375 C-81.7404928 248.29619141 -69.38469475 256.66810403 -57 265 C-57.66 265.33 -58.32 265.66 -59 266 C-63.84376274 264.2910534 -67.513249 261.74502885 -71 258 C-71.99 257.67 -72.98 257.34 -74 257 C-74.33 256.34 -74.66 255.68 -75 255 C-75.99 254.67 -76.98 254.34 -78 254 C-78 253.34 -78 252.68 -78 252 C-79.32 252 -80.64 252 -82 252 C-82.4021875 250.7934375 -82.4021875 250.7934375 -82.8125 249.5625 C-83.204375 248.716875 -83.59625 247.87125 -84 247 C-84.99 246.67 -85.98 246.34 -87 246 C-87 245.34 -87 244.68 -87 244 C-87.66 244 -88.32 244 -89 244 C-89 243.34 -89 242.68 -89 242 C-89.99 241.67 -90.98 241.34 -92 241 C-92.433125 240.071875 -92.433125 240.071875 -92.875 239.125 C-93.86920316 236.78466596 -93.86920316 236.78466596 -96.4375 235.625 C-99.66341013 233.57930089 -100.53713364 231.46468347 -102 228 C-102.66 228 -103.32 228 -104 228 C-104.495 226.02 -104.495 226.02 -105 224 C-105.66 224 -106.32 224 -107 224 C-107 222.35 -107 220.7 -107 219 C-107.99 218.67 -108.98 218.34 -110 218 C-111.41636754 215.7035882 -112.66494939 213.46407856 -113.875 211.0625 C-114.22796143 210.37591309 -114.58092285 209.68932617 -114.94458008 208.98193359 C-115.64952471 207.60817052 -116.35085164 206.23254431 -117.04833984 204.85498047 C-117.82174426 203.34745692 -118.63381317 201.85981598 -119.45703125 200.37890625 C-125.50371558 189.30291622 -128.22249291 176.85601651 -129.59765625 164.4140625 C-129.9549459 161.38230371 -130.48723853 158.48208466 -131.125 155.5 C-132.71940747 147.13877659 -132.68420939 138.3259706 -131 130 C-130.98153176 128.18747436 -131.00339633 126.37415588 -131.0625 124.5625 C-131.09726213 120.21144038 -130.61368859 117.07668697 -129 113 C-128.4838336 111.19203747 -127.98553132 109.37892935 -127.5 107.5625 C-127.24089844 106.60730469 -126.98179687 105.65210938 -126.71484375 104.66796875 C-126.15355386 102.57309993 -125.60552035 100.4746787 -125.0625 98.375 C-123.91592735 94.7329457 -122.3977308 91.43286931 -120.70703125 88.015625 C-119.71296779 85.84039978 -119.71296779 85.84039978 -121 83 C-119.515 82.505 -119.515 82.505 -118 82 C-118 81.34 -118 80.68 -118 80 C-117.34 80 -116.68 80 -116 80 C-115.87625 79.071875 -115.7525 78.14375 -115.625 77.1875 C-115 74 -115 74 -113 71 C-112.34 71 -111.68 71 -111 71 C-111 69.35 -111 67.7 -111 66 C-110.01 66 -109.02 66 -108 66 C-107.26919734 64.02253397 -106.60578253 62.01927511 -106 60 C-106.33 59.34 -106.66 58.68 -107 58 C-104.525 57.505 -104.525 57.505 -102 57 C-101.89558594 56.41734375 -101.79117187 55.8346875 -101.68359375 55.234375 C-100.89706383 52.66354577 -99.82434109 51.2659942 -98.0625 49.25 C-97.53785156 48.63640625 -97.01320313 48.0228125 -96.47265625 47.390625 C-95 46 -95 46 -93 46 C-92.67 45.01 -92.34 44.02 -92 43 C-90.3603279 41.63360658 -88.68889872 40.3050581 -87 39 C-85.31237149 37.3545622 -83.6459651 35.68711423 -82 34 C-80.33333333 32.33333333 -78.66666667 30.66666667 -77 29 C-76.505 28.46375 -76.01 27.9275 -75.5 27.375 C-73.50732588 25.54838205 -71.34289782 24.3536743 -69 23 C-66.91980644 21.66787605 -64.84235297 20.3318502 -62.76953125 18.98828125 C-61 18 -61 18 -59 18 C-59 17.34 -59 16.68 -59 16 C-58.34515625 15.78085937 -57.6903125 15.56171875 -57.015625 15.3359375 C-49.6814687 12.78762895 -42.88478094 9.57094447 -36 6 C-31.46558391 3.6887685 -28.11312504 2 -23 2 C-20.60215954 1.6814257 -18.20656818 1.34578317 -15.8125 1 C-10.49671153 0.25511244 -5.36860856 -0.21912688 0 0 Z " fill="#61159E" transform="translate(499,246)"/>
<path d="M0 0 C4.34426379 2.25567543 7.05791513 4.46846864 9 9 C9.58496307 12.92760919 9.18285914 14.65459941 7.3125 18.1875 C3.81908186 22.43625179 1.59565114 23.76837322 -3.875 24.5625 C-8.0917949 24.3704638 -10.64355075 22.81786819 -13.640625 19.91015625 C-16.08280576 16.47847121 -16.51079622 13.13078683 -16 9 C-12.55784805 1.85091519 -7.89868362 -0.97001378 0 0 Z " fill="#FDF9FA" transform="translate(582,349)"/>
<path d="M0 0 C3.12578143 1.6720747 5.39281175 3.7856235 7 7 C7.39771327 11.77255923 7.47453429 14.08482672 5.25 18.375 C2.66111425 21.39536671 0.77129709 22.69404868 -3.1484375 23.37109375 C-7.38139331 23.4973398 -10.14342222 23.37350209 -13.5 20.625 C-17.13542732 16.80780131 -17.39236502 14.44157848 -17.359375 9.328125 C-16.75455722 5.40995764 -14.83123243 3.69641184 -12 1 C-8.27533151 -0.86233425 -4.05504687 -0.57130829 0 0 Z " fill="#FEFBFA" transform="translate(683,410)"/>
<path d="M0 0 C21.12 0 42.24 0 64 0 C64 5.61 64 11.22 64 17 C49.81 17 35.62 17 21 17 C21 16.67 21 16.34 21 16 C34.53 16 48.06 16 62 16 C62 11.05 62 6.1 62 1 C41.87 1 21.74 1 1 1 C1 32.68 1 64.36 1 97 C21.13 97 41.26 97 62 97 C62 92.05 62 87.1 62 82 C48.47 82 34.94 82 21 82 C21 81.67 21 81.34 21 81 C24.87358108 80.85426591 28.74727578 80.71205216 32.62109375 80.57275391 C34.56777274 80.5020777 36.51435719 80.42881241 38.4609375 80.35546875 C46.98364471 80.05108635 55.47220505 79.95587169 64 80 C64 86.27 64 92.54 64 99 C42.88 99 21.76 99 0 99 C0 66.33 0 33.66 0 0 Z " fill="#10131C" transform="translate(845,676)"/>
<path d="M0 0 C0.99 0 1.98 0 3 0 C2.5359375 1.11375 2.5359375 1.11375 2.0625 2.25 C1.711875 3.1575 1.36125 4.065 1 5 C0.73316406 5.63292969 0.46632813 6.26585937 0.19140625 6.91796875 C-0.25402022 9.14316468 -0.25402022 9.14316468 1.5546875 10.97265625 C2.70324219 12.00712891 2.70324219 12.00712891 3.875 13.0625 C9.10332641 17.99719186 13.54116395 23.37317056 18 29 C19.33305254 30.66689126 20.6663012 32.33362577 22 34 C20.42161616 38.83728225 17.67417384 42.4440285 14.625 46.4375 C13.83077637 47.48550781 13.83077637 47.48550781 13.02050781 48.5546875 C2.29151237 62.57272526 -9.14066106 75.015055 -23 86 C-24.44826172 87.19109375 -24.44826172 87.19109375 -25.92578125 88.40625 C-42.9366939 102.06685584 -62.78745295 112.2326601 -83.5 118.9375 C-84.40790283 119.23237305 -85.31580566 119.52724609 -86.2512207 119.83105469 C-91.85873599 121.56564608 -97.14792434 122.53016872 -103 123 C-101.515 122.505 -101.515 122.505 -100 122 C-100 121.34 -100 120.68 -100 120 C-96.79586926 118.98618248 -93.5861097 117.9914692 -90.375 117 C-89.47136719 116.71382812 -88.56773437 116.42765625 -87.63671875 116.1328125 C-82.9673093 114.70131471 -78.94564552 113.60566282 -74 114 C-74 113.34 -74 112.68 -74 112 C-72.989375 111.566875 -71.97875 111.13375 -70.9375 110.6875 C-70.298125 110.41292969 -69.65875 110.13835937 -69 109.85546875 C-67.14869017 109.0635999 -65.29326366 108.28137417 -63.4375 107.5 C-57.9118995 105.08882887 -52.90568722 102.37555817 -47.9296875 98.98828125 C-46 98 -46 98 -42 98 C-42 97.34 -42 96.68 -42 96 C-40.26451831 94.55473264 -38.46024037 93.1912778 -36.625 91.875 C-35.62726563 91.15054688 -34.62953125 90.42609375 -33.6015625 89.6796875 C-31 88 -31 88 -29 88 C-28.67 87.34 -28.34 86.68 -28 86 C-24.42307692 83 -24.42307692 83 -22 83 C-22 82.34 -22 81.68 -22 81 C-20.31562963 79.69026192 -18.57553843 78.45175407 -16.8125 77.25 C-12.41425835 74.13904859 -9.19833243 71.2977592 -6 67 C-5.53722656 66.55527344 -5.07445312 66.11054687 -4.59765625 65.65234375 C-1.85290453 62.81363965 0.17771349 59.44597353 2.37890625 56.1796875 C4 54 4 54 6 53 C7.04808041 51.02477154 8.0520411 49.02518491 9 47 C10.485 47.495 10.485 47.495 12 48 C12.28875 47.278125 12.5775 46.55625 12.875 45.8125 C13.431875 44.4203125 13.431875 44.4203125 14 43 C14.4640625 41.6696875 14.4640625 41.6696875 14.9375 40.3125 C16 38 16 38 19 36 C19 35.01 19 34.02 19 33 C18.34 32.67 17.68 32.34 17 32 C15.375 30.625 15.375 30.625 14 29 C14 28.01 14 27.02 14 26 C13.401875 25.773125 12.80375 25.54625 12.1875 25.3125 C9.43373093 23.66023856 8.63474818 21.7245803 7 19 C5.68352881 18.30062468 4.34977849 17.63270867 3 17 C0 13.57142857 0 13.57142857 0 11 C-0.66 11 -1.32 11 -2 11 C-3.14947895 7.44706507 -3.0868937 6.20023331 -1.5625 2.6875 C-1.046875 1.800625 -0.53125 0.91375 0 0 Z " fill="#EE701F" transform="translate(656,462)"/>
<path d="M0 0 C0.87510727 0.00141495 1.75021454 0.0028299 2.65184021 0.00428772 C5.41246137 0.00982906 8.17299763 0.02237013 10.93359375 0.03515625 C12.81966028 0.04017885 14.70572809 0.04474042 16.59179688 0.04882812 C21.18492792 0.05977918 25.7779965 0.07700241 30.37109375 0.09765625 C30.37109375 0.42765625 30.37109375 0.75765625 30.37109375 1.09765625 C29.40695557 1.1227124 28.44281738 1.14776855 27.44946289 1.17358398 C23.88421533 1.26750931 20.31916942 1.36776564 16.75415039 1.4699707 C15.20895086 1.5133761 13.66370161 1.55504696 12.1184082 1.5949707 C9.90170279 1.65253824 7.68524895 1.71627049 5.46875 1.78125 C4.77395035 1.79796249 4.0791507 1.81467499 3.36329651 1.83189392 C0.08347346 1.66268481 0.08347346 1.66268481 -2.62890625 3.09765625 C-4.10287364 3.30533854 -5.58381885 3.46481642 -7.06640625 3.59765625 C-10.4738813 3.88912569 -10.4738813 3.88912569 -13.62890625 5.09765625 C-15.61721479 5.09765625 -17.605651 5.09527157 -19.59375 5.06640625 C-22.02721045 5.10377225 -24.26440796 5.54130371 -26.62890625 6.09765625 C-27.28890625 6.09765625 -27.94890625 6.09765625 -28.62890625 6.09765625 C-29.28890625 6.75765625 -29.94890625 7.41765625 -30.62890625 8.09765625 C-31.61890625 7.76765625 -32.60890625 7.43765625 -33.62890625 7.09765625 C-39.21342493 7.54858012 -44.10209527 9.12614161 -49.31640625 11.03515625 C-50.06212891 11.30005859 -50.80785156 11.56496094 -51.57617188 11.83789062 C-55.03851917 13.08260602 -58.37803277 14.35917954 -61.62890625 16.09765625 C-71.12890625 20.09765625 -71.12890625 20.09765625 -74.62890625 20.09765625 C-74.95890625 20.75765625 -75.28890625 21.41765625 -75.62890625 22.09765625 C-79.94301587 24.63250032 -84.42287302 26.71680365 -89.19140625 28.22265625 C-89.99578125 28.51140625 -90.80015625 28.80015625 -91.62890625 29.09765625 C-91.95890625 30.08765625 -92.28890625 31.07765625 -92.62890625 32.09765625 C-94.9556249 33.11295166 -97.28925095 34.11253823 -99.62890625 35.09765625 C-100.28890625 36.08765625 -100.94890625 37.07765625 -101.62890625 38.09765625 C-103.30558264 39.05106047 -104.98478135 40.00068429 -106.68359375 40.9140625 C-109.46261713 42.60491408 -111.76598117 44.72323581 -114.1484375 46.92578125 C-115.62890625 48.09765625 -115.62890625 48.09765625 -117.62890625 48.09765625 C-117.62890625 48.75765625 -117.62890625 49.41765625 -117.62890625 50.09765625 C-119.27890625 50.75765625 -120.92890625 51.41765625 -122.62890625 52.09765625 C-122.62890625 51.10765625 -122.62890625 50.11765625 -122.62890625 49.09765625 C-120.60873212 47.25012069 -118.62137807 45.6123272 -116.44140625 43.97265625 C-115.8057373 43.48619629 -115.17006836 42.99973633 -114.51513672 42.49853516 C-112.56370439 41.0166859 -110.5997312 39.55359002 -108.62890625 38.09765625 C-108.07412598 37.68644531 -107.5193457 37.27523437 -106.94775391 36.8515625 C-76.47129529 14.48144644 -38.06533098 -0.23713474 0 0 Z M-123.62890625 52.09765625 C-123.62890625 55.09765625 -123.62890625 55.09765625 -126.03515625 57.796875 C-127.05890305 58.80067868 -128.09051165 59.79651274 -129.12890625 60.78515625 C-129.65355469 61.29626953 -130.17820312 61.80738281 -130.71875 62.33398438 C-132.01551529 63.59538333 -133.32136742 64.84742837 -134.62890625 66.09765625 C-135.28890625 65.76765625 -135.94890625 65.43765625 -136.62890625 65.09765625 C-132.33890625 60.80765625 -128.04890625 56.51765625 -123.62890625 52.09765625 Z " fill="#5C119F" transform="translate(499.62890625,183.90234375)"/>
<path d="M0 0 C-1.48108873 3.4534417 -3.42821699 5.64921326 -6.10546875 8.265625 C-6.92466797 9.07386719 -7.74386719 9.88210938 -8.58789062 10.71484375 C-9.44576172 11.55144531 -10.30363281 12.38804687 -11.1875 13.25 C-18.01071667 19.89232376 -18.01071667 19.89232376 -24.42578125 26.921875 C-29.42407146 32.75382137 -34.99168994 38.04810717 -40.45703125 43.43652344 C-45.09820686 48.01827698 -49.73969409 52.60496246 -54.17578125 57.38671875 C-54.72403564 57.97412842 -55.27229004 58.56153809 -55.8371582 59.16674805 C-57.72837267 62.14829948 -57.24560734 64.95013425 -57.015625 68.36328125 C-56.96359394 77.14352317 -61.82474812 83.83558275 -67.69921875 89.90234375 C-74.95242051 96.51519493 -82.83516633 98.21123149 -92.44921875 98.265625 C-95.0854482 97.99110187 -96.73430821 97.33712958 -99 96 C-99 95.67 -99 95.34 -99 95 C-89.1 94.505 -89.1 94.505 -79 94 C-78.67 93.34 -78.34 92.68 -78 92 C-77.071875 91.731875 -76.14375 91.46375 -75.1875 91.1875 C-71.41223199 89.78102761 -70.2920946 88.24054753 -68 85 C-66.31882996 83.18950919 -65.21046772 82.10523386 -63 81 C-61.03617912 74.99301849 -60.63891923 69.14995256 -60.34375 62.85546875 C-59.750159 57.92461627 -56.37912921 55.30271674 -53 52 C-50.97319272 49.97729556 -48.9506275 47.95044119 -46.9296875 45.921875 C-45.34690455 44.34550008 -43.73928547 42.79409915 -42.125 41.25 C-39.95086988 39.1821442 -39.95086988 39.1821442 -39 36.875 C-38 35 -38 35 -35.875 33.75 C-32.24817582 31.54236789 -29.66931928 28.72174416 -26.76953125 25.64453125 C-25 24 -25 24 -23 24 C-22.01 21.525 -22.01 21.525 -21 19 C-20.34 19 -19.68 19 -19 19 C-19 18.34 -19 17.68 -19 17 C-18.34 17 -17.68 17 -17 17 C-16.773125 16.443125 -16.54625 15.88625 -16.3125 15.3125 C-14.62971908 12.34760028 -12.43891488 10.383485 -10 8 C-8.41908851 6.1704931 -6.86952563 4.31921316 -5.33203125 2.453125 C-3.60067222 0.56436969 -2.57501834 0 0 0 Z " fill="#D6402F" transform="translate(668,295)"/>
<path d="M0 0 C5.61 0 11.22 0 17 0 C17 0.33 17 0.66 17 1 C12.05 1 7.1 1 2 1 C2 32.68 2 64.36 2 97 C7.94 97 13.88 97 20 97 C20 77.53 20 58.06 20 38 C20.33 38 20.66 38 21 38 C21 58.13 21 78.26 21 99 C14.07 99 7.14 99 0 99 C0 66.33 0 33.66 0 0 Z " fill="#091627" transform="translate(434,676)"/>
<path d="M0 0 C23.76 0 47.52 0 72 0 C72 5.94 72 11.88 72 18 C69 21 69 21 66 22 C66.66 20.68 67.32 19.36 68 18 C68.33 12.72 68.66 7.44 69 2 C47.22 2 25.44 2 3 2 C3 6.29 3 10.58 3 15 C17.52 15 32.04 15 47 15 C47 15.33 47 15.66 47 16 C31.49 16 15.98 16 0 16 C0 10.72 0 5.44 0 0 Z " fill="#1C2B38" transform="translate(750,676)"/>
<path d="M0 0 C6.6 0 13.2 0 20 0 C20 32.01 20 64.02 20 97 C19.67 97 19.34 97 19 97 C19 65.65 19 34.3 19 2 C13.39 2 7.78 2 2 2 C2 21.47 2 40.94 2 61 C0.68 61 -0.64 61 -2 61 C-1.67 60.34 -1.34 59.68 -1 59 C-0.88017743 57.12155092 -0.82270839 55.23899169 -0.79467773 53.35693359 C-0.77473251 52.17586029 -0.75478729 50.99478699 -0.73423767 49.77792358 C-0.71752518 48.49769318 -0.70081268 47.21746277 -0.68359375 45.8984375 C-0.66281265 44.59170074 -0.64203156 43.28496399 -0.62062073 41.93862915 C-0.56540706 38.463311 -0.51599475 34.98793347 -0.46777344 31.51251221 C-0.41755323 27.966621 -0.36186988 24.4208161 -0.30664062 20.875 C-0.1990677 13.91673988 -0.09812561 6.95839969 0 0 Z " fill="#0A1729" transform="translate(496,676)"/>
<path d="M0 0 C26.52615576 9.41093394 49.34348748 38.78708264 63 62 C63.60972656 62.845625 64.21945312 63.69125 64.84765625 64.5625 C66 67 66 67 65.5078125 69.44921875 C63.64873147 72.59424443 61.38203981 75.18256608 58.875 77.8125 C58.40707031 78.31458984 57.93914063 78.81667969 57.45703125 79.33398438 C56.31098175 80.56189455 55.15634689 81.78178215 54 83 C53.01 82.01 53.01 82.01 52 81 C53.2375 79.8553125 53.2375 79.8553125 54.5 78.6875 C57.34055197 76.24565858 57.34055197 76.24565858 57 73 C59.97 72.01 59.97 72.01 63 71 C62.54738642 69.56068883 62.08767021 68.12361001 61.625 66.6875 C61.36976563 65.88699219 61.11453125 65.08648437 60.8515625 64.26171875 C60.01168189 61.77275472 60.01168189 61.77275472 58 59 C58 58.01 58 57.02 58 56 C57.401875 55.773125 56.80375 55.54625 56.1875 55.3125 C53.38816589 53.63289954 52.41899939 51.90894875 51 49 C51 48.01 51 47.02 51 46 C50.01 45.67 49.02 45.34 48 45 C48 44.01 48 43.02 48 42 C47.071875 41.566875 47.071875 41.566875 46.125 41.125 C43.38978017 39.67694244 42.19099304 38.36288678 40.75 35.625 C39.14225504 32.83026891 39.14225504 32.83026891 36.25 31.25 C33.11959645 29.08279754 31.68897771 27.40663727 29.5 24.375 C26.65320448 20.52048926 24.77155245 19.08444374 20 18 C18.125 16.5625 18.125 16.5625 17 15 C17 14.01 17 13.02 17 12 C15.35 12 13.7 12 12 12 C12 11.34 12 10.68 12 10 C11.01 10 10.02 10 9 10 C8.67 8.68 8.34 7.36 8 6 C7.34 6 6.68 6 6 6 C6 5.34 6 4.68 6 4 C5.195625 3.71125 4.39125 3.4225 3.5625 3.125 C1 2 1 2 0 0 Z " fill="#B6172D" transform="translate(615,212)"/>
<path d="M0 0 C0 0.33 0 0.66 0 1 C-1.06734375 1.14695313 -2.1346875 1.29390625 -3.234375 1.4453125 C-40.10637606 6.85102694 -69.2335122 23.42409373 -95 50 C-95.495 48.515 -95.495 48.515 -96 47 C-94.515 46.505 -94.515 46.505 -93 46 C-92.67 45.01 -92.34 44.02 -92 43 C-90.3603279 41.63360658 -88.68889872 40.3050581 -87 39 C-85.31237149 37.3545622 -83.6459651 35.68711423 -82 34 C-80.33333333 32.33333333 -78.66666667 30.66666667 -77 29 C-76.505 28.46375 -76.01 27.9275 -75.5 27.375 C-73.50732588 25.54838205 -71.34289782 24.3536743 -69 23 C-66.91980644 21.66787605 -64.84235297 20.3318502 -62.76953125 18.98828125 C-61 18 -61 18 -59 18 C-59 17.34 -59 16.68 -59 16 C-58.34515625 15.78085937 -57.6903125 15.56171875 -57.015625 15.3359375 C-49.6814687 12.78762895 -42.88478094 9.57094447 -36 6 C-31.46558391 3.6887685 -28.11312504 2 -23 2 C-20.60215954 1.6814257 -18.20656818 1.34578317 -15.8125 1 C-10.49671153 0.25511244 -5.36860856 -0.21912688 0 0 Z " fill="#621093" transform="translate(499,246)"/>
<path d="M0 0 C13.86 0 27.72 0 42 0 C42.0825 5.548125 42.165 11.09625 42.25 16.8125 C42.28641602 18.56022705 42.32283203 20.3079541 42.36035156 22.10864258 C42.37203513 23.49559297 42.38222775 24.88255707 42.390625 26.26953125 C42.41108887 26.98830444 42.43155273 27.70707764 42.45263672 28.44763184 C42.45410156 30.53833008 42.45410156 30.53833008 42 34 C39.97558594 35.9831543 39.97558594 35.9831543 38 37 C38.48895752 35.98063354 38.48895752 35.98063354 38.98779297 34.94067383 C40.19025011 31.4472835 40.22673314 28.6411443 40.1953125 24.94921875 C40.19031738 23.74354248 40.18532227 22.53786621 40.18017578 21.2956543 C40.16196777 19.77496338 40.14375977 18.25427246 40.125 16.6875 C40.08375 11.840625 40.0425 6.99375 40 2 C27.46 2 14.92 2 2 2 C2 6.95 2 11.9 2 17 C8.93 17 15.86 17 23 17 C23 17.33 23 17.66 23 18 C15.41 18 7.82 18 0 18 C0 12.06 0 6.12 0 0 Z " fill="#172332" transform="translate(370,721)"/>
<path d="M0 0 C3.38135088 3.10338281 4.86568583 6.80336589 6.6875 10.9375 C12.166114 22.92933781 19.44355924 32.9978158 28 43 C28.68578125 43.83273437 29.3715625 44.66546875 30.078125 45.5234375 C39.5956615 56.69773036 51.90242404 64.86126534 64 73 C63.01 73.495 63.01 73.495 62 74 C57.15623726 72.2910534 53.486751 69.74502885 50 66 C49.01 65.67 48.02 65.34 47 65 C46.67 64.34 46.34 63.68 46 63 C45.01 62.67 44.02 62.34 43 62 C43 61.34 43 60.68 43 60 C41.68 60 40.36 60 39 60 C38.731875 59.195625 38.46375 58.39125 38.1875 57.5625 C37.5996875 56.2940625 37.5996875 56.2940625 37 55 C36.01 54.67 35.02 54.34 34 54 C34 53.34 34 52.68 34 52 C33.34 52 32.68 52 32 52 C32 51.34 32 50.68 32 50 C30.515 49.505 30.515 49.505 29 49 C28.71125 48.38125 28.4225 47.7625 28.125 47.125 C27.13079684 44.78466596 27.13079684 44.78466596 24.5625 43.625 C21.33658987 41.57930089 20.46286636 39.46468347 19 36 C18.34 36 17.68 36 17 36 C16.67 34.68 16.34 33.36 16 32 C15.34 32 14.68 32 14 32 C14 30.35 14 28.7 14 27 C13.01 26.67 12.02 26.34 11 26 C9.54160571 23.64187052 8.25090251 21.33918389 7 18.875 C6.65710938 18.22273438 6.31421875 17.57046875 5.9609375 16.8984375 C0 5.4315959 0 5.4315959 0 0 Z " fill="#651496" transform="translate(378,438)"/>
<path d="M0 0 C1.08669795 3.26009385 0.91121865 4.45407796 0.2578125 7.74609375 C0.07863281 8.66583984 -0.10054688 9.58558594 -0.28515625 10.53320312 C-0.47980469 11.49162109 -0.67445313 12.45003906 -0.875 13.4375 C-1.06191406 14.39205078 -1.24882812 15.34660156 -1.44140625 16.33007812 C-2.78952765 23.16151598 -2.78952765 23.16151598 -3.54321289 26.1640625 C-4.07294121 28.29316832 -4.33000605 30.38148534 -4.5625 32.5625 C-4.64628906 33.32691406 -4.73007812 34.09132813 -4.81640625 34.87890625 C-5.19880514 39.29683383 -4.9066982 43.74063503 -4.78125 48.16796875 C-4.75905396 48.96278152 -4.73685791 49.7575943 -4.71398926 50.57649231 C-4.64305043 53.113506 -4.57153232 55.65050298 -4.5 58.1875 C-4.45178475 59.90820206 -4.40360721 61.62890517 -4.35546875 63.34960938 C-4.23741666 67.56641864 -4.11884506 71.78321301 -4 76 C-7 74 -7 74 -7.51171875 71.953125 C-7.72754557 68.63418808 -7.89180201 65.32462929 -8 62 C-8.02723145 61.24106445 -8.05446289 60.48212891 -8.08251953 59.70019531 C-8.62272933 42.4882279 -7.08125485 25.43923551 -4.0859375 8.484375 C-3.94978027 7.71319336 -3.81362305 6.94201172 -3.67333984 6.14746094 C-2.88697801 3.63954264 -1.67200342 2.00777226 0 0 Z " fill="#5923BC" transform="translate(316,336)"/>
<path d="M0 0 C3.82718533 3.38593338 6.14428447 7.02048214 6.5 12.125 C6.45849347 17.26350822 4.40154584 19.82923183 0.875 23.3984375 C-1.35352281 25.3019674 -3.10039774 26.4514266 -6 27 C-8.0625 26.6875 -8.0625 26.6875 -10 26 C-10.680625 25.835 -11.36125 25.67 -12.0625 25.5 C-15.57521701 24.59349238 -17.658618 23.78735952 -20 21 C-20 20.34 -20 19.68 -20 19 C-20.66 19 -21.32 19 -22 19 C-23.21977329 16.56045342 -23.20153813 14.84694151 -23.25 12.125 C-23.27578125 11.26132812 -23.3015625 10.39765625 -23.328125 9.5078125 C-22.93690173 6.51774897 -22.07073811 5.16120725 -20 3 C-19.34 3 -18.68 3 -18 3 C-17.67 2.01 -17.34 1.02 -17 0 C-15.68 0 -14.36 0 -13 0 C-13 -0.66 -13 -1.32 -13 -2 C-8.18315971 -3.58376835 -4.42521156 -2.20866174 0 0 Z M-19.9375 6.1875 C-21.51287239 10.35760337 -21.44416849 13.77858441 -20 18 C-17.6355362 21.33886819 -14.96842303 23.55347682 -10.93359375 24.46875 C-6.49847767 24.67072872 -3.37904835 23.81587362 0 21 C2.49072981 17.97073401 3.85317422 15.88095466 4.5 12 C3.6943808 7.16628481 1.45601098 4.18054945 -2.3125 1.125 C-9.66245169 -1.95172396 -14.87825835 0.47545297 -19.9375 6.1875 Z " fill="#C42228" transform="translate(587,349)"/>
<path d="M0 0 C1.69439089 3.38878178 0.99513621 7.22807535 0.87890625 10.9453125 C0.85529526 11.8303244 0.83168427 12.7153363 0.80735779 13.62716675 C0.73065076 16.45993817 0.64665678 19.29244104 0.5625 22.125 C0.50928636 24.04295551 0.45654592 25.96092422 0.40429688 27.87890625 C0.2759173 32.58615739 0.13769425 37.29297513 0 42 C-6.93 42 -13.86 42 -21 42 C-21 28.8 -21 15.6 -21 2 C-20.01 2.495 -20.01 2.495 -19 3 C-19 15.21 -19 27.42 -19 40 C-13.06 40 -7.12 40 -1 40 C-1.01160156 37.19628906 -1.02320313 34.39257812 -1.03515625 31.50390625 C-1.04294633 28.80004998 -1.04902337 26.09619494 -1.05493164 23.39233398 C-1.05997244 21.5075627 -1.06680498 19.62279535 -1.07543945 17.73803711 C-1.08751617 15.03498364 -1.09323068 12.33198169 -1.09765625 9.62890625 C-1.10281754 8.78099014 -1.10797882 7.93307404 -1.11329651 7.0594635 C-1.11349195 5.03928932 -1.06206211 3.01922066 -1 1 C-0.67 0.67 -0.34 0.34 0 0 Z " fill="#0C1725" transform="translate(704,733)"/>
<path d="M0 0 C1.32 0.33 2.64 0.66 4 1 C-10.48533617 10.15888968 -25.27650018 17.73216539 -41.625 23 C-42.52484619 23.29084473 -43.42469238 23.58168945 -44.35180664 23.88134766 C-49.92122634 25.59190703 -55.19202585 26.52876477 -61 27 C-60.01 26.67 -59.02 26.34 -58 26 C-58 25.34 -58 24.68 -58 24 C-54.79586926 22.98618248 -51.5861097 21.9914692 -48.375 21 C-47.47136719 20.71382812 -46.56773437 20.42765625 -45.63671875 20.1328125 C-40.9673093 18.70131471 -36.94564552 17.60566282 -32 18 C-32 17.34 -32 16.68 -32 16 C-30.989375 15.566875 -29.97875 15.13375 -28.9375 14.6875 C-27.9784375 14.27564453 -27.9784375 14.27564453 -27 13.85546875 C-25.14869017 13.0635999 -23.29326366 12.28137417 -21.4375 11.5 C-15.9118995 9.08882887 -10.90568722 6.37555817 -5.9296875 2.98828125 C-4 2 -4 2 0 2 C0 1.34 0 0.68 0 0 Z " fill="#C83B2C" transform="translate(614,558)"/>
<path d="M0 0 C3.38844796 1.12948265 4.06495476 2.03400919 6.25 4.75 C9.51164837 8.61284203 12.81836499 11.18543797 17 14 C19.33859284 16.06575701 19.97828179 16.93484537 21 20 C21.99 20 22.98 20 24 20 C24 20.66 24 21.32 24 22 C25.32 21.67 26.64 21.34 28 21 C28.33 22.65 28.66 24.3 29 26 C29.99 26 30.98 26 32 26 C32.495 26.99 32.495 26.99 33 28 C35.02463255 28.65213292 35.02463255 28.65213292 37 29 C37 29.66 37 30.32 37 31 C37.66 31 38.32 31 39 31 C39 31.66 39 32.32 39 33 C40.65 33.33 42.3 33.66 44 34 C44 34.66 44 35.32 44 36 C44.99 36 45.98 36 47 36 C47 36.66 47 37.32 47 38 C49.64 38.33 52.28 38.66 55 39 C55.04125 39.61875 55.0825 40.2375 55.125 40.875 C55.558125 41.926875 55.558125 41.926875 56 43 C58.84979639 44.11680706 58.84979639 44.11680706 62 45 C64.375 46.625 64.375 46.625 66 48 C61.08253998 47.39373781 57.23135273 45.25639124 52.9375 42.9375 C51.80586426 42.33023071 51.80586426 42.33023071 50.65136719 41.71069336 C34.49201028 32.91446324 20.27095834 21.65190489 7 9 C6.23945313 8.28070312 5.47890625 7.56140625 4.6953125 6.8203125 C1.14998821 3.38889421 1.14998821 3.38889421 0 2 C0 1.34 0 0.68 0 0 Z " fill="#6E1388" transform="translate(361,524)"/>
<path d="M0 0 C-1.48108873 3.4534417 -3.42821699 5.64921326 -6.10546875 8.265625 C-6.92466797 9.07386719 -7.74386719 9.88210938 -8.58789062 10.71484375 C-9.44576172 11.55144531 -10.30363281 12.38804687 -11.1875 13.25 C-17.99677747 19.87694851 -17.99677747 19.87694851 -24.3984375 26.890625 C-29.10701915 32.38477349 -34.30286349 37.4093628 -39.4375 42.5 C-40.4657298 43.52320139 -41.49372626 44.54663733 -42.52148438 45.5703125 C-45.01164338 48.04957999 -47.50492833 50.52567538 -50 53 C-50.495 51.515 -50.495 51.515 -51 50 C-49.77734375 48.1328125 -49.77734375 48.1328125 -47.9375 46.125 C-47.29554688 45.42375 -46.65359375 44.7225 -45.9921875 44 C-44.24928113 42.25025871 -42.48520656 40.67052489 -40.5625 39.125 C-39.716875 38.42375 -38.87125 37.7225 -38 37 C-38 36.34 -38 35.68 -38 35 C-37.34 34.62875 -36.68 34.2575 -36 33.875 C-32.34542919 31.59089324 -29.71324903 28.76836178 -26.76953125 25.64453125 C-25 24 -25 24 -23 24 C-22.34 22.35 -21.68 20.7 -21 19 C-20.34 19 -19.68 19 -19 19 C-19 18.34 -19 17.68 -19 17 C-18.34 17 -17.68 17 -17 17 C-16.773125 16.443125 -16.54625 15.88625 -16.3125 15.3125 C-14.62971908 12.34760028 -12.43891488 10.383485 -10 8 C-8.41908851 6.1704931 -6.86952563 4.31921316 -5.33203125 2.453125 C-3.60067222 0.56436969 -2.57501834 0 0 0 Z " fill="#D43727" transform="translate(668,295)"/>
<path d="M0 0 C-3.64993907 8.89795957 -15.18292498 14.18749125 -23 19 C-23.99 19.66 -24.98 20.32 -26 21 C-28.6875 21.125 -28.6875 21.125 -31 21 C-31 21.66 -31 22.32 -31 23 C-38.66800107 26.29772071 -46.49317515 29.54882741 -55 29 C-54.67 28.34 -54.34 27.68 -54 27 C-51.48363244 26.22062085 -48.98563677 25.53283418 -46.4375 24.875 C-30.92080488 20.56444241 -16.96886477 12.73138273 -4.7578125 2.23046875 C-2 0 -2 0 0 0 Z " fill="#A62C4B" transform="translate(592,498)"/>
<path d="M0 0 C0.495 1.98 0.495 1.98 1 4 C0.50371094 4.4125 0.00742187 4.825 -0.50390625 5.25 C-4.96075038 9.03874036 -8.85542737 12.96234936 -12.5546875 17.49609375 C-13.03164063 17.99238281 -13.50859375 18.48867188 -14 19 C-14.66 19 -15.32 19 -16 19 C-15.67 19.99 -15.34 20.98 -15 22 C-15.51949219 22.44730469 -16.03898438 22.89460938 -16.57421875 23.35546875 C-21.35980076 27.50271977 -21.35980076 27.50271977 -25.875 31.9375 C-28 34 -28 34 -30 34 C-30.309375 35.1446875 -30.309375 35.1446875 -30.625 36.3125 C-32.42070704 39.82229103 -34.43136312 40.52599781 -38 42 C-38 39 -38 39 -36.125 36.8125 C-34 35 -34 35 -32 35 C-31.5968457 34.10680054 -31.5968457 34.10680054 -31.18554688 33.19555664 C-29.99645396 30.99343296 -28.820257 29.60232843 -27.03125 27.87109375 C-26.46019531 27.31099609 -25.88914062 26.75089844 -25.30078125 26.17382812 C-24.70652344 25.60083984 -24.11226562 25.02785156 -23.5 24.4375 C-22.32065437 23.29269053 -21.14348348 22.14563543 -19.96875 20.99609375 C-19.44732422 20.49263428 -18.92589844 19.9891748 -18.38867188 19.47045898 C-16.7743892 17.84358092 -16.7743892 17.84358092 -15 15 C-14.34 15 -13.68 15 -13 15 C-12.78601563 14.45859375 -12.57203125 13.9171875 -12.3515625 13.359375 C-10.51922057 10.1607203 -8.00203394 7.79035516 -5.375 5.25 C-4.859375 4.74339844 -4.34375 4.23679687 -3.8125 3.71484375 C-2.54616661 2.47196098 -1.2736856 1.23534724 0 0 Z " fill="#D74B2C" transform="translate(630,457)"/>
<path d="M0 0 C0.87510727 0.00141495 1.75021454 0.0028299 2.65184021 0.00428772 C5.41246137 0.00982906 8.17299763 0.02237013 10.93359375 0.03515625 C12.81966028 0.04017885 14.70572809 0.04474042 16.59179688 0.04882812 C21.18492792 0.05977918 25.7779965 0.07700241 30.37109375 0.09765625 C30.37109375 0.42765625 30.37109375 0.75765625 30.37109375 1.09765625 C29.40695557 1.1227124 28.44281738 1.14776855 27.44946289 1.17358398 C23.88421533 1.26750931 20.31916942 1.36776564 16.75415039 1.4699707 C15.20895086 1.5133761 13.66370161 1.55504696 12.1184082 1.5949707 C9.90170279 1.65253824 7.68524895 1.71627049 5.46875 1.78125 C4.77395035 1.79796249 4.0791507 1.81467499 3.36329651 1.83189392 C0.08347346 1.66268481 0.08347346 1.66268481 -2.62890625 3.09765625 C-4.10287364 3.30533854 -5.58381885 3.46481642 -7.06640625 3.59765625 C-10.4738813 3.88912569 -10.4738813 3.88912569 -13.62890625 5.09765625 C-15.61721479 5.09765625 -17.605651 5.09527157 -19.59375 5.06640625 C-22.02721045 5.10377225 -24.26440796 5.54130371 -26.62890625 6.09765625 C-27.28890625 6.09765625 -27.94890625 6.09765625 -28.62890625 6.09765625 C-29.28890625 6.75765625 -29.94890625 7.41765625 -30.62890625 8.09765625 C-31.61890625 7.76765625 -32.60890625 7.43765625 -33.62890625 7.09765625 C-35.36140625 7.37609375 -35.36140625 7.37609375 -37.12890625 7.66015625 C-40.62890625 8.09765625 -40.62890625 8.09765625 -43.62890625 6.09765625 C-39.65105639 5.2786208 -35.67141493 4.46863031 -31.69140625 3.66015625 C-30.57443359 3.43005859 -29.45746094 3.19996094 -28.30664062 2.96289062 C-27.20771484 2.74052734 -26.10878906 2.51816406 -24.9765625 2.2890625 C-23.97633057 2.08482666 -22.97609863 1.88059082 -21.94555664 1.67016602 C-14.60786946 0.40355752 -7.43955046 -0.046346 0 0 Z " fill="#6D0F78" transform="translate(499.62890625,183.90234375)"/>
<path d="M0 0 C0.93423645 3.01031744 1.04449911 3.86650268 0 7 C-0.44294602 13.95322243 -0.20878688 20.37363937 2 27 C2.66 27.66 3.32 28.32 4 29 C4.625 31.125 4.625 31.125 5 33 C5.5775 33.0825 6.155 33.165 6.75 33.25 C9 34 9 34 10.75 35.875 C13.86876751 38.82050265 16.94429151 39.64809717 21 41 C18 43 18 43 15.3125 42.5 C5.54909015 38.07883328 0.50664988 31.38056333 -3.375 21.5 C-4.64189367 14.40539544 -4.59192465 7.76780326 -2 1 C-1.34 0.67 -0.68 0.34 0 0 Z " fill="#BF2C3B" transform="translate(551,348)"/>
<path d="M0 0 C4.03520597 1.58962659 8.01811282 3.28232318 12 5 C12 5.99 12 6.98 12 8 C13.65 8.33 15.3 8.66 17 9 C17.33 9.99 17.66 10.98 18 12 C18.94875 12.268125 19.8975 12.53625 20.875 12.8125 C25.00448497 14.38170429 25.12376221 16.0974254 27 20 C28.78067271 21.66436751 30.62639465 23.1415761 32.57421875 24.60546875 C33.04472656 25.06566406 33.51523437 25.52585937 34 26 C34 26.99 34 27.98 34 29 C34.99 29.33 35.98 29.66 37 30 C37.495 32.97 37.495 32.97 38 36 C37.34 36 36.68 36 36 36 C35.67 36.99 35.34 37.98 35 39 C33.37667033 40.38576923 31.71275535 41.72641268 30 43 C29.34 42.67 28.68 42.34 28 42 C28.44472656 41.55269531 28.88945313 41.10539062 29.34765625 40.64453125 C29.91355469 40.03996094 30.47945312 39.43539062 31.0625 38.8125 C31.63097656 38.22082031 32.19945312 37.62914062 32.78515625 37.01953125 C34.23372932 35.03542701 34.23372932 35.03542701 33.87890625 32.50390625 C32.3467999 28.13910548 29.14643049 25.29867713 26 22 C25.484375 21.4328125 24.96875 20.865625 24.4375 20.28125 C18.07593636 13.53799254 10.34978357 7.80776466 2.59765625 2.76171875 C1.74042969 2.18035156 0.88320313 1.59898437 0 1 C0 0.67 0 0.34 0 0 Z " fill="#BB1B2E" transform="translate(590,267)"/>
<path d="M0 0 C0.33 0 0.66 0 1 0 C1.144375 1.051875 1.28875 2.10375 1.4375 3.1875 C2.76937574 12.21465779 5.00446741 21.10064479 7 30 C7.15291504 30.68449219 7.30583008 31.36898438 7.46337891 32.07421875 C7.86844448 33.88348108 8.27782425 35.69177599 8.6875 37.5 C8.91824219 38.5209375 9.14898437 39.541875 9.38671875 40.59375 C9.90695719 42.99096343 9.90695719 42.99096343 11 45 C11.039992 46.99960012 11.04346799 49.00047242 11 51 C8.80904653 48.80904653 8.44156303 47.69354502 7.59765625 44.7734375 C7.34838379 43.91419678 7.09911133 43.05495605 6.84228516 42.16967773 C6.4562915 40.78631226 6.4562915 40.78631226 6.0625 39.375 C5.79743652 38.43019775 5.53237305 37.48539551 5.25927734 36.51196289 C1.92756849 24.38818769 -0.64784921 12.66905123 0 0 Z " fill="#5717B4" transform="translate(310,407)"/>
<path d="M0 0 C0.66 0.33 1.32 0.66 2 1 C1.09636719 1.86882812 0.19273437 2.73765625 -0.73828125 3.6328125 C-1.93008731 4.79646566 -3.12147135 5.96055116 -4.3125 7.125 C-4.90740234 7.69476563 -5.50230469 8.26453125 -6.11523438 8.8515625 C-9.65506085 12.33206227 -11.93033667 15.42185232 -14 20 C-15.62449243 21.70779973 -17.29220027 23.37550757 -19 25 C-21.35360398 27.74587131 -22.85423387 29.56270161 -24 33 C-24.66 33 -25.32 33 -26 33 C-26.268125 33.5775 -26.53625 34.155 -26.8125 34.75 C-28.02929189 37.05550043 -29.30333879 39.02056192 -31 41 C-31.66 41 -32.32 41 -33 41 C-33 41.66 -33 42.32 -33 43 C-33.66 42.67 -34.32 42.34 -35 42 C-24.75608949 26.4728128 -13.35658033 12.93030649 0 0 Z " fill="#5212AA" transform="translate(375,235)"/>
<path d="M0 0 C0 0.33 0 0.66 0 1 C-1.06734375 1.14695313 -2.1346875 1.29390625 -3.234375 1.4453125 C-19.75103146 3.86943157 -35.28573827 8.16362699 -50.2265625 15.6796875 C-53 17 -53 17 -55 17 C-55 16.34 -55 15.68 -55 15 C-54.45585449 14.74307373 -53.91170898 14.48614746 -53.35107422 14.22143555 C-50.85872046 13.04415214 -48.36685713 11.8658342 -45.875 10.6875 C-45.0190625 10.28337891 -44.163125 9.87925781 -43.28125 9.46289062 C-39.67599442 7.75732741 -36.08302551 6.04174571 -32.51953125 4.25 C-29.15510043 2.58082502 -26.74501843 2 -23 2 C-20.60215954 1.6814257 -18.20656818 1.34578317 -15.8125 1 C-10.49671153 0.25511244 -5.36860856 -0.21912688 0 0 Z " fill="#740F78" transform="translate(499,246)"/>
<path d="M0 0 C0 5.61 0 11.22 0 17 C-0.66 17 -1.32 17 -2 17 C-2 12.05 -2 7.1 -2 2 C-15.53 2 -29.06 2 -43 2 C-43 1.67 -43 1.34 -43 1 C-39.12641892 0.85426591 -35.25272422 0.71205216 -31.37890625 0.57275391 C-29.43222726 0.5020777 -27.48564281 0.42881241 -25.5390625 0.35546875 C-17.01635529 0.05108635 -8.52779495 -0.04412831 0 0 Z " fill="#091322" transform="translate(909,756)"/>
<path d="M0 0 C1.7074998 1.28062485 3.37373596 2.61767557 5 4 C5 4.66 5 5.32 5 6 C5.66 6 6.32 6 7 6 C7.226875 6.515625 7.45375 7.03125 7.6875 7.5625 C9.19981892 10.37109228 11.03241543 12.7935102 12.9765625 15.31640625 C14 17 14 17 14 20 C14.86625 20.309375 14.86625 20.309375 15.75 20.625 C18.80552637 22.49226612 20.07499277 25.01934365 22 28 C22.99 28.66 23.98 29.32 25 30 C24.67 30.99 24.34 31.98 24 33 C16.33397829 25.4834929 9.68570337 17.38673243 3.875 8.375 C3.48473633 7.77115479 3.09447266 7.16730957 2.69238281 6.54516602 C0 2.26510878 0 2.26510878 0 0 Z " fill="#64179C" transform="translate(337,492)"/>
<path d="M0 0 C0.886875 0.763125 1.77375 1.52625 2.6875 2.3125 C3.65429688 3.13621094 3.65429688 3.13621094 4.640625 3.9765625 C6.36967729 5.45942523 8.08678343 6.95624799 9.796875 8.4609375 C18.07913025 15.68453882 26.84811071 21.92615307 36 28 C35.01 28.495 35.01 28.495 34 29 C29.15623726 27.2910534 25.486751 24.74502885 22 21 C21.01 20.67 20.02 20.34 19 20 C18.67 19.34 18.34 18.68 18 18 C17.01 17.67 16.02 17.34 15 17 C15 16.34 15 15.68 15 15 C13.68 15 12.36 15 11 15 C10.731875 14.195625 10.46375 13.39125 10.1875 12.5625 C9.795625 11.716875 9.40375 10.87125 9 10 C8.01 9.67 7.02 9.34 6 9 C6 8.34 6 7.68 6 7 C5.34 7 4.68 7 4 7 C4 6.34 4 5.68 4 5 C3.01 4.67 2.02 4.34 1 4 C0.3125 1.9375 0.3125 1.9375 0 0 Z " fill="#72127D" transform="translate(406,483)"/>
<path d="M0 0 C-3.09982693 2.06655129 -5.9525175 3.20252638 -9.4375 4.5 C-13.06140571 5.85226516 -16.56999435 7.21177233 -20 9 C-29.5 13 -29.5 13 -33 13 C-33.33 13.66 -33.66 14.32 -34 15 C-34.33 14.34 -34.66 13.68 -35 13 C-32.34467521 9.72218148 -28.8909015 8.52153249 -25.0625 7.0625 C-24.06694092 6.67553955 -24.06694092 6.67553955 -23.05126953 6.28076172 C-5.9947053 -0.28133996 -5.9947053 -0.28133996 0 0 Z " fill="#65128F" transform="translate(458,191)"/>
<path d="M0 0 C4.42113513 2.22206098 6.43732174 4.63579712 8.9375 8.875 C9.87916016 10.41800781 9.87916016 10.41800781 10.83984375 11.9921875 C12 15 12 15 11.51171875 17.51953125 C9.62619016 20.61335724 7.36300696 23.20253192 4.875 25.8125 C4.17310547 26.56563477 4.17310547 26.56563477 3.45703125 27.33398438 C2.31098175 28.56189455 1.15634689 29.78178215 0 31 C-0.66 30.34 -1.32 29.68 -2 29 C-1.175 28.236875 -0.35 27.47375 0.5 26.6875 C3.34055197 24.24565858 3.34055197 24.24565858 3 21 C4.98 20.34 6.96 19.68 9 19 C8.54738642 17.56068883 8.08767021 16.12361001 7.625 14.6875 C7.36976563 13.88699219 7.11453125 13.08648437 6.8515625 12.26171875 C6.01168189 9.77275472 6.01168189 9.77275472 4 7 C4 6.01 4 5.02 4 4 C2.68 3.34 1.36 2.68 0 2 C0 1.34 0 0.68 0 0 Z " fill="#D74634" transform="translate(669,264)"/>
<path d="M0 0 C2.25681954 6.77045863 -0.80993641 14.81033377 -2.30078125 21.56640625 C-3.14536352 25.71382423 -3.63671753 29.78592337 -4 34 C-5.485 34.495 -5.485 34.495 -7 35 C-7.19571393 28.88937612 -7.27777425 23.75437705 -5 18 C-4.4838336 16.19203747 -3.98553132 14.37892935 -3.5 12.5625 C-2.36993515 8.36347733 -1.20684625 4.1775447 0 0 Z " fill="#5F16A3" transform="translate(375,341)"/>
<path d="M0 0 C4.20407312 1.4764767 7.54215 3.57636309 11.1875 6.125 C11.74977295 6.5180835 12.3120459 6.91116699 12.89135742 7.31616211 C18.10043351 10.99545436 23.08925542 14.93173078 28 19 C24.328125 20.1640625 24.328125 20.1640625 21.375 18.6875 C19 17 19 17 17 15 C17 14.01 17 13.02 17 12 C15.35 12 13.7 12 12 12 C12 11.34 12 10.68 12 10 C11.01 10 10.02 10 9 10 C8.67 8.68 8.34 7.36 8 6 C7.34 6 6.68 6 6 6 C6 5.34 6 4.68 6 4 C5.195625 3.71125 4.39125 3.4225 3.5625 3.125 C1 2 1 2 0 0 Z " fill="#AB1943" transform="translate(615,212)"/>
<path d="M0 0 C0.66 0.33 1.32 0.66 2 1 C-2.74351699 5.96984227 -7.70628305 10.3620672 -13.1875 14.5 C-14.23454102 15.32371094 -14.23454102 15.32371094 -15.30273438 16.1640625 C-15.98013672 16.67710937 -16.65753906 17.19015625 -17.35546875 17.71875 C-18.26268677 18.41387695 -18.26268677 18.41387695 -19.18823242 19.12304688 C-21 20 -21 20 -23.2277832 19.64257812 C-23.81261475 19.43052734 -24.39744629 19.21847656 -25 19 C-23.54634731 17.82750647 -22.08692581 16.66216184 -20.625 15.5 C-19.81289063 14.8503125 -19.00078125 14.200625 -18.1640625 13.53125 C-16 12 -16 12 -14 12 C-13.67 11.34 -13.34 10.68 -13 10 C-9.42307692 7 -9.42307692 7 -7 7 C-7 6.34 -7 5.68 -7 5 C-5.46875 3.7109375 -5.46875 3.7109375 -3.5 2.375 C-2.8503125 1.92898438 -2.200625 1.48296875 -1.53125 1.0234375 C-1.0259375 0.68570313 -0.520625 0.34796875 0 0 Z " fill="#EC6220" transform="translate(641,538)"/>
<path d="M0 0 C0.33 0 0.66 0 1 0 C1 10.89 1 21.78 1 33 C0.34 32.67 -0.32 32.34 -1 32 C-1.67500212 27.3641364 -1.79443537 22.67784888 -2 18 C-2.04253906 17.13761719 -2.08507812 16.27523438 -2.12890625 15.38671875 C-2.27164924 10.02909861 -1.3690564 5.17063266 0 0 Z " fill="#5A0D9E" transform="translate(369,372)"/>
<path d="M0 0 C0.99 0 1.98 0 3 0 C3 0.66 3 1.32 3 2 C3.66 2 4.32 2 5 2 C5 2.66 5 3.32 5 4 C6.65 4.33 8.3 4.66 10 5 C10 5.66 10 6.32 10 7 C10.99 7 11.98 7 13 7 C13 7.66 13 8.32 13 9 C15.64 9.33 18.28 9.66 21 10 C21.04125 10.61875 21.0825 11.2375 21.125 11.875 C21.41375 12.57625 21.7025 13.2775 22 14 C24.84979639 15.11680706 24.84979639 15.11680706 28 16 C30.375 17.625 30.375 17.625 32 19 C27.04192703 18.3960697 23.14152614 16.21057827 18.8125 13.875 C17.68726929 13.2725647 17.68726929 13.2725647 16.53930664 12.65795898 C4.84848798 6.30050162 4.84848798 6.30050162 0 2 C0 1.34 0 0.68 0 0 Z " fill="#751378" transform="translate(395,553)"/>
<path d="M0 0 C-3.0585491 7.54554146 -12.84757079 13.48077686 -20 17 C-22.66987344 17.87619558 -25.23407259 18.45669283 -28 19 C-25.38600577 16.03990201 -22.32475402 14.302865 -18.9375 12.3125 C-13.55469451 9.10204912 -8.70851179 5.53915897 -3.92578125 1.46875 C-2 0 -2 0 0 0 Z " fill="#B4282D" transform="translate(592,498)"/>
<path d="M0 0 C-1 2 -1 2 -2.71484375 2.76196289 C-5.14074035 3.53764226 -7.56662152 4.31053116 -10 5.0625 C-10.82628906 5.33126953 -11.65257812 5.60003906 -12.50390625 5.87695312 C-18.02535344 7.60942599 -23.23191781 8.52901748 -29 9 C-28.01 8.67 -27.02 8.34 -26 8 C-26 7.34 -26 6.68 -26 6 C-22.79586926 4.98618248 -19.5861097 3.9914692 -16.375 3 C-15.47136719 2.71382812 -14.56773437 2.42765625 -13.63671875 2.1328125 C-8.9673093 0.70131471 -4.94564552 -0.39433718 0 0 Z " fill="#B72E31" transform="translate(582,576)"/>
<path d="M0 0 C2.59121649 1.86878055 3.32328889 3.07927742 5 6 C5.3789949 9.05190631 5.30553453 11.94465466 5 15 C4.67 15 4.34 15 4 15 C3.773125 13.783125 3.54625 12.56625 3.3125 11.3125 C2.25762752 7.032298 0.43240185 4.83173152 -3 2 C-6.11888678 0.44055661 -8.5454145 0.71683725 -12 1 C-14.53937969 2.12697277 -16.66021098 3.47197452 -19 5 C-18.34 3.35 -17.68 1.7 -17 0 C-15.68 0 -14.36 0 -13 0 C-13 -0.66 -13 -1.32 -13 -2 C-8.15385249 -3.59340451 -4.46425846 -2.16858106 0 0 Z " fill="#C4242D" transform="translate(587,349)"/>
<path d="M0 0 C-0.66 0 -1.32 0 -2 0 C-2 0.66 -2 1.32 -2 2 C-2.66 2 -3.32 2 -4 2 C-4.33 2.66 -4.66 3.32 -5 4 C-6.134375 4.28875 -7.26875 4.5775 -8.4375 4.875 C-11.97694533 5.58371091 -11.97694533 5.58371091 -13.125 7.6875 C-13.41375 8.450625 -13.7025 9.21375 -14 10 C-14.80284098 11.26979951 -15.63931499 12.51867317 -16.5 13.75 C-17.13421875 14.67039062 -17.13421875 14.67039062 -17.78125 15.609375 C-18.1834375 16.06828125 -18.585625 16.5271875 -19 17 C-19.66 17 -20.32 17 -21 17 C-21.33 17.66 -21.66 18.32 -22 19 C-21.22465206 11.89476233 -15.4946612 6.87355439 -10.17578125 2.5 C-6.60934247 0.05649535 -4.24187091 -1.41395697 0 0 Z " fill="#B8192B" transform="translate(572,331)"/>
<path d="M0 0 C0.99 0.66 1.98 1.32 3 2 C2 4 2 4 -0.875 5.125 C-6.33055356 6.54818789 -13.08551447 7.26929018 -18.33203125 4.984375 C-19.15767578 4.49710937 -19.15767578 4.49710937 -20 4 C-20 3.67 -20 3.34 -20 3 C-10.1 2.505 -10.1 2.505 0 2 C0 1.34 0 0.68 0 0 Z " fill="#D44337" transform="translate(589,387)"/>
<path d="M0 0 C2.65837761 0.45572188 4.95712169 0.98130945 7.4375 2.0625 C10.42308583 3.1547875 12.84529623 3.14673041 16 3 C16 3.66 16 4.32 16 5 C16.99 5 17.98 5 19 5 C19 5.66 19 6.32 19 7 C20.32 7 21.64 7 23 7 C23 7.99 23 8.98 23 10 C24.2065625 10.433125 24.2065625 10.433125 25.4375 10.875 C28 12 28 12 29 14 C24.42648459 12.25555637 20.040531 10.16605279 15.625 8.0625 C10.45678335 5.60166186 5.27644922 3.22056372 0 1 C0 0.67 0 0.34 0 0 Z " fill="#A11445" transform="translate(561,253)"/>
<path d="M0 0 C0 3 0 3 -1.3125 4.5 C-1.869375 4.995 -2.42625 5.49 -3 6 C-4.7325063 7.5939058 -5.88291074 8.74648084 -6.875 10.89453125 C-8.1221235 13.22855753 -9.43012902 14.54049697 -11.4375 16.25 C-12.03433594 16.77078125 -12.63117187 17.2915625 -13.24609375 17.828125 C-15 19 -15 19 -18 19 C-17.0925 18.154375 -16.185 17.30875 -15.25 16.4375 C-12.55658595 13.77540471 -10.96634036 11.11436676 -9.2109375 7.74609375 C-6.8751117 4.37798364 -3.37857244 2.23871426 0 0 Z " fill="#C8343B" transform="translate(623,306)"/>
<path d="M0 0 C0 4.27623368 -2.51959431 6.12167244 -5.3125 9.0625 C-5.81201172 9.60455078 -6.31152344 10.14660156 -6.82617188 10.70507812 C-9.10457112 13.14643573 -11.21018132 15.14012088 -14 17 C-17.17535043 16.57661994 -20.05512526 15.22703114 -23 14 C-20.43900521 13.14633507 -19.36548458 12.84858496 -16.8125 13.90625 C-14.02985745 14.28469374 -14.02985745 14.28469374 -12.28393555 12.77172852 C-10.33986134 10.9316487 -8.50582613 9.02689146 -6.6875 7.0625 C-6.04232422 6.39025391 -5.39714844 5.71800781 -4.73242188 5.02539062 C-3.14066995 3.36289417 -1.56453095 1.68807156 0 0 Z " fill="#C01E27" transform="translate(611,317)"/>
<path d="M0 0 C-0.57443848 0.2266333 -1.14887695 0.4532666 -1.74072266 0.68676758 C-4.36992557 1.72589341 -6.99746636 2.76916084 -9.625 3.8125 C-10.52863281 4.16892578 -11.43226563 4.52535156 -12.36328125 4.89257812 C-16.16204058 6.40376341 -19.86406533 7.93203267 -23.5234375 9.76171875 C-26 11 -26 11 -28 11 C-28 10.34 -28 9.68 -28 9 C-24.96435258 7.50824493 -21.92054938 6.03392012 -18.875 4.5625 C-17.59109375 3.93118164 -17.59109375 3.93118164 -16.28125 3.28710938 C-5.57720226 -1.85906742 -5.57720226 -1.85906742 0 0 Z " fill="#6A0D80" transform="translate(472,252)"/>
<path d="M0 0 C0.99 0.495 0.99 0.495 2 1 C2 1.66 2 2.32 2 3 C2.5775 3.0825 3.155 3.165 3.75 3.25 C6 4 6 4 7.75 5.875 C10.86876751 8.82050265 13.94429151 9.64809717 18 11 C15 13 15 13 12.3125 12.5 C8.04973195 10.56968994 4.35991385 8.27972498 1 5 C0 2.125 0 2.125 0 0 Z " fill="#C92D2D" transform="translate(554,378)"/>
<path d="M0 0 C1.9609375 -0.328125 1.9609375 -0.328125 4.375 -0.25 C5.25671875 -0.22421875 6.1384375 -0.1984375 7.046875 -0.171875 C12.04090684 0.11878294 17.02068177 0.52089034 22 1 C21.67 1.99 21.34 2.98 21 4 C14.07 3.34 7.14 2.68 0 2 C-0.33 2.99 -0.66 3.98 -1 5 C-1.33 4.34 -1.66 3.68 -2 3 C-1.34 2.01 -0.68 1.02 0 0 Z " fill="#1E2430" transform="translate(716,675)"/>
<path d="M0 0 C6.43397713 3.53868742 11.70947414 9.41894827 15 16 C11.92626537 15.37128155 9.66742592 14.87574371 7.7109375 12.30859375 C6.73799524 10.57619657 5.86195317 8.79021043 5 7 C4.34 7 3.68 7 3 7 C2.67 5.68 2.34 4.36 2 3 C1.34 3 0.68 3 0 3 C0 2.01 0 1.02 0 0 Z " fill="#6E1591" transform="translate(392,467)"/>
<path d="M0 0 C0.33 0 0.66 0 1 0 C1.60978185 4.18136125 1.8414915 7.59513707 -0.3828125 11.30859375 C-3.46513818 14.94467058 -6.22086174 17.84142103 -11 19 C-11.33 18.34 -11.66 17.68 -12 17 C-11.44570313 16.61328125 -10.89140625 16.2265625 -10.3203125 15.828125 C-9.59585938 15.30734375 -8.87140625 14.7865625 -8.125 14.25 C-7.40570312 13.73953125 -6.68640625 13.2290625 -5.9453125 12.703125 C-3.91429435 10.92496453 -3.02144988 9.47298393 -2 7 C-1.34 7 -0.68 7 0 7 C0 4.69 0 2.38 0 0 Z " fill="#CF3833" transform="translate(592,357)"/>
<path d="M0 0 C4.43481736 2.24497859 6.99298805 5.20452888 9.8125 9.1875 C10.21919922 9.74630859 10.62589844 10.30511719 11.04492188 10.88085938 C12.03813864 12.24799305 13.02022934 13.6231981 14 15 C13.67 15.66 13.34 16.32 13 17 C10.5 14.6875 10.5 14.6875 8 12 C8 11.01 8 10.02 8 9 C7.01 8.67 6.02 8.34 5 8 C5 7.01 5 6.02 5 5 C4.38125 4.71125 3.7625 4.4225 3.125 4.125 C1 3 1 3 -1 1 C-0.67 0.67 -0.34 0.34 0 0 Z " fill="#C2252E" transform="translate(658,249)"/>
<path d="M0 0 C0.33 1.32 0.66 2.64 1 4 C-3.47307108 8.04165813 -7.88276824 11.80173015 -13 15 C-11.38989473 10.92623969 -8.46177729 8.23492931 -5.375 5.25 C-4.859375 4.74339844 -4.34375 4.23679687 -3.8125 3.71484375 C-2.54616661 2.47196098 -1.2736856 1.23534724 0 0 Z " fill="#E34B1B" transform="translate(630,457)"/>
<path d="M0 0 C0.66 0.33 1.32 0.66 2 1 C-1.80547441 5.03002104 -6.38190037 8.72728129 -12 9.3125 C-12.99 9.1578125 -12.99 9.1578125 -14 9 C-10.38216587 4.55993084 -5.28163799 2.01511972 0 0 Z " fill="#61139C" transform="translate(422,203)"/>
<path d="M0 0 C0.99 0.33 1.98 0.66 3 1 C-0.96 4.96 -4.92 8.92 -9 13 C-9.33 12.01 -9.66 11.02 -10 10 C-8.671875 8.02734375 -8.671875 8.02734375 -6.75 5.9375 C-6.12609375 5.24527344 -5.5021875 4.55304688 -4.859375 3.83984375 C-3 2 -3 2 0 0 Z " fill="#D13021" transform="translate(627,335)"/>
<path d="M0 0 C7.26 0 14.52 0 22 0 C22 0.33 22 0.66 22 1 C20.95199219 1.06058594 19.90398438 1.12117187 18.82421875 1.18359375 C17.44529952 1.26801738 16.06639395 1.35266447 14.6875 1.4375 C13.65206055 1.49647461 13.65206055 1.49647461 12.59570312 1.55664062 C9.52838465 1.74927415 6.93031848 2.02322717 4 3 C3.67 3.99 3.34 4.98 3 6 C0 2.25 0 2.25 0 0 Z " fill="#151C27" transform="translate(648,676)"/>
<path d="M0 0 C0.33 0.99 0.66 1.98 1 3 C1.99 3.33 2.98 3.66 4 4 C4.33 5.98 4.66 7.96 5 10 C4.34 10 3.68 10 3 10 C2.67 10.99 2.34 11.98 2 13 C0.37667033 14.38576923 -1.28724465 15.72641268 -3 17 C-3.66 16.67 -4.32 16.34 -5 16 C-4.55527344 15.59910156 -4.11054687 15.19820313 -3.65234375 14.78515625 C-0.06896359 11.24964664 -0.06896359 11.24964664 1.17578125 6.53125 C0.90469539 4.30623358 0.54226598 2.17399361 0 0 Z " fill="#C32129" transform="translate(623,293)"/>
<path d="M0 0 C4.48384698 2.23416597 6.40759781 4.67939875 8.875 9 C9.49117187 10.051875 10.10734375 11.10375 10.7421875 12.1875 C12 15 12 15 11 18 C10.6596875 17.2265625 10.6596875 17.2265625 10.3125 16.4375 C8.80018108 13.62890772 6.96758457 11.2064898 5.0234375 8.68359375 C4 7 4 7 4 4 C2.68 3.34 1.36 2.68 0 2 C0 1.34 0 0.68 0 0 Z " fill="#CE3026" transform="translate(669,264)"/>
<path d="M0 0 C-3.51760602 3.51760602 -8.12842961 3.05502509 -12.875 3.0625 C-14.25006609 3.0466164 -15.62511713 3.02749766 -17 3 C-12.01689164 -1.58445969 -6.32415801 -1.38822981 0 0 Z " fill="#9F213B" transform="translate(551,585)"/>
<path d="M0 0 C1.32 0 2.64 0 4 0 C4 0.66 4 1.32 4 2 C2.04775792 3.28406399 0.03659238 4.47941678 -2 5.625 C-3.11375 6.25664062 -4.2275 6.88828125 -5.375 7.5390625 C-6.24125 8.02117187 -7.1075 8.50328125 -8 9 C-8.66 8.34 -9.32 7.68 -10 7 C-8.71186658 6.16121545 -7.41936744 5.32913217 -6.125 4.5 C-5.40570313 4.0359375 -4.68640625 3.571875 -3.9453125 3.09375 C-2 2 -2 2 0 2 C0 1.34 0 0.68 0 0 Z " fill="#6F148F" transform="translate(440,262)"/>
<path d="M0 0 C4.03520597 1.58962659 8.01811282 3.28232318 12 5 C12 5.99 12 6.98 12 8 C13.65 8.33 15.3 8.66 17 9 C16.67 9.66 16.34 10.32 16 11 C11.87321179 9.55901911 8.69813572 7.52700506 5.1875 4.9375 C4.21167969 4.22464844 3.23585938 3.51179688 2.23046875 2.77734375 C1.49441406 2.19082031 0.75835938 1.60429687 0 1 C0 0.67 0 0.34 0 0 Z " fill="#AF1A3C" transform="translate(590,267)"/>
<path d="M0 0 C1.485 0.99 1.485 0.99 3 2 C1.68 2 0.36 2 -1 2 C-0.67 1.34 -0.34 0.68 0 0 Z M-1 3 C-1 6 -1 6 -3.40625 8.69921875 C-4.4299968 9.70302243 -5.4616054 10.69885649 -6.5 11.6875 C-7.02464844 12.19861328 -7.54929687 12.70972656 -8.08984375 13.23632812 C-9.38660904 14.49772708 -10.69246117 15.74977212 -12 17 C-12.66 16.67 -13.32 16.34 -14 16 C-9.71 11.71 -5.42 7.42 -1 3 Z " fill="#6E1DAD" transform="translate(377,233)"/>
<path d="M0 0 C1.32 0.33 2.64 0.66 4 1 C2.09273249 2.20253816 0.1737988 3.38658949 -1.75 4.5625 C-2.81734375 5.22378906 -3.8846875 5.88507812 -4.984375 6.56640625 C-8 8 -8 8 -10.390625 7.71484375 C-10.92171875 7.47894531 -11.4528125 7.24304688 -12 7 C-10.75747321 6.15556432 -9.5056114 5.3248542 -8.25 4.5 C-7.55390625 4.0359375 -6.8578125 3.571875 -6.140625 3.09375 C-4 2 -4 2 0 2 C0 1.34 0 0.68 0 0 Z " fill="#D74928" transform="translate(614,558)"/>
<path d="M0 0 C0.56203125 0.23589844 1.1240625 0.47179687 1.703125 0.71484375 C0.29939698 1.9176107 -1.12039597 3.10164894 -2.546875 4.27734375 C-3.73023438 5.26927734 -3.73023438 5.26927734 -4.9375 6.28125 C-7.296875 7.71484375 -7.296875 7.71484375 -9.59375 7.4296875 C-10.15578125 7.19378906 -10.7178125 6.95789063 -11.296875 6.71484375 C-9.89314698 5.5120768 -8.47335403 4.32803856 -7.046875 3.15234375 C-6.25796875 2.49105469 -5.4690625 1.82976563 -4.65625 1.1484375 C-2.296875 -0.28515625 -2.296875 -0.28515625 0 0 Z " fill="#E55523" transform="translate(627.296875,550.28515625)"/>
<path d="M0 0 C-1.4258086 3.45195767 -3.09746334 5.1014256 -6.125 7.25 C-7.21167969 8.03117187 -7.21167969 8.03117187 -8.3203125 8.828125 C-8.87460937 9.21484375 -9.42890625 9.6015625 -10 10 C-10.33 9.01 -10.66 8.02 -11 7 C-9.54634731 5.82750647 -8.08692581 4.66216184 -6.625 3.5 C-5.40683594 2.52546875 -5.40683594 2.52546875 -4.1640625 1.53125 C-2 0 -2 0 0 0 Z " fill="#C1332E" transform="translate(592,498)"/>
<path d="M0 0 C0.66 0.33 1.32 0.66 2 1 C0.61536194 2.32430525 -0.7832323 3.63402803 -2.1875 4.9375 C-2.96480469 5.66839844 -3.74210938 6.39929688 -4.54296875 7.15234375 C-7.13122646 9.09868063 -8.81859299 9.64399886 -12 10 C-11.34 9.67 -10.68 9.34 -10 9 C-10 8.34 -10 7.68 -10 7 C-8.03501678 5.61558 -6.02951535 4.28796166 -4 3 C-2.65824027 2.01133494 -1.32103998 1.0161846 0 0 Z " fill="#D43420" transform="translate(602,380)"/>
<path d="M0 0 C2.64 0.33 5.28 0.66 8 1 C7.67 1.66 7.34 2.32 7 3 C5.00390625 3.37890625 5.00390625 3.37890625 2.5625 3.5625 C-0.84628205 3.8061175 -0.84628205 3.8061175 -4 5 C-6.3400417 4.71758117 -8.67504723 4.38749213 -11 4 C-11 3.67 -11 3.34 -11 3 C-5.555 2.01 -5.555 2.01 0 1 C0 0.67 0 0.34 0 0 Z " fill="#821C8A" transform="translate(490,184)"/>
<path d="M0 0 C1.7074998 1.28062485 3.37373596 2.61767557 5 4 C5 4.66 5 5.32 5 6 C5.66 6 6.32 6 7 6 C9.10865385 9.47307692 9.10865385 9.47307692 8.55859375 12.140625 C8.28208984 13.06101562 8.28208984 13.06101562 8 14 C6.66101601 12.04532248 5.32870953 10.0866421 4 8.125 C3.2575 7.03445313 2.515 5.94390625 1.75 4.8203125 C0 2 0 2 0 0 Z " fill="#57109F" transform="translate(337,492)"/>
<path d="M0 0 C2 1 2 1 2.8515625 3.28515625 C3.10679687 4.20167969 3.36203125 5.11820312 3.625 6.0625 C3.88539063 6.98160156 4.14578125 7.90070313 4.4140625 8.84765625 C4.60742188 9.55792969 4.80078125 10.26820313 5 11 C4.01 11.33 3.02 11.66 2 12 C1.46809459 10.56656 0.94984742 9.12804633 0.4375 7.6875 C0.14746094 6.88699219 -0.14257812 6.08648437 -0.44140625 5.26171875 C-1 3 -1 3 0 0 Z " fill="#5F1AB1" transform="translate(321,455)"/>
<path d="M0 0 C-1 2 -1 2 -2.92578125 2.66796875 C-3.71339844 2.83941406 -4.50101563 3.01085937 -5.3125 3.1875 C-6.09238281 3.36667969 -6.87226562 3.54585937 -7.67578125 3.73046875 C-10.09204759 4.01067443 -11.70242952 3.74132137 -14 3 C-13.01 3 -12.02 3 -11 3 C-11 2.34 -11 1.68 -11 1 C-3.375 -1.125 -3.375 -1.125 0 0 Z " fill="#AD2C3A" transform="translate(567,581)"/>
<path d="M0 0 C0.66 0.33 1.32 0.66 2 1 C0.9802693 4.77300358 0.34127338 5.80206144 -3.125 7.8125 C-4.07375 8.204375 -5.0225 8.59625 -6 9 C-6 6 -6 6 -4.125 3.8125 C-2 2 -2 2 0 2 C0 1.34 0 0.68 0 0 Z " fill="#CD4538" transform="translate(598,490)"/>
<path d="M0 0 C5.60461531 0.42089996 10.72086547 0.91613111 16 3 C12.34606463 4.26823485 9.50929974 3.75715321 5.75 3.0625 C4.67234375 2.86785156 3.5946875 2.67320312 2.484375 2.47265625 C1.66453125 2.31667969 0.8446875 2.16070312 0 2 C0 1.34 0 0.68 0 0 Z " fill="#880E60" transform="translate(552,188)"/>
<path d="M0 0 C-2.35968744 2.09749995 -3.54616994 2.96905704 -6.75 3.1875 C-7.86375 3.0946875 -7.86375 3.0946875 -9 3 C-9 3.66 -9 4.32 -9 5 C-10.65 5.33 -12.3 5.66 -14 6 C-13.67 5.01 -13.34 4.02 -13 3 C-3.40952381 -1.7047619 -3.40952381 -1.7047619 0 0 Z " fill="#B23142" transform="translate(570,516)"/>
<path d="M0 0 C1.41965142 0.42771549 2.8356224 0.86765543 4.25 1.3125 C5.43335938 1.67794922 5.43335938 1.67794922 6.640625 2.05078125 C9 3 9 3 13 6 C9.37 5.67 5.74 5.34 2 5 C1.34 3.35 0.68 1.7 0 0 Z " fill="#79106F" transform="translate(446,514)"/>
<path d="M0 0 C1.670625 0.061875 1.670625 0.061875 3.375 0.125 C3.375 0.785 3.375 1.445 3.375 2.125 C5.685 2.125 7.995 2.125 10.375 2.125 C10.375 2.455 10.375 2.785 10.375 3.125 C8.6459226 3.15225341 6.91671824 3.17150987 5.1875 3.1875 C3.74310547 3.20490234 3.74310547 3.20490234 2.26953125 3.22265625 C-0.48076513 3.12986622 -2.94979591 2.74611685 -5.625 2.125 C-3.625 0.125 -3.625 0.125 0 0 Z " fill="#84114B" transform="translate(483.625,585.875)"/>
<path d="M0 0 C-1.55500981 3.81684226 -4.03595495 6.19195732 -7 9 C-7.99 8.67 -8.98 8.34 -10 8 C-9.04578192 6.85073734 -8.08647955 5.70569459 -7.125 4.5625 C-6.59132813 3.92441406 -6.05765625 3.28632813 -5.5078125 2.62890625 C-3.68057607 0.65492285 -2.70796331 0 0 0 Z " fill="#D63C2B" transform="translate(668,295)"/>
<path d="M0 0 C2.8951683 0.29950017 3.83823494 0.80934832 5.75 3.0625 C7.40740878 6.95741064 7.21413087 9.78875961 7 14 C6.67 14 6.34 14 6 14 C5.7525 12.80375 5.505 11.6075 5.25 10.375 C4.22617481 6.20550902 2.56321852 3.4176247 0 0 Z " fill="#C51C1E" transform="translate(585,350)"/>
<path d="M0 0 C4.51617599 -0.07654536 8.59085217 -0.10228696 13 1 C13 1.66 13 2.32 13 3 C9.57056481 4.18771723 7.62215325 3.80226223 4.25 2.5625 C3.45078125 2.27503906 2.6515625 1.98757812 1.828125 1.69140625 C1.22484375 1.46324219 0.6215625 1.23507813 0 1 C0 0.67 0 0.34 0 0 Z " fill="#9D215E" transform="translate(550,250)"/>
<path d="M0 0 C0.66 0.66 1.32 1.32 2 2 C0.20991533 2.22151549 -1.58218162 2.42682213 -3.375 2.625 C-4.37273438 2.74101563 -5.37046875 2.85703125 -6.3984375 2.9765625 C-7.25695312 2.98429688 -8.11546875 2.99203125 -9 3 C-9.66 2.34 -10.32 1.68 -11 1 C-7.31620978 -0.17881287 -3.84458427 -0.21358801 0 0 Z " fill="#981E40" transform="translate(531,587)"/>
<path d="M0 0 C3.41459553 1.13819851 4.3324158 2.24005518 6.625 4.9375 C7.23601562 5.64777344 7.84703125 6.35804688 8.4765625 7.08984375 C10 9 10 9 11 11 C7.84164893 9.60249952 5.67727175 7.94801766 3.25 5.5 C2.63640625 4.8915625 2.0228125 4.283125 1.390625 3.65625 C0 2 0 2 0 0 Z " fill="#5B0689" transform="translate(361,524)"/>
<path d="M0 0 C0.33 0 0.66 0 1 0 C1.144375 1.051875 1.28875 2.10375 1.4375 3.1875 C1.91317812 6.84426145 1.91317812 6.84426145 2.6875 9.75 C3 12 3 12 1 15 C-0.09506492 11.71480525 -0.09960608 9.26336585 -0.0625 5.8125 C-0.05347656 4.72582031 -0.04445313 3.63914062 -0.03515625 2.51953125 C-0.02355469 1.68808594 -0.01195312 0.85664063 0 0 Z " fill="#4311B0" transform="translate(310,407)"/>
<path d="M0 0 C-2.58302505 3.30053201 -4.99241477 3.39015007 -9 4 C-9.33 4.66 -9.66 5.32 -10 6 C-10.33 5.34 -10.66 4.68 -11 4 C-7.35237315 0.18657193 -5.28949249 -0.11498897 0 0 Z " fill="#6B189B" transform="translate(434,200)"/>
<path d="M0 0 C1.9078584 3.1749094 2.1609041 5.10585211 1.625 8.75 C1.51414062 9.54921875 1.40328125 10.3484375 1.2890625 11.171875 C1.19367188 11.77515625 1.09828125 12.3784375 1 13 C-1.30143236 9.54785147 -1.13833854 8.76520676 -0.625 4.8125 C-0.51414062 3.91144531 -0.40328125 3.01039063 -0.2890625 2.08203125 C-0.19367188 1.39496094 -0.09828125 0.70789063 0 0 Z " fill="#4C18B8" transform="translate(310,360)"/>
<path d="M0 0 C2.97 0.33 5.94 0.66 9 1 C9 1.99 9 2.98 9 4 C9.66 4.33 10.32 4.66 11 5 C6.62886504 4.49172849 3.61004338 3.54826592 0 1 C0 0.67 0 0.34 0 0 Z " fill="#7A1169" transform="translate(428,572)"/>
<path d="M0 0 C0.33 0.66 0.66 1.32 1 2 C1.66 2 2.32 2 3 2 C3.33 5.3 3.66 8.6 4 12 C1.49484216 9.49484216 0.94900914 7.38931835 0 4 C0 2.68 0 1.36 0 0 Z " fill="#4C0EAB" transform="translate(317,446)"/>
<path d="M0 0 C0.8125 1.625 0.8125 1.625 1 4 C-0.46818136 6.24609835 -2.15852858 8.02378677 -4 10 C-4.8125 8.375 -4.8125 8.375 -5 6 C-3.53181864 3.75390165 -1.84147142 1.97621323 0 0 Z " fill="#66189C" transform="translate(402,294)"/>
<path d="M0 0 C-0.66 0 -1.32 0 -2 0 C-2.33 0.99 -2.66 1.98 -3 3 C-5.64 3 -8.28 3 -11 3 C-7.74003139 -0.25996861 -4.40088745 -1.46696248 0 0 Z " fill="#A41F35" transform="translate(558,521)"/>
<path d="M0 0 C1.12894876 0.93274109 2.25300876 1.87140122 3.375 2.8125 C4.00148438 3.33457031 4.62796875 3.85664063 5.2734375 4.39453125 C7 6 7 6 9 9 C8.01 9 7.02 9 6 9 C6 8.34 6 7.68 6 7 C5.34 7 4.68 7 4 7 C4 6.34 4 5.68 4 5 C3.01 4.67 2.02 4.34 1 4 C0.3125 1.9375 0.3125 1.9375 0 0 Z " fill="#660981" transform="translate(406,483)"/>
<path d="M0 0 C0.33 0.66 0.66 1.32 1 2 C-0.25 4.5625 -0.25 4.5625 -2 7 C-2.99 7.33 -3.98 7.66 -5 8 C-3.8141763 4.62496331 -2.72426311 2.35277269 0 0 Z " fill="#18222D" transform="translate(123,691)"/>
<path d="M0 0 C1.67542976 0.28604898 3.34385343 0.61781233 5 1 C5.33 1.99 5.66 2.98 6 4 C4.68 4.33 3.36 4.66 2 5 C1.01 3.68 0.02 2.36 -1 1 C-0.67 0.67 -0.34 0.34 0 0 Z " fill="#881780" transform="translate(424,568)"/>
<path d="M0 0 C-0.66 0 -1.32 0 -2 0 C-2 0.66 -2 1.32 -2 2 C-2.66 2 -3.32 2 -4 2 C-4.33 2.66 -4.66 3.32 -5 4 C-5.99 3.67 -6.98 3.34 -8 3 C-8 2.34 -8 1.68 -8 1 C-3.375 -1.125 -3.375 -1.125 0 0 Z " fill="#BB2133" transform="translate(572,331)"/>
<path d="M0 0 C0.66 0.33 1.32 0.66 2 1 C0.02579865 3.52259061 -0.96745642 3.9929808 -4.1875 4.6875 C-5.5796875 4.8421875 -5.5796875 4.8421875 -7 5 C-4.88437775 2.67281553 -2.94982021 1.14186589 0 0 Z " fill="#5B0E93" transform="translate(422,203)"/>
<path d="M0 0 C0.33 0.66 0.66 1.32 1 2 C-5.625 3.25 -5.625 3.25 -9 1 C-5.92677456 0.08941469 -3.19902639 -0.08886184 0 0 Z " fill="#991B3F" transform="translate(536,527)"/>
<path d="M0 0 C0.99 0.495 0.99 0.495 2 1 C2 1.66 2 2.32 2 3 C3.32 3.33 4.64 3.66 6 4 C6 4.66 6 5.32 6 6 C5.01 6.33 4.02 6.66 3 7 C0 3.375 0 3.375 0 0 Z " fill="#C7353B" transform="translate(554,378)"/>
<path d="M0 0 C0.99 0.33 1.98 0.66 3 1 C3 2.98 3 4.96 3 7 C2.01 7.33 1.02 7.66 0 8 C0 5.36 0 2.72 0 0 Z " fill="#6E22AC" transform="translate(368,368)"/>
<path d="M0 0 C-1.39332574 3.36720387 -2.9789286 4.9859524 -6 7 C-6 4 -6 4 -4.125 1.8125 C-2 0 -2 0 0 0 Z " fill="#D33723" transform="translate(674,288)"/>
<path d="M0 0 C1.33333333 0.66666667 2.66666667 1.33333333 4 2 C5.0828125 2.433125 5.0828125 2.433125 6.1875 2.875 C8 4 8 4 8.61328125 6.0703125 C8.74089844 6.70710938 8.86851562 7.34390625 9 8 C7.68388323 7.04663979 6.37221039 6.08714226 5.0625 5.125 C4.33160156 4.59132813 3.60070312 4.05765625 2.84765625 3.5078125 C1 2 1 2 0 0 Z " fill="#B2152B" transform="translate(604,277)"/>
<path d="M0 0 C0.99 0.33 1.98 0.66 3 1 C2.67 1.99 2.34 2.98 2 4 C-1.0625 5.1875 -1.0625 5.1875 -4 6 C-2.68 4.02 -1.36 2.04 0 0 Z " fill="#6917A4" transform="translate(396,218)"/>
<path d="M0 0 C3.95820859 0.56545837 6.6659053 1.80902348 10 4 C9.01 4.495 9.01 4.495 8 5 C1.25806452 2.51612903 1.25806452 2.51612903 0 0 Z " fill="#99164D" transform="translate(596,202)"/>
<path d="M0 0 C4.21912747 0.4794463 6.79663178 1.16625119 10 4 C7.36 3.67 4.72 3.34 2 3 C2 2.34 2 1.68 2 1 C1.34 0.67 0.68 0.34 0 0 Z " fill="#911053" transform="translate(579,195)"/>
<path d="M0 0 C1.32 0 2.64 0 4 0 C4 2.31 4 4.62 4 7 C3.34 7 2.68 7 2 7 C0.5393715 4.35261084 0 3.10551666 0 0 Z " fill="#5411AB" transform="translate(324,466)"/>
<path d="M0 0 C3.08089673 2.77280706 4.68775452 5.06326356 6 9 C5.01 8.34 4.02 7.68 3 7 C3 6.34 3 5.68 3 5 C2.01 4.67 1.02 4.34 0 4 C0 2.68 0 1.36 0 0 Z " fill="#5E0D8C" transform="translate(389,460)"/>
</svg>
