<?xml version="1.0" encoding="UTF-8"?>
<svg version="1.1" xmlns="http://www.w3.org/2000/svg" width="1024" height="1024">
<path d="M0 0 C337.92 0 675.84 0 1024 0 C1024 337.92 1024 675.84 1024 1024 C686.08 1024 348.16 1024 0 1024 C0 686.08 0 348.16 0 0 Z " fill="#FEFDFD" transform="translate(0,0)"/>
<path d="M0 0 C1.25490234 -0.00773437 2.50980469 -0.01546875 3.80273438 -0.0234375 C15.99426598 0.00171264 27.72272813 1.47278858 39.4375 4.875 C40.32816162 5.13297363 41.21882324 5.39094727 42.13647461 5.65673828 C70.40436311 14.23657014 92.84366808 33.48550387 106.94360352 59.18676758 C119.16418713 82.24215179 122.81691768 107.51513354 125.70239258 133.13183594 C125.98413022 135.5713974 126.30664184 137.99561612 126.65625 140.42578125 C128.44122056 157.22853297 127.10091787 174.52795547 125.0625 191.25 C124.96598145 192.05598633 124.86946289 192.86197266 124.77001953 193.69238281 C122.40399807 212.61278432 117.68305277 231.1871308 109.0625 248.25 C108.72879395 248.91725098 108.39508789 249.58450195 108.05126953 250.27197266 C94.40532279 277.11218212 71.1413881 296.12019936 42.6953125 305.7890625 C28.58079297 310.25570248 14.55551072 311.64191305 -0.1875 311.5625 C-0.91083527 311.56034485 -1.63417053 311.5581897 -2.37942505 311.55596924 C-13.44763042 311.50314937 -24.19387981 311.11653609 -34.9375 308.25 C-35.65292969 308.06195801 -36.36835937 307.87391602 -37.10546875 307.68017578 C-62.95091529 300.59297545 -87.67967798 285.38291572 -101.9375 262.25 C-102.45111084 261.42967285 -102.45111084 261.42967285 -102.97509766 260.59277344 C-114.84008206 241.42666277 -120.98876991 220.63754864 -124.625 198.5625 C-124.80446167 197.47751221 -124.80446167 197.47751221 -124.98754883 196.37060547 C-126.90887944 183.84503461 -127.14536825 171.20891727 -127.125 158.5625 C-127.12406342 157.8046521 -127.12312683 157.0468042 -127.12216187 156.26599121 C-126.99527445 108.4738143 -118.6383 65.07396686 -83.86328125 30.16796875 C-70.83877401 17.96200725 -54.72886067 10.12371267 -37.8125 4.9375 C-37.02601074 4.69491455 -36.23952148 4.4523291 -35.42919922 4.20239258 C-23.71296524 0.79449355 -12.15837472 -0.07470584 0 0 Z " fill="#007DF6" transform="translate(634.9375,267.75)"/>
<path d="M0 0 C0.80953125 0.72703125 1.6190625 1.4540625 2.453125 2.203125 C3.15953125 2.82703125 3.8659375 3.4509375 4.59375 4.09375 C19.9595772 18.49165108 30.50414389 40.88421966 31.65625 61.91015625 C32.26661385 93.76959426 19.39782062 117.922293 -2.12304688 140.67773438 C-4.22986317 142.93483112 -6.25884298 145.25898512 -8.296875 147.578125 C-11.46226914 151.11224785 -14.75889333 154.23934762 -18.3828125 157.29296875 C-21.05372778 159.65050949 -23.54831427 162.16655198 -26.046875 164.703125 C-29.80095721 168.50932937 -33.65258631 172.12263465 -37.71875 175.59375 C-40.18721469 177.76684285 -42.46222863 180.10784869 -44.765625 182.453125 C-47.26583685 184.90947349 -49.92368016 187.16621868 -52.578125 189.453125 C-55.05375505 191.65368504 -57.35529387 193.99826219 -59.67407227 196.36157227 C-61.47020556 198.12773488 -63.31971028 199.77732395 -65.23046875 201.41796875 C-70.39104454 205.9042388 -75.32613872 210.61766754 -80.27929688 215.33007812 C-80.98763672 216.00103516 -81.69597656 216.67199219 -82.42578125 217.36328125 C-83.0504126 217.95761963 -83.67504395 218.55195801 -84.31860352 219.16430664 C-87.32838215 221.91818649 -90.44945964 224.54819755 -93.546875 227.203125 C-31.176875 227.698125 -31.176875 227.698125 32.453125 228.203125 C32.453125 246.023125 32.453125 263.843125 32.453125 282.203125 C-38.826875 282.203125 -110.106875 282.203125 -183.546875 282.203125 C-183.546875 268.013125 -183.546875 253.823125 -183.546875 239.203125 C-178.51100492 234.16725492 -173.78913916 229.46625276 -168.4453125 224.8828125 C-165.95590781 222.6802528 -163.6523647 220.31959864 -161.32421875 217.94921875 C-159.48093926 216.13834857 -157.56864701 214.44991146 -155.609375 212.765625 C-152.80111153 210.34694721 -150.14716907 207.84412817 -147.546875 205.203125 C-144.34657978 201.95282517 -141.00462924 198.95588255 -137.546875 195.984375 C-135.46350422 194.1288729 -133.50406293 192.19089399 -131.546875 190.203125 C-129.10024063 187.72349171 -126.62579726 185.34872124 -123.984375 183.078125 C-119.94333104 179.6029866 -116.05890263 175.97314559 -112.171875 172.328125 C-107.18812539 167.6568151 -102.16820991 163.03609475 -97.078125 158.48046875 C-89.67069101 151.8160644 -82.34782531 145.08929948 -75.359375 137.984375 C-73.54522552 136.20150396 -71.66749151 134.54312782 -69.734375 132.890625 C-53.71758715 119.00106679 -35.4819068 100.21375894 -33.33081055 77.96875 C-32.54808477 62.84349093 -34.91405753 50.78460373 -45.32421875 39.23046875 C-55.41883885 29.50742976 -68.5470621 28.81237492 -81.80078125 28.98828125 C-87.40000993 29.16542329 -92.34035294 30.11039004 -97.546875 32.203125 C-98.39378906 32.5434375 -99.24070312 32.88375 -100.11328125 33.234375 C-111.97268932 38.59374109 -119.44478081 47.36292439 -124.546875 59.203125 C-126.86837162 65.4373387 -128.74542339 71.80251284 -130.546875 78.203125 C-141.81394486 77.72053355 -152.88481451 76.65993892 -164.04541016 75.04638672 C-166.46805328 74.69645491 -168.892038 74.35728553 -171.31640625 74.01953125 C-172.86987752 73.80008608 -174.42326646 73.58005711 -175.9765625 73.359375 C-176.69520477 73.25830444 -177.41384705 73.15723389 -178.15426636 73.05310059 C-181.07312851 72.62863196 -183.7410304 72.13840653 -186.546875 71.203125 C-186.04951607 44.79788701 -172.32051464 22.27540498 -154.27734375 3.890625 C-115.27479478 -33.36554118 -40.5809228 -34.88535469 0 0 Z " fill="#364251" transform="translate(457.546875,292.796875)"/>
<path d="M0 0 C17.03604936 11.04857843 25.98910609 28.33091336 30.35546875 47.86328125 C30.55011719 48.86875 30.74476563 49.87421875 30.9453125 50.91015625 C31.17089844 52.01875 31.39648438 53.12734375 31.62890625 54.26953125 C32.86848093 62.6102353 32.86848093 62.6102353 30.5 65.9453125 C29.11975936 67.17670366 27.71248825 68.37820471 26.28515625 69.5546875 C23.20501415 72.65539816 21.48238921 76.01151792 19.5703125 79.91015625 C19.23717041 80.5750708 18.90402832 81.23998535 18.56079102 81.92504883 C12.66819253 94.21981873 12.2097539 107.05223761 16.6875 119.9375 C19.45369479 126.47499763 22.71124803 131.08161037 28.3828125 135.34765625 C31.80892175 138.21694086 31.80892175 138.21694086 32.37109375 141.07421875 C32.17093548 143.80526715 31.63277791 146.25850397 30.9453125 148.91015625 C30.71199219 149.96332031 30.47867188 151.01648438 30.23828125 152.1015625 C26.06139524 168.86632417 18.11341458 184.04133694 3.4453125 193.84765625 C-12.24990103 203.08793689 -30.69495138 205.71050972 -48.5546875 201.84765625 C-64.66123673 196.88299548 -77.11936237 186.68777295 -85.37890625 172.15234375 C-104.68241234 134.80523407 -104.33859595 80.19959383 -91.70703125 40.45703125 C-85.97248264 23.76390248 -76.45900776 8.44903583 -60.96484375 -0.69140625 C-55.85484367 -3.14694991 -50.5351638 -4.69153292 -45.0546875 -6.08984375 C-44.4150708 -6.26563965 -43.7754541 -6.44143555 -43.11645508 -6.62255859 C-29.19086209 -9.77869654 -12.3234263 -6.68751267 0 0 Z " fill="#FDFCFD" transform="translate(666.0546875,325.08984375)"/>
<path d="M0 0 C5.61 0 11.22 0 17 0 C20.33360586 7.92899712 23.02262104 16.00151496 25.57421875 24.20654297 C26.25589264 26.3939084 26.94794255 28.57781783 27.640625 30.76171875 C28.07875104 32.1612625 28.51627334 33.56099544 28.953125 34.9609375 C29.34661133 36.21696777 29.74009766 37.47299805 30.14550781 38.76708984 C31 42 31 42 31 46 C31.66 46 32.32 46 33 46 C33.15710449 45.32662598 33.31420898 44.65325195 33.47607422 43.95947266 C35.46518992 35.7034692 37.88796281 27.62604173 40.44384766 19.53271484 C41.13457394 17.34467222 41.81960392 15.15490302 42.50390625 12.96484375 C45.85191086 2.29617828 45.85191086 2.29617828 47 0 C51.29 0 55.58 0 60 0 C60.41362793 1.22106445 60.82725586 2.44212891 61.25341797 3.70019531 C62.78991451 8.23356928 64.33017959 12.76565527 65.87158203 17.29736328 C66.53797495 19.25827714 67.20334762 21.21953802 67.86767578 23.18115234 C68.82315864 26.00189771 69.78231275 28.8213716 70.7421875 31.640625 C71.03809784 32.51680481 71.33400818 33.39298462 71.6388855 34.29571533 C71.91902496 35.11626404 72.19916443 35.93681274 72.48779297 36.78222656 C72.73206024 37.50170471 72.97632751 38.22118286 73.22799683 38.96246338 C74.02168798 41.05724076 74.96480822 43.01488517 76 45 C76.24096657 44.19860092 76.24096657 44.19860092 76.48680115 43.38101196 C78.15544453 37.83277733 79.82661346 32.28530803 81.49926758 26.73828125 C82.12361757 24.66653755 82.74731793 22.59459795 83.37036133 20.52246094 C84.26474017 17.54831331 85.161434 14.57487227 86.05859375 11.6015625 C86.3377916 10.67131256 86.61698944 9.74106262 86.90464783 8.78262329 C87.16484207 7.92188202 87.42503632 7.06114075 87.69311523 6.17431641 C87.92183823 5.41486725 88.15056122 4.65541809 88.38621521 3.87295532 C89 2 89 2 90 0 C95.61 0 101.22 0 107 0 C99.52615546 23.7335565 91.96571184 47.4265277 84 71 C78.39 71 72.78 71 67 71 C66.61142822 69.79351807 66.22285645 68.58703613 65.82250977 67.34399414 C64.38498923 62.88336344 62.94347706 58.42403137 61.50073242 53.96508789 C60.87593738 52.03217395 60.25223682 50.09890589 59.62963867 48.1652832 C58.73641395 45.39180978 57.83930736 42.61961868 56.94140625 39.84765625 C56.6622084 38.97786636 56.38301056 38.10807648 56.09535217 37.21192932 C55.83515793 36.41117477 55.57496368 35.61042023 55.30688477 34.78540039 C55.07816177 34.0770253 54.84943878 33.36865021 54.61378479 32.6388092 C54.12356722 30.98550811 54.12356722 30.98550811 53 30 C52.61142822 31.20648193 52.22285645 32.41296387 51.82250977 33.65600586 C50.38498923 38.11663656 48.94347706 42.57596863 47.50073242 47.03491211 C46.87593738 48.96782605 46.25223682 50.90109411 45.62963867 52.8347168 C44.73641395 55.60819022 43.83930736 58.38038132 42.94140625 61.15234375 C42.6622084 62.02213364 42.38301056 62.89192352 42.09535217 63.78807068 C41.83515793 64.58882523 41.57496368 65.38957977 41.30688477 66.21459961 C41.07816177 66.9229747 40.84943878 67.63134979 40.61378479 68.3611908 C40 70 40 70 39 71 C36.30345146 71.07319621 33.63308542 71.09242537 30.9375 71.0625 C30.17888672 71.05798828 29.42027344 71.05347656 28.63867188 71.04882812 C26.75908129 71.0370068 24.87953101 71.01907078 23 71 C9.34481371 31.32145485 9.34481371 31.32145485 3.625 13.5625 C3.25060791 12.40459961 2.87621582 11.24669922 2.49047852 10.05371094 C2.15588623 9.00602539 1.82129395 7.95833984 1.4765625 6.87890625 C1.18861816 5.9772876 0.90067383 5.07566895 0.60400391 4.14672852 C0 2 0 2 0 0 Z " fill="#343F4F" transform="translate(195,645)"/>
<path d="M0 0 C3.08650132 1.80502985 5.19598278 3.60390377 7.41796875 6.4140625 C7.918125 6.98898437 8.41828125 7.56390625 8.93359375 8.15625 C16.78351969 17.64475272 16.41796875 25.80180691 16.41796875 38.4140625 C-1.07203125 38.4140625 -18.56203125 38.4140625 -36.58203125 38.4140625 C-32.51546403 48.88161867 -32.51546403 48.88161867 -24.33203125 54.7265625 C-16.56688928 56.66784799 -10.79383819 55.58919558 -3.80859375 51.80078125 C-1.65350313 50.45857569 0.38686165 48.93739282 2.41796875 47.4140625 C6.04796875 50.0540625 9.67796875 52.6940625 13.41796875 55.4140625 C7.6142161 63.05057914 0.08354083 68.80313382 -9.58203125 70.4140625 C-23.10433398 71.32437664 -33.16862869 69.38616367 -43.58203125 60.4140625 C-45.98280003 57.93086389 -47.83493682 55.3895827 -49.58203125 52.4140625 C-49.99453125 51.72183594 -50.40703125 51.02960937 -50.83203125 50.31640625 C-55.20486456 41.46445548 -54.9797424 30.39465348 -52.76953125 20.9375 C-49.20836689 11.36687078 -43.0367241 3.67086474 -33.70703125 -0.6484375 C-22.48172062 -5.14175984 -10.99882859 -5.313874 0 0 Z " fill="#037CF6" transform="translate(717.58203125,647.5859375)"/>
<path d="M0 0 C7.82441029 6.43340402 12.35864599 13.49708397 14.8125 23.3125 C14.8125 27.9325 14.8125 32.5525 14.8125 37.3125 C-2.6775 37.3125 -20.1675 37.3125 -38.1875 37.3125 C-34.12007453 48.08119958 -34.12007453 48.08119958 -25.3125 53.625 C-17.35934655 55.37469376 -11.33700985 54.10948658 -4.1875 50.3125 C-3.67832031 49.75175781 -3.16914063 49.19101562 -2.64453125 48.61328125 C-2.16371094 48.18402344 -1.68289063 47.75476563 -1.1875 47.3125 C2.29288106 47.53541697 4.75292381 49.43308705 7.5625 51.375 C8.36171875 51.92285156 9.1609375 52.47070312 9.984375 53.03515625 C10.58765625 53.45667969 11.1909375 53.87820313 11.8125 54.3125 C6.31420811 61.54709459 -0.79252053 67.29250397 -9.9375 69.0625 C-22.42204323 70.44967147 -32.78088804 68.49068091 -43.1171875 61.13671875 C-50.50450008 54.62752068 -54.68800452 46.28147095 -55.5 36.578125 C-55.97733107 25.45458246 -54.07110929 15.86991258 -46.87109375 7.08984375 C-34.33281037 -6.14662711 -15.97868188 -8.45930217 0 0 Z " fill="#34404F" transform="translate(359.1875,648.6875)"/>
<path d="M0 0 C5.61 0 11.22 0 17 0 C17.33 10.89 17.66 21.78 18 33 C20.64 31.02 23.28 29.04 26 27 C32.70655717 23.44644903 41.68489161 24.09935651 48.95703125 25.6171875 C55.95208229 28.04557695 60.71113094 32.48982996 64.05859375 39.0859375 C67.01270472 46.46414766 67.13916947 53.80450438 67.09765625 61.6484375 C67.0962413 62.66096588 67.09482635 63.67349426 67.09336853 64.71670532 C67.08779143 67.93616751 67.07524312 71.15555899 67.0625 74.375 C67.05748204 76.56380108 67.05291965 78.75260325 67.04882812 80.94140625 C67.03782949 86.29429789 67.02058063 91.64713697 67 97 C61.39 97 55.78 97 50 97 C49.98541748 95.74453369 49.97083496 94.48906738 49.95581055 93.19555664 C49.897511 88.50435976 49.82028141 83.81362706 49.73754883 79.12280273 C49.70444772 77.09879126 49.67637043 75.07469076 49.65356445 73.05053711 C49.61974463 70.12836027 49.56741659 67.20698842 49.51171875 64.28515625 C49.50532883 63.39103531 49.4989389 62.49691437 49.49235535 61.57569885 C49.34306245 55.08774327 48.79486566 47.79486566 44 43 C38.82764619 40.41382309 33.66641822 40.40822814 28 41 C23.995207 43.0023965 21.3412972 45.17998877 19 49 C18.07076023 51.78771931 17.85132662 53.58234248 17.79467773 56.47143555 C17.77473251 57.37214279 17.75478729 58.27285004 17.73423767 59.20085144 C17.70916893 60.65410576 17.70916893 60.65410576 17.68359375 62.13671875 C17.66281265 63.13129593 17.64203156 64.12587311 17.62062073 65.15058899 C17.55520588 68.32948867 17.4962776 71.50847134 17.4375 74.6875 C17.39430712 76.84180548 17.35069258 78.99610254 17.30664062 81.15039062 C17.19953269 86.43350858 17.09824234 91.71671005 17 97 C11.39 97 5.78 97 0 97 C0 64.99 0 32.98 0 0 Z " fill="#017BF6" transform="translate(824,619)"/>
<path d="M0 0 C0.70294189 0.00870117 1.40588379 0.01740234 2.13012695 0.02636719 C9.63739338 0.23889451 15.68500383 1.8521661 21.0625 7.375 C25.24123247 13.68453089 27.19489863 19.01835249 27.17602539 26.62426758 C27.17591209 28.15528862 27.17591209 28.15528862 27.17579651 29.71723938 C27.17063522 30.8069957 27.16547394 31.89675201 27.16015625 33.01953125 C27.1587413 34.1444548 27.15732635 35.26937836 27.15586853 36.4283905 C27.15027931 40.01478759 27.13772872 43.60112184 27.125 47.1875 C27.11998361 49.62174389 27.11542094 52.05598876 27.11132812 54.49023438 C27.10031339 60.45184706 27.08305611 66.41341288 27.0625 72.375 C21.7825 72.375 16.5025 72.375 11.0625 72.375 C11.04791748 71.08400391 11.03333496 69.79300781 11.01831055 68.46289062 C10.9600869 63.64686176 10.88285586 58.83128871 10.80004883 54.015625 C10.7669124 51.9362735 10.73884576 49.85683448 10.71606445 47.77734375 C10.68231049 44.77826854 10.6299844 41.77998713 10.57421875 38.78125 C10.56782883 37.86009399 10.5614389 36.93893799 10.55485535 35.98986816 C10.40039494 29.1205254 9.61060034 23.05721089 4.6875 17.875 C-0.85744817 15.58053869 -6.03276918 15.40556658 -11.9375 16.375 C-15.98642495 18.35870149 -18.23304716 20.71631151 -19.9909668 24.85546875 C-21.23280863 29.47305756 -21.29250653 33.82371994 -21.3515625 38.5859375 C-21.37092865 39.55407379 -21.3902948 40.52221008 -21.4102478 41.51968384 C-21.4697833 44.5963677 -21.5163247 47.67308951 -21.5625 50.75 C-21.60070373 52.84246377 -21.63975685 54.93491222 -21.6796875 57.02734375 C-21.77546345 62.14310396 -21.85959042 67.25893776 -21.9375 72.375 C-27.5475 72.375 -33.1575 72.375 -38.9375 72.375 C-38.9375 48.945 -38.9375 25.515 -38.9375 1.375 C-33.3275 1.375 -27.7175 1.375 -21.9375 1.375 C-21.6075 3.685 -21.2775 5.995 -20.9375 8.375 C-20.091875 7.611875 -19.24625 6.84875 -18.375 6.0625 C-12.97790166 1.19194784 -7.09141058 -0.14609206 0 0 Z " fill="#323D4D" transform="translate(425.9375,643.625)"/>
<path d="M0 0 C5.61 0 11.22 0 17 0 C21.32914098 9.25104125 25.44859401 18.56693872 29.43408203 27.9699707 C30.39073965 30.22459476 31.35347053 32.47656686 32.31640625 34.72851562 C32.92744926 36.16651123 33.53814016 37.60465652 34.1484375 39.04296875 C34.43584808 39.71369919 34.72325867 40.38442963 35.01937866 41.07548523 C37 45.77094681 37 45.77094681 37 48 C37.66 48 38.32 48 39 48 C39.17509598 47.38589264 39.35019196 46.77178528 39.53059387 46.1390686 C41.26310926 40.19732504 43.27147537 34.45331223 45.57421875 28.7109375 C45.90291458 27.88163727 46.23161041 27.05233704 46.57026672 26.19790649 C47.60545369 23.58870482 48.64636129 20.98183166 49.6875 18.375 C50.39686664 16.58999562 51.10585434 14.80484059 51.81445312 13.01953125 C53.53860077 8.67793681 55.26787733 4.33841854 57 0 C62.61 0 68.22 0 74 0 C69.02093586 14.64031466 63.28027238 28.93033681 57.45068359 43.24969482 C55.19515163 48.79201886 52.94738779 54.33749881 50.69921875 59.8828125 C50.21693817 61.0707843 49.73465759 62.2587561 49.23776245 63.48272705 C45.64223623 72.35876077 42.13052934 81.26544584 38.69303894 90.20388794 C38.17946587 91.53164749 38.17946587 91.53164749 37.65551758 92.88623047 C37.35809158 93.66078583 37.06066559 94.43534119 36.75422668 95.23336792 C36 97 36 97 35 98 C32.13732433 98.07325168 29.299281 98.09238205 26.4375 98.0625 C25.63119141 98.05798828 24.82488281 98.05347656 23.99414062 98.04882812 C21.99606244 98.03700518 19.99802217 98.01906914 18 98 C19.05187623 94.47704946 20.32993495 91.21712828 21.98046875 87.94140625 C22.33947266 87.22533203 22.69847656 86.50925781 23.06835938 85.77148438 C23.81529227 84.29717179 24.57317106 82.82835457 25.34179688 81.36523438 C25.69693359 80.64787109 26.05207031 79.93050781 26.41796875 79.19140625 C26.74563232 78.55404541 27.0732959 77.91668457 27.41088867 77.26000977 C29.31118278 69.96990511 24.99659886 62.49498791 22.265625 55.92578125 C21.55306549 54.18544868 21.55306549 54.18544868 20.82611084 52.40995789 C19.56457574 49.33304458 18.29621025 46.25913561 17.02441406 43.1864624 C15.74733694 40.09613303 14.47968765 37.00196056 13.2109375 33.90820312 C11.33540463 29.33974719 9.45662693 24.77267067 7.57128906 20.20825195 C7.14980591 19.18680084 6.72832275 18.16534973 6.29406738 17.11294556 C5.39140485 14.94154447 4.47945325 12.77399168 3.5604248 10.60946655 C3.1018811 9.52686554 2.6433374 8.44426453 2.17089844 7.32885742 C1.75434998 6.35325363 1.33780151 5.37764984 0.90863037 4.3724823 C0 2 0 2 0 0 Z " fill="#34404F" transform="translate(517,645)"/>
<path d="M0 0 C24.75 0 49.5 0 75 0 C75 5.28 75 10.56 75 16 C65.76 16 56.52 16 47 16 C47 42.07 47 68.14 47 95 C41.06 95 35.12 95 29 95 C29 68.93 29 42.86 29 16 C19.43 16 9.86 16 0 16 C0 10.72 0 5.44 0 0 Z " fill="#007CF6" transform="translate(593,622)"/>
<path d="M0 0 C24.09 0 48.18 0 73 0 C73 5.28 73 10.56 73 16 C63.76 16 54.52 16 45 16 C45 42.07 45 68.14 45 95 C39.06 95 33.12 95 27 95 C27 68.93 27 42.86 27 16 C18.09 16 9.18 16 0 16 C0 10.72 0 5.44 0 0 Z " fill="#333F4F" transform="translate(126,622)"/>
<path d="M0 0 C3.67056176 2.69603256 7.12263316 5.45478446 10 9 C10 13 10 13 8.03125 15.140625 C6.77828125 16.18476562 6.77828125 16.18476562 5.5 17.25 C4.6646875 17.95640625 3.829375 18.6628125 2.96875 19.390625 C2.3190625 19.92171875 1.669375 20.4528125 1 21 C0.57589844 20.60167969 0.15179687 20.20335937 -0.28515625 19.79296875 C-6.84698575 13.8656898 -12.50284137 11.43434043 -21.41796875 11.71484375 C-27.42633521 12.37840011 -31.20165838 15.48305321 -35 20 C-38.82015597 26.58647581 -39.18987814 33.43240328 -37.2734375 40.7890625 C-35.45932152 45.78894314 -33.73481012 49.22840383 -29 52 C-23.2387272 54.66277314 -17.08112847 55.04312425 -10.90625 53.46484375 C-6.18908235 51.57176989 -2.55450936 48.55450936 1 45 C4.63 47.64 8.26 50.28 12 53 C7.90262348 61.19475304 1.44882505 65.71283655 -7 69 C-17.14196149 71.6017777 -27.69229902 70.76448085 -37 66 C-47.04243525 59.93960864 -52.23168563 52.14827068 -55.58984375 41.05078125 C-57.61616061 30.91919693 -55.70870069 21.01699812 -50.3125 12.3125 C-39.0461545 -3.39378461 -17.46363304 -9.9453016 0 0 Z " fill="#037CF7" transform="translate(801,648)"/>
<path d="M0 0 C5.61 0 11.22 0 17 0 C17 6.93 17 13.86 17 21 C22.94 21 28.88 21 35 21 C35 25.62 35 30.24 35 35 C29.06 35 23.12 35 17 35 C17.07416913 40.01792516 17.1571459 45.03412241 17.26245117 50.05126953 C17.29560636 51.75625512 17.32366737 53.46134798 17.34643555 55.16650391 C17.38015568 57.62448634 17.43247794 60.08149406 17.48828125 62.5390625 C17.49467117 63.29555084 17.5010611 64.05203918 17.50764465 64.83145142 C17.63788056 69.57063371 18.41176935 72.8834241 21 77 C25.26159382 79.13079691 31.40763702 78.04502317 36 78 C36 82.62 36 87.24 36 92 C27.90402161 95.01245708 17.73684229 95.71791207 9.71484375 92.10546875 C4.68820719 88.86506295 1.99105778 84.80720789 0.41543579 79.08132935 C-0.36101222 75.19133223 -0.2427104 71.29969348 -0.1953125 67.34765625 C-0.1924826 66.44752304 -0.18965271 65.54738983 -0.18673706 64.61997986 C-0.17561278 61.7673468 -0.15052283 58.91503689 -0.125 56.0625 C-0.11496017 54.11914518 -0.10583608 52.17578541 -0.09765625 50.23242188 C-0.07569888 45.48815824 -0.04122301 40.74413376 0 36 C-4.29 36 -8.58 36 -13 36 C-13 31.05 -13 26.1 -13 21 C-8.71 21 -4.42 21 0 21 C0 14.07 0 7.14 0 0 Z " fill="#34404F" transform="translate(475,624)"/>
<path d="M0 0 C3.95478251 2.91900614 7.41112181 6.50974362 9.625 10.9375 C10.27856434 18.59813115 10.59108823 24.8253914 5.625 30.9375 C-0.11400975 36.02404692 -5.16096198 37.36375113 -12.7734375 37.28515625 C-18.27137273 36.55044719 -21.98122997 33.36794819 -25.75 29.5 C-29.08351239 24.24330739 -30.16151507 19.06985965 -29.375 12.9375 C-27.2343693 7.19159655 -23.76902982 3.63083817 -18.8125 0.125 C-12.64734073 -2.00478229 -6.21381627 -1.95620142 0 0 Z " fill="#FBFCFC" transform="translate(732.375,411.0625)"/>
<path d="M0 0 C4.98927459 2.67581207 7.0392825 6.00034534 9.06640625 11.19921875 C9.66015625 13.1875 9.66015625 13.1875 9.66015625 15.1875 C-2.54984375 15.1875 -14.75984375 15.1875 -27.33984375 15.1875 C-25.32717839 8.14317123 -24.01466501 4.52300385 -17.77734375 0.875 C-12.04406243 -1.73006637 -5.967449 -2.07216927 0 0 Z " fill="#FAFBFD" transform="translate(708.33984375,658.8125)"/>
<path d="M0 0 C5.97002295 4.2643021 7.58488867 7.73461033 9.625 14.875 C-2.585 14.875 -14.795 14.875 -27.375 14.875 C-26.04206455 8.21032275 -23.14842678 3.93894551 -17.6875 -0.125 C-11.72894697 -1.92380846 -5.9131611 -1.9710537 0 0 Z " fill="#FBFBFB" transform="translate(348.375,659.125)"/>
<path d="M0 0 C9.57 0 19.14 0 29 0 C29 25.74 29 51.48 29 78 C33.95 78 38.9 78 44 78 C44 52.59 44 27.18 44 1 C44.66 1 45.32 1 46 1 C46 27.07 46 53.14 46 80 C40.06 80 34.12 80 28 80 C28 53.93 28 27.86 28 1 C18.76 1 9.52 1 0 1 C0 0.67 0 0.34 0 0 Z " fill="#2379F6" transform="translate(594,637)"/>
<path d="M0 0 C0.66 0.33 1.32 0.66 2 1 C3.65953568 1.10468239 5.32319929 1.14655551 6.98599243 1.15821838 C8.56777031 1.17290161 8.56777031 1.17290161 10.1815033 1.18788147 C11.92398094 1.19651466 11.92398094 1.19651466 13.70166016 1.20532227 C14.92114853 1.21522186 16.1406369 1.22512146 17.39707947 1.23532104 C20.74602261 1.2615435 24.09494146 1.28339119 27.44392443 1.30332303 C30.94200253 1.325167 34.44003695 1.35256345 37.93807983 1.37937927 C44.56431683 1.4293277 51.19057804 1.47425853 57.81686246 1.51740164 C65.35972035 1.56675566 72.90253441 1.62168058 80.44534993 1.67708123 C95.96352614 1.79093426 111.48174263 1.89776605 127 2 C127 2.66 127 3.32 127 4 C85.09 4 43.18 4 0 4 C-0.33 3.34 -0.66 2.68 -1 2 C-0.67 1.34 -0.34 0.68 0 0 Z " fill="#222F40" transform="translate(362,519)"/>
<path d="M0 0 C1.1411055 3.42331649 0.88426112 3.98113719 -0.3984375 7.1953125 C-0.71296875 7.99324219 -1.0275 8.79117188 -1.3515625 9.61328125 C-1.68929687 10.44214844 -2.02703125 11.27101563 -2.375 12.125 C-2.705 12.96160156 -3.035 13.79820312 -3.375 14.66015625 C-5.83821176 20.83821176 -5.83821176 20.83821176 -7 22 C-9.86267567 22.07325168 -12.700719 22.09238205 -15.5625 22.0625 C-16.36880859 22.05798828 -17.17511719 22.05347656 -18.00585938 22.04882812 C-20.00393756 22.03700518 -22.00197783 22.01906914 -24 22 C-22.69721449 17.73748817 -21.0542834 14.00980954 -18.875 10.125 C-18.06675781 8.67480469 -18.06675781 8.67480469 -17.2421875 7.1953125 C-16.83226562 6.47085938 -16.42234375 5.74640625 -16 5 C-15.67 5.66 -15.34 6.32 -15 7 C-15.89666342 9.24310013 -16.89146683 11.44754321 -17.9375 13.625 C-18.50339844 14.81351563 -19.06929687 16.00203125 -19.65234375 17.2265625 C-20.09707031 18.14179687 -20.54179688 19.05703125 -21 20 C-16.38 20 -11.76 20 -7 20 C-6.67 18.35 -6.34 16.7 -6 15 C-5.56630749 13.73048112 -5.09737969 12.472312 -4.58984375 11.23046875 C-4.32236328 10.56982422 -4.05488281 9.90917969 -3.77929688 9.22851562 C-3.50150391 8.55498047 -3.22371094 7.88144531 -2.9375 7.1875 C-2.65583984 6.49462891 -2.37417969 5.80175781 -2.08398438 5.08789062 C-1.39325027 3.39032376 -0.69716272 1.69493688 0 0 Z " fill="#202C3D" transform="translate(559,721)"/>
<path d="M0 0 C5.61 0 11.22 0 17 0 C17 6.93 17 13.86 17 21 C16.67 21 16.34 21 16 21 C16 14.73 16 8.46 16 2 C11.38 2 6.76 2 2 2 C2 7.94 2 13.88 2 20 C1.67 20 1.34 20 1 20 C0.67 13.4 0.34 6.8 0 0 Z " fill="#1E2A3A" transform="translate(475,624)"/>
<path d="M0 0 C0 3 0 3 -1.25 4.578125 C-2.11625 5.40570313 -2.11625 5.40570313 -3 6.25 C-3.63550781 6.85972656 -4.27101563 7.46945312 -4.92578125 8.09765625 C-7.64177146 10.58859266 -10.40814291 13.01558826 -13.19921875 15.421875 C-15.2242219 17.19649815 -17.13545857 19.05776935 -19 21 C-19.66 20.67 -20.32 20.34 -21 20 C-18.44169924 17.4124795 -15.87762584 14.83075324 -13.3125 12.25 C-12.59126953 11.52039063 -11.87003906 10.79078125 -11.12695312 10.0390625 C-7.56707131 6.46292552 -4.04793527 3.03395543 0 0 Z " fill="#212D3E" transform="translate(389,425)"/>
<path d="M0 0 C0.99 0.33 1.98 0.66 3 1 C-0.63 4.3 -4.26 7.6 -8 11 C-8 8 -8 8 -6.25 5.95703125 C-5.5075 5.24933594 -4.765 4.54164063 -4 3.8125 C-2.88625 2.73935547 -2.88625 2.73935547 -1.75 1.64453125 C-1.1725 1.10183594 -0.595 0.55914062 0 0 Z " fill="#0B71F5" transform="translate(553,296)"/>
<path d="M0 0 C0.66 0.33 1.32 0.66 2 1 C1.54917531 2.46067199 1.08906463 3.91848032 0.625 5.375 C0.36976563 6.18710937 0.11453125 6.99921875 -0.1484375 7.8359375 C-1 10 -1 10 -3 12 C-2.14285714 3.42857143 -2.14285714 3.42857143 0 0 Z " fill="#293544" transform="translate(240,652)"/>
<path d="M0 0 C3.3 0.66 6.6 1.32 10 2 C6.00889681 3.9955516 4.30013434 4.19546065 0 4 C-0.33 3.34 -0.66 2.68 -1 2 C-0.67 1.34 -0.34 0.68 0 0 Z " fill="#283443" transform="translate(362,519)"/>
<path d="M0 0 C0.33 0.99 0.66 1.98 1 3 C-0.65 4.65 -2.3 6.3 -4 8 C-4.66 7.67 -5.32 7.34 -6 7 C-4.02 4.69 -2.04 2.38 0 0 Z " fill="#212E3F" transform="translate(413,399)"/>
</svg>
