<?xml version="1.0" encoding="UTF-8"?>
<svg version="1.1" xmlns="http://www.w3.org/2000/svg" width="1024" height="1024">
<path d="M0 0 C337.92 0 675.84 0 1024 0 C1024 337.92 1024 675.84 1024 1024 C686.08 1024 348.16 1024 0 1024 C0 686.08 0 348.16 0 0 Z " fill="#FDFEFE" transform="translate(0,0)"/>
<path d="M0 0 C33 0 66 0 100 0 C110.66197183 10.66197183 110.66197183 10.66197183 114.890625 15.60546875 C117.85545014 18.97109432 120.93061734 22.22985018 124 25.5 C128.13891464 29.91337421 132.23019056 34.34509557 136.1796875 38.9296875 C140.17886135 43.47810412 144.33766708 47.88594391 148.45361328 52.32861328 C155.70017532 60.16094099 162.8745748 68.05732173 170 76 C171.49971128 77.66692647 172.99971321 79.33359149 174.5 81 C176.72829114 83.47502234 178.9557884 85.95071754 181.1796875 88.4296875 C185.26148736 92.97631866 189.36680778 97.50004965 193.5 102 C199.50727501 108.54181182 205.49637542 115.09943091 211.3125 121.8125 C214.98441983 126.03221206 218.79372813 130.12103111 222.59692383 134.22192383 C225.27371255 137.11329151 227.9229609 140.01871948 230.5 143 C234.05683038 147.11204293 237.75583684 151.0876962 241.45043945 155.07543945 C246.01610385 160.00664258 250.51752326 164.99306529 255 170 C261.61713726 177.38019453 268.30132321 184.69235259 275 192 C275.33 128.64 275.66 65.28 276 0 C307.68 0 339.36 0 372 0 C372 123.09 372 246.18 372 373 C346.26 373 320.52 373 294 373 C284.02442748 361.91603053 284.02442748 361.91603053 280.5625 357.5625 C277.48663412 353.75912497 274.31246834 350.09917348 271 346.5 C266.88621091 342.0301488 263.02912703 337.40955107 259.21484375 332.68359375 C257.04367173 330.05291443 254.79758643 327.52057576 252.5 325 C249.40444804 321.60401318 246.44848793 318.13828469 243.5625 314.5625 C240.48663412 310.75912497 237.31246834 307.09917348 234 303.5 C229.88621091 299.0301488 226.02912703 294.40955107 222.21484375 289.68359375 C220.04367173 287.05291443 217.79758643 284.52057576 215.5 282 C212.40444804 278.60401318 209.44848793 275.13828469 206.5625 271.5625 C202.70058325 266.78715598 198.62325776 262.26332315 194.46484375 257.74609375 C192.07292703 255.08124834 189.80745116 252.35168175 187.5625 249.5625 C184.34056899 245.56776014 180.99344505 241.75445651 177.5 238 C173.21044887 233.38995664 169.19589328 228.62217044 165.24609375 223.71484375 C162.9116941 220.89326505 160.48009402 218.19409288 158 215.5 C153.88621091 211.0301488 150.02912703 206.40955107 146.21484375 201.68359375 C144.04367173 199.05291443 141.79758643 196.52057576 139.5 194 C136.40444804 190.60401318 133.44848793 187.13828469 130.5625 183.5625 C126.70058325 178.78715598 122.62325776 174.26332315 118.46484375 169.74609375 C116.07292703 167.08124834 113.80745116 164.35168175 111.5625 161.5625 C107.79092572 156.88332763 103.82256632 152.44342786 99.71704102 148.05883789 C97.28610704 145.453535 95.14802483 142.86403311 93 140 C92.67 216.89 92.34 293.78 92 373 C61.64 373 31.28 373 0 373 C0 249.91 0 126.82 0 0 Z " fill="#6141F8" transform="translate(323,198)"/>
<path d="M0 0 C9.24 0 18.48 0 28 0 C35.66902006 8.08733025 35.66902006 8.08733025 37.4296875 11.953125 C40.0998788 17.37807423 43.4622544 22.11144428 47 27 C48.18644814 28.69070887 49.3700653 30.38340806 50.55078125 32.078125 C53.7481263 36.64601588 56.96591549 41.19918983 60.1875 45.75 C65.3950203 53.11223797 70.51695464 60.5306599 75.61035156 67.97216797 C77.06807132 70.09933247 78.52960389 72.22383338 79.9921875 74.34765625 C80.48517334 75.0636499 80.97815918 75.77964355 81.48608398 76.51733398 C82.42286787 77.87767971 83.35986412 79.23787923 84.29711914 80.59790039 C84.72371826 81.21785889 85.15031738 81.83781738 85.58984375 82.4765625 C85.99702637 83.06727539 86.40420898 83.65798828 86.82373047 84.26660156 C87.97343311 85.96084995 89.08218439 87.67753123 90.19140625 89.3984375 C91.7404028 92.06983578 91.7404028 92.06983578 94 93 C94 62.31 94 31.62 94 0 C103.24 0 112.48 0 122 0 C122 47.52 122 95.04 122 144 C113.09 144 104.18 144 95 144 C86.75617592 135.26713551 86.75617592 135.26713551 84.75390625 131.19140625 C82.06915868 126.02932065 78.91345874 121.37268932 75.5625 116.625 C74.48031103 115.0396422 73.40090469 113.45238154 72.32421875 111.86328125 C68.88503108 106.81539183 65.38492365 101.81136618 61.875 96.8125 C50.76428086 80.97820736 39.89759948 64.9831459 29 49 C28.67 80.02 28.34 111.04 28 143 C18.76 143 9.52 143 0 143 C0 95.81 0 48.62 0 0 Z " fill="#0D0E26" transform="translate(173,641)"/>
<path d="M0 0 C6.2538668 4.20933342 9.64723566 9.94170697 12 17 C13.05409403 27.02056475 11.78580537 34.65118436 6 43 C2.62089585 46.80890248 -1.03065884 49.61962746 -6 51 C-6.99 51 -7.98 51 -9 51 C-9 69.15 -9 87.3 -9 106 C-29.75981277 115.22658345 -29.75981277 115.22658345 -40.0625 119.375 C-41.18648193 119.82979736 -42.31046387 120.28459473 -43.46850586 120.75317383 C-45.79999333 121.69555856 -48.13210591 122.63639823 -50.46484375 123.57568359 C-54.05150577 125.0207517 -57.63520401 126.47300548 -61.21875 127.92578125 C-63.49982814 128.84677994 -65.78107183 129.76736873 -68.0625 130.6875 C-69.13314697 131.12175293 -70.20379395 131.55600586 -71.30688477 132.00341797 C-72.28971436 132.39803223 -73.27254395 132.79264648 -74.28515625 133.19921875 C-75.58271851 133.72261841 -75.58271851 133.72261841 -76.90649414 134.2565918 C-79 135 -79 135 -81 135 C-80.97679687 135.56847656 -80.95359375 136.13695312 -80.9296875 136.72265625 C-80.91164063 137.49480469 -80.89359375 138.26695312 -80.875 139.0625 C-80.85179687 139.81660156 -80.82859375 140.57070313 -80.8046875 141.34765625 C-81.0542437 144.73662948 -81.99393284 147.76394933 -83 151 C-81.23223041 152.79478135 -79.46097441 154.5858707 -77.6875 156.375 C-77.18798828 156.88289062 -76.68847656 157.39078125 -76.17382812 157.9140625 C-73.87457613 160.22854133 -71.72478775 162.18347483 -69 164 C-69 164.66 -69 165.32 -69 166 C-68.10356781 166.40845657 -68.10356781 166.40845657 -67.18902588 166.82516479 C-65.04985857 167.97324125 -63.67404464 169.08346405 -61.97558594 170.79736328 C-61.41530701 171.35779327 -60.85502808 171.91822327 -60.277771 172.49563599 C-59.68595032 173.09777924 -59.09412964 173.69992249 -58.484375 174.3203125 C-57.86854553 174.93897186 -57.25271606 175.55763123 -56.6182251 176.19503784 C-54.65739664 178.16703814 -52.70364699 180.14588737 -50.75 182.125 C-49.41973201 183.46530164 -48.089008 184.80515083 -46.7578125 186.14453125 C-43.4998985 189.42446589 -40.24831467 192.71055942 -37 196 C-35.89317871 195.67620361 -34.78635742 195.35240723 -33.64599609 195.01879883 C-26.06854583 192.90143577 -19.1053968 193.57743707 -12 197 C-5.84272842 200.74629175 -2.15823886 206.17037303 0 213 C1.0850156 221.01878194 0.21798724 228.11788229 -4.25390625 234.90234375 C-8.35255029 240.18479233 -13.20615979 242.88960774 -19.5625 244.75 C-28.39071332 245.65545778 -35.28624064 243.94139435 -42.39453125 238.58984375 C-47.72097388 233.31523998 -50.13021745 226.48007944 -50.1875 219.125 C-50.20167969 218.30257812 -50.21585938 217.48015625 -50.23046875 216.6328125 C-49.95928624 213.53489709 -49.0180188 210.92872687 -48 208 C-53.74294193 202.09487883 -59.50454587 196.20889116 -65.29094124 190.34637356 C-67.97722433 187.62355552 -70.65661096 184.89461329 -73.32128906 182.15063477 C-75.8930659 179.50280814 -78.48156507 176.87244662 -81.08254623 174.25331306 C-82.071885 173.25103835 -83.05504046 172.24262109 -84.03180313 171.22808647 C-85.40069504 169.80840239 -86.79387835 168.41226246 -88.18798828 167.01733398 C-88.97408478 166.21569321 -89.76018127 165.41405243 -90.57009888 164.58811951 C-92.94994254 162.68088104 -92.94994254 162.68088104 -96.09030151 163.23402405 C-97.05050201 163.48679611 -98.01070251 163.73956818 -99 164 C-114.5283521 165.0988741 -114.5283521 165.0988741 -121 160 C-126.67590139 154.98650358 -129.27436314 149.17800127 -130.31640625 141.7421875 C-130.70724245 134.50541404 -128.01371974 128.43990832 -123.75 122.6875 C-118.18259108 117.2466231 -111.3057885 114.58991315 -103.546875 114.640625 C-98.25737531 115.38699612 -93.61194686 118.35111482 -89.14753723 121.16943359 C-86.29192183 122.27385134 -85.18591154 121.71703289 -82.37768555 120.578125 C-81.46540695 120.2169458 -80.55312836 119.8557666 -79.61320496 119.48364258 C-78.13984428 118.8729895 -78.13984428 118.8729895 -76.63671875 118.25 C-75.10045586 117.63451294 -75.10045586 117.63451294 -73.53315735 117.0065918 C-70.24524565 115.6854657 -66.96646553 114.34315591 -63.6875 113 C-61.52075446 112.12488409 -59.35344207 111.25117026 -57.18554688 110.37890625 C-53.13532784 108.74694832 -49.08866889 107.10675165 -45.0456543 105.45703125 C-38.04156608 102.61048019 -31.01968321 99.80787328 -24 97 C-23.67 81.82 -23.34 66.64 -23 51 C-24.65 50.67 -26.3 50.34 -28 50 C-35.64841746 45.81365029 -40.29457986 39.17533073 -43 31 C-43.99552059 21.83073145 -43.71109585 13.60099956 -38 6 C-27.97188435 -5.0561024 -13.10079796 -8.22860037 0 0 Z " fill="#0F0347" transform="translate(663,299)"/>
<path d="M0 0 C11.77699388 8.83712022 17.47825356 19.91301424 21 34 C21 40.6 21 47.2 21 54 C-3.75 54 -28.5 54 -54 54 C-49.49974692 67.81358569 -49.49974692 67.81358569 -39 76.5 C-28.2834387 80.58249954 -16.26410765 78.2745461 -6 74 C-3.01529332 72.51505288 -0.11801642 70.9549206 2.7578125 69.26953125 C5 68 5 68 8 67 C8.68835938 68.10408203 8.68835938 68.10408203 9.390625 69.23046875 C10.00421875 70.20628906 10.6178125 71.18210937 11.25 72.1875 C11.85328125 73.15042969 12.4565625 74.11335937 13.078125 75.10546875 C14.95971895 78.04205091 14.95971895 78.04205091 17.234375 80.73828125 C19 83 19 83 19 85 C5.5121634 96.81327449 -12.29381175 101.99709987 -29.98046875 101.34765625 C-45.19527226 100.32007693 -59.07194998 94.18798066 -69.515625 83.140625 C-81.40637174 68.91907339 -82.23277539 51.71398763 -81 34 C-80.36633714 29.68202647 -78.96602012 25.89323722 -77 22 C-76.4740625 20.83597656 -76.4740625 20.83597656 -75.9375 19.6484375 C-69.91009965 7.46806597 -60.03104305 -0.73798338 -47.35546875 -5.31640625 C-31.38092962 -10.03802595 -14.27944991 -9.28048527 0 0 Z " fill="#0D0E25" transform="translate(394,686)"/>
<path d="M0 0 C0.61101562 0.41765625 1.22203125 0.8353125 1.8515625 1.265625 C12.14277516 9.15404352 17.52912207 22.64561033 20 35 C20 40.94 20 46.88 20 53 C-4.75 53 -29.5 53 -55 53 C-51.66273284 64.68287019 -51.66273284 64.68287019 -44.0625 73.375 C-34.6902641 78.34802313 -24.2019298 78.53392724 -14.1484375 75.51074219 C-7.00449213 73.11840246 -0.43607543 69.89375873 6 66 C7.84087999 68.61978231 9.67138435 71.24664581 11.5 73.875 C12.02464844 74.62136719 12.54929687 75.36773438 13.08984375 76.13671875 C13.58613281 76.85214844 14.08242188 77.56757812 14.59375 78.3046875 C15.05458984 78.96452637 15.51542969 79.62436523 15.99023438 80.30419922 C17 82 17 82 17 84 C2.1703637 96.35398507 -14.84955829 101.21743474 -34 100 C-50.30988602 97.92419633 -63.10810751 90.88495007 -73.375 78 C-82.71542315 64.67538506 -84.05200428 47.64567227 -81.67919922 31.86669922 C-80.8622808 28.0640085 -79.57244809 24.54835326 -78 21 C-77.649375 20.19820312 -77.29875 19.39640625 -76.9375 18.5703125 C-70.71938282 6.09089676 -60.67155721 -1.84127442 -47.6875 -6.3125 C-31.63833809 -11.39080624 -14.05741506 -9.75412473 0 0 Z " fill="#0D0D25" transform="translate(583,687)"/>
<path d="M0 0 C-1.59623144 4.39383706 -3.78024333 8.28995807 -6.125 12.3125 C-6.49753906 12.95767578 -6.87007812 13.60285156 -7.25390625 14.26757812 C-8.16632213 15.84675945 -9.08275509 17.42361864 -10 19 C-12.61048189 17.97292516 -15.19498624 16.91395232 -17.76171875 15.78125 C-27.7192608 11.42067084 -39.24372232 7.56770064 -50.1796875 10.60546875 C-52.92026364 11.72557974 -54.90134073 12.90134073 -57 15 C-57.55916525 19.56577789 -57.55916525 19.56577789 -55.8125 23.609375 C-53.51326045 25.37344672 -51.47554621 26.00378196 -48.6875 26.8125 C-47.53765625 27.15152344 -46.3878125 27.49054687 -45.203125 27.83984375 C-42.03677041 28.72950533 -38.85694276 29.55897108 -35.671875 30.37890625 C-7.24220356 37.74639626 -7.24220356 37.74639626 0 49 C3.81287145 56.25218455 3.14250317 67.12488705 1.3125 74.93359375 C0.38676447 77.15921625 -0.62908727 79.02026578 -2 81 C-2.43570313 81.63035156 -2.87140625 82.26070312 -3.3203125 82.91015625 C-9.67070269 91.08237969 -18.72457193 95.06549985 -28.77734375 96.5625 C-49.30447267 98.9212815 -70.00278192 95.39239406 -87 83 C-87.66 82.01 -88.32 81.02 -89 80 C-84.38 74.06 -79.76 68.12 -75 62 C-73.4325 63.051875 -71.865 64.10375 -70.25 65.1875 C-59.4101518 72.09195111 -48.90853935 76.01101847 -36 75 C-32.15550554 74.14426965 -29.00728846 72.8813774 -26 70.25 C-24.50494991 66.88613729 -24.41655051 64.6303524 -25 61 C-28.98724524 57.81584736 -32.70455972 56.25852049 -37.61328125 55 C-38.86173828 54.67 -40.11019531 54.34 -41.39648438 54 C-42.70157272 53.66568844 -44.00691345 53.33236063 -45.3125 53 C-72.7989986 45.94493682 -72.7989986 45.94493682 -81 34 C-84.3740363 26.33173568 -84.2583749 16.53267997 -81.4375 8.6875 C-76.44035041 -1.98115501 -68.64185119 -6.82419603 -57.7890625 -10.8125 C-39.64164421 -15.81868436 -14.93578758 -11.20184069 0 0 Z " fill="#0D0D25" transform="translate(845,690)"/>
<path d="M0 0 C1.0828125 0.8353125 1.0828125 0.8353125 2.1875 1.6875 C-1.54649 8.24081386 -5.28391835 14.64939113 -9.8125 20.6875 C-10.60011719 20.28917969 -11.38773438 19.89085937 -12.19921875 19.48046875 C-23.53622548 13.96625601 -35.02156806 10.23006248 -47.8125 11.6875 C-51.31686082 13.01674031 -53.1959084 14.0709084 -55.8125 16.6875 C-56.38087548 21.28703106 -56.38087548 21.28703106 -54.56103516 25.32080078 C-52.55679038 26.88736909 -50.97504799 27.45607318 -48.5234375 28.1171875 C-47.24690308 28.47006836 -47.24690308 28.47006836 -45.94458008 28.83007812 C-45.03474365 29.07177734 -44.12490723 29.31347656 -43.1875 29.5625 C-41.28251127 30.09099872 -39.37756391 30.61964664 -37.47265625 31.1484375 C-34.75803718 31.8896649 -32.04233924 32.62608327 -29.32373047 33.35253906 C-17.71174875 36.46563171 -7.20172437 39.37839908 0.03125 49.66015625 C4.36806187 57.26422842 4.4191844 66.17073394 2.53515625 74.609375 C-0.73221277 83.64021468 -7.14122716 90.59316471 -15.8125 94.6875 C-34.41562834 101.58075221 -54.97606253 100.06884826 -72.9765625 92.08203125 C-84.73872951 86.29815574 -84.73872951 86.29815574 -87.8125 81.6875 C-87.22082031 80.97464844 -86.62914062 80.26179687 -86.01953125 79.52734375 C-81.75870085 74.36291147 -77.61116444 69.20169031 -73.8125 63.6875 C-73.16925781 64.13480469 -72.52601563 64.58210937 -71.86328125 65.04296875 C-60.90311473 72.37580484 -49.18580042 77.78239009 -35.8125 76.6875 C-31.58847352 75.80641472 -28.01973943 74.74840738 -24.75 71.875 C-23.47074684 68.89007597 -23.34357634 66.90297649 -23.8125 63.6875 C-26.8979892 59.73018953 -30.07060984 58.68259531 -34.8125 57.3125 C-35.50239014 57.10608887 -36.19228027 56.89967773 -36.90307617 56.68701172 C-40.89610539 55.49808849 -44.90853974 54.38506273 -48.92578125 53.28125 C-72.71748614 46.63386329 -72.71748614 46.63386329 -78.953125 36.421875 C-82.69005266 28.88007554 -83.03307191 20.12371685 -80.75 12.0625 C-77.57440512 3.78221054 -71.81769304 -2.55405447 -63.8125 -6.3125 C-44.14660884 -14.15250351 -17.76564595 -11.70540224 0 0 Z " fill="#0D0D25" transform="translate(697.8125,688.3125)"/>
<path d="M0 0 C8.91 0 17.82 0 27 0 C27 8.91 27 17.82 27 27 C36.9 27 46.8 27 57 27 C57 34.92 57 42.84 57 51 C47.1 51 37.2 51 27 51 C27.07405362 57.86911159 27.15693707 64.7369343 27.26245117 71.60546875 C27.29566333 73.94101237 27.32370676 76.27663553 27.34643555 78.61230469 C27.38004901 81.97365145 27.43237003 85.33427169 27.48828125 88.6953125 C27.49786613 90.25658371 27.49786613 90.25658371 27.50764465 91.84939575 C27.61749345 97.29108892 27.89480075 101.32396867 31 106 C34.60097207 109.1773283 38.01648055 109.51032866 42.65234375 109.36328125 C47.74170046 108.57574352 51.78627497 105.80915002 56 103 C56.67363372 105.72761511 57.33909444 108.456799 58 111.1875 C58.19078125 111.95642578 58.3815625 112.72535156 58.578125 113.51757812 C60.53939063 121.67784406 60.53939063 121.67784406 60 125 C58.53125 126.51171875 58.53125 126.51171875 56.5 127.6875 C55.8503125 128.08324219 55.200625 128.47898437 54.53125 128.88671875 C44.12007441 133.46570802 28.91575802 134.34230651 18.1875 130.375 C9.97787223 126.21237183 5.08407982 120.73245073 2 112 C0.07438841 104.58901367 -0.26931355 97.49449339 -0.1953125 89.8671875 C-0.1924826 88.74933868 -0.18965271 87.63148987 -0.18673706 86.47976685 C-0.17563217 82.94473099 -0.15054578 79.40995797 -0.125 75.875 C-0.11495767 73.46354535 -0.10583402 71.05208669 -0.09765625 68.640625 C-0.07572462 62.76031695 -0.04126235 56.88020288 0 51 C-4.95 51 -9.9 51 -15 51 C-15 43.08 -15 35.16 -15 27 C-10.05 27 -5.1 27 0 27 C0 18.09 0 9.18 0 0 Z " fill="#0F0F27" transform="translate(437,654)"/>
<path d="M0 0 C8.91 0 17.82 0 27 0 C27 33.99 27 67.98 27 103 C18.09 103 9.18 103 0 103 C0 69.01 0 35.02 0 0 Z " fill="#0C0D24" transform="translate(717,681)"/>
<path d="M0 0 C33 0 66 0 100 0 C100 0.33 100 0.66 100 1 C67.66 1 35.32 1 2 1 C2.0721875 8.8890625 2.144375 16.778125 2.21875 24.90625 C2.86452091 100.04993906 3.11229344 175.19115865 3.12283063 250.33763099 C3.1241204 258.9343174 3.12788087 267.53100038 3.13256836 276.12768555 C3.1387061 287.83378587 3.13866261 299.5398746 3.13431931 311.24597549 C3.13284649 315.60589025 3.13354479 319.96579612 3.13615799 324.3257103 C3.13903635 329.38940802 3.13709132 334.45308099 3.13136959 339.51677608 C3.1300747 341.35579991 3.13044969 343.19482583 3.13267231 345.03384876 C3.13542231 347.54467868 3.13195359 350.05542878 3.12698364 352.56625366 C3.12921421 353.27932643 3.13144477 353.99239919 3.13374293 354.72708023 C3.11262684 360.26232383 2.55836341 365.41636587 2 371 C31.37 371 60.74 371 91 371 C91 294.44 91 217.88 91 139 C91.33 139 91.66 139 92 139 C92 216.22 92 293.44 92 373 C61.64 373 31.28 373 0 373 C0 249.91 0 126.82 0 0 Z " fill="#631DFD" transform="translate(323,198)"/>
<path d="M0 0 C5.68887578 5.85141509 6.26284384 9.92809459 7.1875 18.25 C-8.6525 18.25 -24.4925 18.25 -40.8125 18.25 C-38.7402488 8.92486958 -37.07279975 4.69449767 -29.875 -1.125 C-19.76538893 -6.48928343 -9.61104794 -5.98020761 0 0 Z " fill="#FBFBFC" transform="translate(568.8125,703.75)"/>
<path d="M0 0 C4.79235498 4.25561122 8.04705366 8.91140257 10 15 C10 16.65 10 18.3 10 20 C-5.84 20 -21.68 20 -38 20 C-36.09302631 11.41861839 -34.89284281 6.47150643 -27.78125 1.42578125 C-19.20306107 -3.56386531 -8.88076564 -5.32845938 0 0 Z " fill="#FCFCFD" transform="translate(378,702)"/>
<path d="M0 0 C3.91365584 3.71797305 6.69453947 6.83972529 6.9375 12.375 C6.63766445 17.61212761 4.86123849 21.11585439 1 24.6875 C-4.12164913 28.14461316 -9.51794743 27.97654719 -15.5 27.375 C-19.20213146 26.14983419 -21.75936785 24.16341487 -24.4375 21.3125 C-26.56910661 15.41923466 -26.51148334 9.55357951 -23.875 3.875 C-17.55284529 -2.7798997 -8.26648421 -3.83801053 0 0 Z " fill="#0D0D24" transform="translate(739.5,638.625)"/>
<path d="M0 0 C4.38544865 2.19272433 7.23315916 4.38658225 9 9 C9.65862967 14.31782472 9.65060637 18.59869397 7.375 23.5 C3.7053959 27.36274116 0.30510501 29.12364837 -5 29.4375 C-9.28187872 29.24138342 -11.76162013 27.87038216 -15 25 C-17.7184669 21.58925271 -18.90354966 18.7853813 -19.4375 14.4375 C-18.78019761 9.27298119 -17.3122195 6.18419809 -13.4375 2.6875 C-8.96512018 -0.40876295 -5.35945149 -0.64963048 0 0 Z " fill="#5348F4" transform="translate(652,308)"/>
<path d="M0 0 C9.24 0 18.48 0 28 0 C28 47.52 28 95.04 28 144 C19.09 144 10.18 144 1 144 C0.01 142.68 -0.98 141.36 -2 140 C-1.505 139.01 -1.505 139.01 -1 138 C-0.34 139.32 0.32 140.64 1 142 C9.25 142 17.5 142 26 142 C26 95.47 26 48.94 26 1 C17.75 1 9.5 1 1 1 C1 31.69 1 62.38 1 94 C0.67 94 0.34 94 0 94 C0 62.98 0 31.96 0 0 Z " fill="#191920" transform="translate(267,641)"/>
<path d="M0 0 C4.14613048 1.79037453 6.20962547 3.85386952 8 8 C8.54957375 12.31807946 8.2941115 14.44328894 6.25 18.3125 C3.26226793 21.88117997 1.68823369 22.77979561 -2.875 23.375 C-7.43500643 22.82779923 -10.53459148 20.86506539 -13.375 17.25 C-14.34165091 13.77005671 -14.68551123 10.536152 -14 7 C-10.45141607 0.86583076 -6.89313978 -0.46733151 0 0 Z " fill="#5547F4" transform="translate(641,507)"/>
<path d="M0 0 C3.02182284 2.05741129 4.69011377 3.49949825 5.4453125 7.15625 C5.65056702 11.26134032 5.33688603 13.46098235 3.125 17 C-0.12166803 20.05568756 -2.48634347 20.3919175 -6.9609375 20.359375 C-10.38006698 19.7567698 -11.93189052 17.63213933 -14 15 C-15.55024464 11.89951072 -15.28992015 9.42105782 -15 6 C-11.0079342 -0.41582004 -7.32893647 -1.92866749 0 0 Z " fill="#5847F4" transform="translate(562,429)"/>
<path d="M0 0 C1.48675537 2.22851562 1.48675537 2.22851562 3 5 C4.35531169 6.49356234 5.76399383 7.93978232 7.21191406 9.34375 C8.05578674 10.16810547 8.89965942 10.99246094 9.769104 11.84179688 C10.67545593 12.71900391 11.58180786 13.59621094 12.515625 14.5 C13.93687007 15.89518383 15.35809814 17.29038551 16.77828598 18.68664551 C20.2729678 22.12034048 23.77725853 25.543984 27.29589844 28.953125 C29.27479778 30.87136114 31.2455591 32.79729761 33.20794678 34.73242188 C35.05535521 36.55344507 36.91469578 38.36245524 38.78668213 40.15820312 C39.61794617 40.98255859 40.44921021 41.80691406 41.30566406 42.65625 C42.04496155 43.37619141 42.78425903 44.09613281 43.54595947 44.83789062 C45 47 45 47 44.730896 49.77148438 C44.48970032 50.50689453 44.24850464 51.24230469 44 52 C43.92024933 51.43456482 43.84049866 50.86912964 43.7583313 50.28656006 C42.74697653 47.23707043 41.11545326 45.70566744 38.86669922 43.41503906 C37.98843475 42.51440735 37.11017029 41.61377563 36.20529175 40.68585205 C35.23910834 39.71176344 34.27222263 38.73837099 33.3046875 37.765625 C32.31382507 36.76257893 31.32311479 35.75938253 30.33255005 34.75604248 C28.25485847 32.65588672 26.1708083 30.56227181 24.08300781 28.47216797 C21.41271318 25.79658945 18.7662081 23.09874277 16.1249218 20.39456558 C14.08640807 18.31513272 12.03222139 16.25173895 9.97339249 14.19243622 C8.99089624 13.20456304 8.01412608 12.21095967 7.04336166 11.21155548 C5.68222132 9.81364977 4.29636994 8.43993556 2.90966797 7.06738281 C2.12880829 6.28002747 1.34794861 5.49267212 0.54342651 4.68145752 C-2.77336353 2.4887299 -5.10581856 2.689978 -9 3 C-4.5 0 -4.5 0 0 0 Z " fill="#0C0630" transform="translate(572,459)"/>
<path d="M0 0 C3.90650325 2.37787154 6.03256 3.92458858 8 8 C10.05000871 8.80528889 10.05000871 8.80528889 12 9 C12.144375 9.886875 12.28875 10.77375 12.4375 11.6875 C12.76103986 13.59279026 13.11710864 15.4944587 13.5625 17.375 C14.15875597 20.95253582 14.06145478 24.3741679 14 28 C11.43003574 25.43003574 11.63309488 24.00849155 11.25 20.4375 C10.19519884 13.47246378 7.58658013 7.6484533 1.8046875 3.37890625 C1.20914063 2.92386719 0.61359375 2.46882813 0 2 C0 1.34 0 0.68 0 0 Z " fill="#5A4DF5" transform="translate(651,495)"/>
<path d="M0 0 C0.66 0 1.32 0 2 0 C0.66091819 2.90881885 -0.88854475 5.1745955 -2.9375 7.625 C-7.52535393 13.62277977 -9.02707041 20.60573509 -10 28 C-10.33 28 -10.66 28 -11 28 C-11.21824777 21.9981863 -10.5056904 16.80766296 -9 11 C-8.34 11 -7.68 11 -7 11 C-6.814375 10.1028125 -6.814375 10.1028125 -6.625 9.1875 C-6 7 -6 7 -4 4 C-3.34 4 -2.68 4 -2 4 C-2 3.34 -2 2.68 -2 2 C-1.34 2 -0.68 2 0 2 C0 1.34 0 0.68 0 0 Z " fill="#5A50F6" transform="translate(629,298)"/>
<path d="M0 0 C0.7425 0.61875 1.485 1.2375 2.25 1.875 C7.31903038 5.79197802 10.87960688 6.27131645 17.25 6.125 C17.99507812 6.11597656 18.74015625 6.10695313 19.5078125 6.09765625 C21.33868059 6.07418358 23.16938238 6.03831525 25 6 C25 6.33 25 6.66 25 7 C23.93072266 7.07347656 23.93072266 7.07347656 22.83984375 7.1484375 C17.29491509 7.58128523 12.27913551 8.24028816 7 10 C4.36 7.36 1.72 4.72 -1 2 C-0.67 1.34 -0.34 0.68 0 0 Z " fill="#6051F8" transform="translate(619,486)"/>
<path d="M0 0 C0.33 0 0.66 0 1 0 C0.67 4.95 0.34 9.9 0 15 C-0.99 15 -1.98 15 -3 15 C-2.5547115 9.72684667 -1.91626837 4.98229776 0 0 Z " fill="#161621" transform="translate(504,710)"/>
<path d="M0 0 C0.99 0 1.98 0 3 0 C3 3.96 3 7.92 3 12 C2.01 11.67 1.02 11.34 0 11 C0 7.37 0 3.74 0 0 Z " fill="#16162A" transform="translate(616,705)"/>
<path d="M0 0 C1.14926266 0.95421808 2.29430541 1.91352045 3.4375 2.875 C4.07558594 3.40867187 4.71367188 3.94234375 5.37109375 4.4921875 C7 6 7 6 8 8 C7.0625 10.625 7.0625 10.625 6 13 C5.34 13 4.68 13 4 13 C4.0825 11.906875 4.165 10.81375 4.25 9.6875 C4.43362295 5.96372666 4.43362295 5.96372666 2 4.25 C1.34 3.8375 0.68 3.425 0 3 C0 2.01 0 1.02 0 0 Z " fill="#5D4DF4" transform="translate(608,500)"/>
<path d="M0 0 C0.99 0.33 1.98 0.66 3 1 C3 1.66 3 2.32 3 3 C6.3 3.33 9.6 3.66 13 4 C12.67 4.66 12.34 5.32 12 6 C6.73628638 6.50130606 4.0909066 5.31168629 0 2 C0 1.34 0 0.68 0 0 Z " fill="#574CE8" transform="translate(629,524)"/>
<path d="M0 0 C1.13199353 0.9080162 2.25532363 1.82683826 3.375 2.75 C4.00148438 3.26046875 4.62796875 3.7709375 5.2734375 4.296875 C7.08312318 6.08199481 8.00117455 7.67949644 9 10 C7.1875 9.8125 7.1875 9.8125 5 9 C3.00074102 6.15490068 1.54902322 3.1046662 0 0 Z " fill="#442FF7" transform="translate(553,342)"/>
<path d="M0 0 C4.60209225 -0.17700355 6.78370866 -0.10814567 11 2 C5.06 2.495 5.06 2.495 -1 3 C-0.67 2.01 -0.34 1.02 0 0 Z " fill="#18192C" transform="translate(361,784)"/>
<path d="M0 0 C2.125 0.9375 2.125 0.9375 4 2 C3.01 2.66 2.02 3.32 1 4 C0.27034634 6.56282742 0.27034634 6.56282742 0 9 C-0.33 9 -0.66 9 -1 9 C-1.33 6.36 -1.66 3.72 -2 1 C-1.34 0.67 -0.68 0.34 0 0 Z M4 0 C6 1 6 1 6 1 Z " fill="#5747EC" transform="translate(584,433)"/>
<path d="M0 0 C2.475 0.99 2.475 0.99 5 2 C3.35 4.64 1.7 7.28 0 10 C-0.33 9.34 -0.66 8.68 -1 8 C-0.34 7.01 0.32 6.02 1 5 C0.6878236 2.35367713 0.6878236 2.35367713 0 0 Z " fill="#0E0D16" transform="translate(695,688)"/>
<path d="M0 0 C0.99 0 1.98 0 3 0 C3 0.66 3 1.32 3 2 C2.34 2 1.68 2 1 2 C1 3.32 1 4.64 1 6 C0.01 6.33 -0.98 6.66 -2 7 C-1.125 2.25 -1.125 2.25 0 0 Z " fill="#5549F4" transform="translate(660,530)"/>
<path d="M0 0 C0.66 0 1.32 0 2 0 C2 0.99 2 1.98 2 3 C2.99 3.33 3.98 3.66 5 4 C4.67 4.66 4.34 5.32 4 6 C0.125 4.25 0.125 4.25 -1 2 C-0.67 1.34 -0.34 0.68 0 0 Z " fill="#594AEE" transform="translate(572,416)"/>
</svg>
