<?xml version="1.0" encoding="UTF-8"?>
<svg version="1.1" xmlns="http://www.w3.org/2000/svg" width="1024" height="1024">
<path d="M0 0 C337.92 0 675.84 0 1024 0 C1024 337.92 1024 675.84 1024 1024 C686.08 1024 348.16 1024 0 1024 C0 686.08 0 348.16 0 0 Z " fill="#FBFBFC" transform="translate(0,0)"/>
<path d="M0 0 C4.46549183 -0.19834763 8.92863025 -0.3431785 13.3972168 -0.43945312 C14.91557479 -0.47959307 16.43362522 -0.5341233 17.95092773 -0.60351562 C30.44807379 -1.16058277 30.44807379 -1.16058277 33.9440918 1.45385742 C35.30233009 3.57857043 36.13622877 5.63251993 37 8 C37.85553436 9.63075257 38.73029948 11.25151869 39.62109375 12.86328125 C40.56325881 14.67794541 41.50188001 16.49445263 42.4375 18.3125 C42.94974121 19.30088867 43.46198242 20.28927734 43.98974609 21.30761719 C45.0891706 23.42975448 46.18710875 25.55266236 47.28369141 27.67626953 C50.22427935 33.37088749 53.17538633 39.06005344 56.125 44.75 C56.71982178 45.89831299 57.31464355 47.04662598 57.92749023 48.22973633 C61.64789951 55.40800424 65.3964665 62.57052758 69.17236328 69.71972656 C72.81616426 76.62859809 76.4088698 83.56363519 80 90.5 C86.57571264 103.19608952 93.20403204 115.8622915 99.91618347 128.48678589 C108.97416947 145.52519331 117.93954219 162.60511736 126.72265625 179.78710938 C127.07053192 180.46663666 127.41840759 181.14616394 127.77682495 181.84628296 C128.46471741 183.19127275 129.15088203 184.53714777 129.8352356 185.88394165 C131.67047825 189.47904946 133.56050843 193.03279213 135.52685547 196.55810547 C135.94410385 197.31558578 136.36135223 198.0730661 136.79124451 198.85350037 C137.59161395 200.301524 138.40364025 201.74319061 139.22938538 203.17689514 C141.66485807 207.60808127 142.57189094 210.81903906 142 216 C139.38513784 220.93918408 136.02530244 224.48734878 131 227 C128.80231409 227.14848646 126.60019214 227.23265163 124.39819336 227.28808594 C123.71985443 227.30590118 123.0415155 227.32371643 122.34262085 227.34207153 C116.07285591 227.49675607 109.80154191 227.58403861 103.53029537 227.65206528 C99.3199931 227.69819214 95.11248326 227.76546381 90.90356445 227.88476562 C86.82903159 227.99982644 82.75700041 228.06001029 78.68094063 228.0825882 C77.13340281 228.10029511 75.58595353 228.13697486 74.03935051 228.19359589 C61.96103966 228.61477141 61.96103966 228.61477141 57.08700562 224.60136414 C54.80360356 221.83355413 52.87755739 219.05300089 51 216 C50.0759071 214.79409778 49.13595818 213.59995818 48.171875 212.42578125 C47.37265625 211.39839844 46.5734375 210.37101563 45.75 209.3125 C41.70810761 204.13543167 37.59371496 199.02314587 33.4375 193.9375 C27.82032455 187.06111531 22.36586992 180.07374274 17 173 C11.32636913 173.44861267 7.87432359 175.69302555 3.3125 178.8125 C1.79633174 179.82145373 0.2793755 180.82922413 -1.23828125 181.8359375 C-2.41318115 182.62049316 -2.41318115 182.62049316 -3.61181641 183.42089844 C-7.49413989 185.98794692 -11.43391087 188.46200084 -15.375 190.9375 C-16.98051406 191.94914684 -18.58598257 192.96086598 -20.19140625 193.97265625 C-20.98820801 194.4742627 -21.78500977 194.97586914 -22.60595703 195.49267578 C-26.50990207 197.95065627 -30.41149094 200.41236321 -34.3125 202.875 C-35.48171997 203.61290771 -35.48171997 203.61290771 -36.67456055 204.36572266 C-41.77269592 207.58576169 -46.86085464 210.82112559 -51.94482422 214.06347656 C-61.66409713 220.26152456 -71.41235661 226.41036782 -81.20043945 232.49926758 C-86.04533793 235.51545242 -90.87399454 238.55182324 -95.66796875 241.6484375 C-96.54880127 242.21481934 -97.42963379 242.78120117 -98.3371582 243.36474609 C-99.99237675 244.43128326 -101.64348128 245.50424057 -103.28979492 246.58447266 C-104.01658447 247.05159668 -104.74337402 247.5187207 -105.4921875 248 C-106.44134033 248.61875 -106.44134033 248.61875 -107.40966797 249.25 C-107.93447754 249.4975 -108.45928711 249.745 -109 250 C-109.66 249.67 -110.32 249.34 -111 249 C-111.20080206 243.73898606 -111.3443151 238.48029556 -111.43945312 233.21630859 C-111.47918802 231.43368598 -111.53339914 229.65131516 -111.60351562 227.86962891 C-112.08317031 215.34923085 -110.59112634 206.58185194 -104.08642578 195.81890869 C-102.39223726 192.98247542 -100.88988565 190.0482376 -99.359375 187.12109375 C-98.15821284 184.89217028 -96.95505269 182.66432249 -95.75 180.4375 C-94.43434276 177.99708985 -93.12098985 175.55544653 -91.80859375 173.11328125 C-91.48432907 172.51002014 -91.16006439 171.90675903 -90.82597351 171.28521729 C-87.77071988 165.59130704 -84.78559316 159.86210595 -81.8125 154.125 C-78.02650271 146.82392769 -74.15319539 139.57997172 -70.1875 132.375 C-65.14039713 123.20163405 -60.31417779 113.92301368 -55.52954102 104.61132812 C-51.51762637 96.80785596 -47.43402614 89.05413478 -43.1875 81.375 C-37.92516283 71.85060463 -32.95324713 62.1872719 -28 52.5 C-21.65210597 40.08656046 -15.16934049 27.76842436 -8.41259766 15.57128906 C-5.57199057 10.40065756 -2.78960213 5.19827439 0 0 Z " fill="#0B457C" transform="translate(189,374)"/>
<path d="M0 0 C3.21437137 3.84911779 5.28788639 8.24270679 7.53515625 12.69140625 C7.97331161 13.5507225 8.41146698 14.41003876 8.86289978 15.2953949 C10.2663492 18.04929025 11.66468337 20.80574192 13.0625 23.5625 C14.8848783 27.14807378 16.70944065 30.73253072 18.53515625 34.31640625 C18.98863434 35.20707794 19.44211243 36.09774963 19.90933228 37.01541138 C23.78115672 44.60486229 27.73991667 52.1465954 31.72045898 59.67944336 C34.84924695 65.60123701 37.9250237 71.55010501 41 77.5 C45.08288458 85.38629424 49.17605354 93.26665649 53.3125 101.125 C53.7041333 101.87281738 54.0957666 102.62063477 54.49926758 103.39111328 C56.50404805 107.20906242 58.54751934 110.9996256 60.6484375 114.765625 C61.07471436 115.54019043 61.50099121 116.31475586 61.94018555 117.11279297 C62.74740005 118.57680738 63.56589105 120.03468437 64.39770508 121.48486328 C66.02370442 124.4523579 67.0238219 126.49225312 66.86328125 129.9140625 C66 132 66 132 64 133 C63.67 133.99 63.34 134.98 63 136 C62.34 136.66 61.68 137.32 61 138 C60.60235737 139.98821313 60.26224651 141.98944339 60 144 C60.66 144 61.32 144 62 144 C61.67 145.65 61.34 147.3 61 149 C58.69 149 56.38 149 54 149 C53.67 148.34 53.34 147.68 53 147 C53.33 146.01 53.66 145.02 54 144 C52.515 142.515 52.515 142.515 51 141 C50.34 141.33 49.68 141.66 49 142 C47.32345271 141.72057545 45.65391846 141.39171753 44 141 C44 140.34 44 139.68 44 139 C43.34 138.67 42.68 138.34 42 138 C42.495 135.03 42.495 135.03 43 132 C42.34 132.33 41.68 132.66 41 133 C40.67 133.99 40.34 134.98 40 136 C39.01 136 38.02 136 37 136 C36.67 137.32 36.34 138.64 36 140 C35.01 139.67 34.02 139.34 33 139 C32.3125 136.9375 32.3125 136.9375 32 135 C29.06072154 134.8902439 29.06072154 134.8902439 26.5 135.5625 C24 136 24 136 21 135 C21 139.38206967 21.56771975 140.30426964 24 143.75 C24.556875 144.54921875 25.11375 145.3484375 25.6875 146.171875 C26.120625 146.77515625 26.55375 147.3784375 27 148 C26.67 148.66 26.34 149.32 26 150 C21.8362693 144.6565456 18.11096387 139.35749423 15.1484375 133.2421875 C13.17643076 129.3920791 10.93994047 125.68429332 8.74609375 121.95703125 C6 117.21926511 6 117.21926511 6 115 C5.01 115.495 5.01 115.495 4 116 C2.20872216 115.98726186 0.41772445 115.91891832 -1.37109375 115.82421875 C-19.86859048 115.3098071 -32.14249408 119.65063787 -47.87158203 129.12109375 C-51.79680119 131.4785533 -55.78460619 133.70775188 -59.79492188 135.91650391 C-61.50882958 136.86244668 -63.21516399 137.8222949 -64.91210938 138.79833984 C-65.66169922 139.22324707 -66.41128906 139.6481543 -67.18359375 140.0859375 C-67.82868896 140.4576709 -68.47378418 140.8294043 -69.13842773 141.21240234 C-71 142 -71 142 -75 142 C-74.62207008 135.66967389 -71.39354211 131.0073405 -68.25 125.6875 C-63.44910667 117.3935979 -58.8674983 109.03000928 -54.5 100.5 C-49.24113043 90.25954815 -43.69322458 80.21544147 -37.97265625 70.2265625 C-34.9017746 64.86094488 -31.94091266 59.43771681 -29 54 C-28.34 54 -27.68 54 -27 54 C-26.94714844 53.22011719 -26.89429688 52.44023437 -26.83984375 51.63671875 C-25.65332694 46.49882505 -23.15198498 42.37471763 -20.5625 37.8125 C-19.46877147 35.84967137 -18.37634721 33.88611547 -17.28515625 31.921875 C-16.7348877 30.93509766 -16.18461914 29.94832031 -15.61767578 28.93164062 C-12.75910394 23.75118021 -10.03062093 18.50332098 -7.29907227 13.25512695 C-4.96087929 8.77704535 -2.53373499 4.37069285 0 0 Z " fill="#0587D4" transform="translate(228,387)"/>
<path d="M0 0 C3.82428832 4.31323843 6.14216409 8.98198276 8.625 14.125 C9.51396589 15.93440982 10.40463231 17.74298502 11.296875 19.55078125 C11.97266602 20.92097412 11.97266602 20.92097412 12.66210938 22.31884766 C14.67305621 26.34881446 16.7672946 30.3325063 18.875 34.3125 C19.47441406 35.45211182 19.47441406 35.45211182 20.0859375 36.61474609 C22.45650463 41.11453724 24.86427037 45.5920223 27.296875 50.05859375 C28.40638589 52.12232278 29.51576287 54.18612381 30.625 56.25 C31.15851074 57.21462158 31.69202148 58.17924316 32.24169922 59.1730957 C34.96512202 64.27201308 36.86629765 68.05857803 36 74 C33.38513784 78.93918408 30.02530244 82.48734878 25 85 C22.80231409 85.14848646 20.60019214 85.23265163 18.39819336 85.28808594 C17.71985443 85.30590118 17.0415155 85.32371643 16.34262085 85.34207153 C10.07285591 85.49675607 3.80154191 85.58403861 -2.46970463 85.65206528 C-6.6800069 85.69819214 -10.88751674 85.76546381 -15.09643555 85.88476562 C-19.17096841 85.99982644 -23.24299959 86.06001029 -27.31905937 86.0825882 C-28.86659719 86.10029511 -30.41404647 86.13697486 -31.96064949 86.19359589 C-44.03896034 86.61477141 -44.03896034 86.61477141 -48.91299438 82.60136414 C-51.19639644 79.83355413 -53.12244261 77.05300089 -55 74 C-55.9240929 72.79409778 -56.86404182 71.59995818 -57.828125 70.42578125 C-58.62734375 69.39839844 -59.4265625 68.37101563 -60.25 67.3125 C-64.2919081 62.13541155 -68.40710659 57.02383321 -72.5625 51.9375 C-76.66183105 46.9040132 -80.74774007 41.86118736 -84.75 36.75 C-85.54921875 35.73421875 -86.3484375 34.7184375 -87.171875 33.671875 C-88.79131033 31.30500797 -89.60025693 29.79820151 -90 27 C-88.02 26.67 -86.04 26.34 -84 26 C-84 25.34 -84 24.68 -84 24 C-78.25 21 -78.25 21 -76 21 C-76 20.34 -76 19.68 -76 19 C-75.46632812 18.72027344 -74.93265625 18.44054687 -74.3828125 18.15234375 C-69.09878221 15.30920634 -64.26243933 12.14487585 -59.45703125 8.55078125 C-56.72622008 6.82720091 -54.08872358 5.90739636 -51 5 C-50.51789063 5.77085937 -50.03578125 6.54171875 -49.5390625 7.3359375 C-48.90742188 8.33882812 -48.27578125 9.34171875 -47.625 10.375 C-46.99851563 11.37273438 -46.37203125 12.37046875 -45.7265625 13.3984375 C-44.10730288 16.0248019 -44.10730288 16.0248019 -42 18 C-42.68449219 17.14728516 -42.68449219 17.14728516 -43.3828125 16.27734375 C-48.02273265 10.04570211 -48.02273265 10.04570211 -47.953125 6.84375 C-47.375 4.9375 -47.375 4.9375 -46 2 C-45.505 3.98 -45.505 3.98 -45 6 C-44.34 6 -43.68 6 -43 6 C-42.34 4.68 -41.68 3.36 -41 2 C-40.505 3.485 -40.505 3.485 -40 5 C-38.08333333 5.83333333 -38.08333333 5.83333333 -36 6 C-35.34 5.67 -34.68 5.34 -34 5 C-33.87625 5.804375 -33.7525 6.60875 -33.625 7.4375 C-33.41875 8.283125 -33.2125 9.12875 -33 10 C-32.34 10.33 -31.68 10.66 -31 11 C-30.67 9.68 -30.34 8.36 -30 7 C-29.01 7 -28.02 7 -27 7 C-26.896875 6.38125 -26.79375 5.7625 -26.6875 5.125 C-26 3 -26 3 -23 1 C-22.505 1.99 -22.505 1.99 -22 3 C-22.66 3 -23.32 3 -24 3 C-24 4.98 -24 6.96 -24 9 C-21.35261084 10.4606285 -20.10551666 11 -17 11 C-16.01 11.495 -16.01 11.495 -15 12 C-15 12.66 -15 13.32 -15 14 C-14.01 14.33 -13.02 14.66 -12 15 C-12.33 16.32 -12.66 17.64 -13 19 C-11.02 19 -9.04 19 -7 19 C-6.34 17.68 -5.68 16.36 -5 15 C-5.66 15 -6.32 15 -7 15 C-7.33 15.66 -7.66 16.32 -8 17 C-8.17942163 13.05272412 -8.09350689 10.4019487 -6 7 C-5.34 7 -4.68 7 -4 7 C-3.896875 6.401875 -3.79375 5.80375 -3.6875 5.1875 C-2.91123545 2.71756736 -1.92911079 1.67748765 0 0 Z " fill="#087BC1" transform="translate(295,516)"/>
<path d="M0 0 C4.49005631 -0.68041923 9.01273888 -0.64255378 13.5480957 -0.66577148 C15.7959309 -0.68734101 18.03687747 -0.76743576 20.28320312 -0.84960938 C30.7540251 -1.04477259 30.7540251 -1.04477259 34.05615234 1.72412109 C35.34463935 3.78806451 36.18506839 5.71493065 37 8 C37.99 9.485 37.99 9.485 39 11 C39 16.23317064 36.47350223 19.72525237 33.7890625 24 C31.77702662 27.37389424 30.03305667 30.8475536 28.3125 34.375 C24.66023846 41.8446278 20.68489261 49.11168937 16.59301758 56.34912109 C16.14079834 57.15687988 15.6885791 57.96463867 15.22265625 58.796875 C14.81797119 59.51198242 14.41328613 60.22708984 13.99633789 60.96386719 C13.01403764 62.97131245 12.45353428 64.81788376 12 67 C11.34 67 10.68 67 10 67 C9.73300293 67.70455322 9.46600586 68.40910645 9.19091797 69.13500977 C7.93789149 72.14941439 6.49165897 74.96500118 4.9453125 77.83984375 C4.0325354 79.54068115 4.0325354 79.54068115 3.10131836 81.27587891 C2.44264444 82.49647263 1.78386919 83.71701168 1.125 84.9375 C0.4432825 86.20483025 -0.23827491 87.47224663 -0.91967773 88.73974609 C-5.41071223 97.08618056 -9.93585538 105.41389108 -14.48730469 113.72753906 C-17.27311435 118.81949501 -20.03906852 123.92167158 -22.78515625 129.03515625 C-23.10523148 129.63096497 -23.4253067 130.22677368 -23.75508118 130.84063721 C-25.32465632 133.7632071 -26.89218565 136.6868399 -28.45727539 139.61181641 C-29.02051514 140.66159668 -29.58375488 141.71137695 -30.1640625 142.79296875 C-30.66373535 143.7264917 -31.1634082 144.66001465 -31.67822266 145.62182617 C-33 148 -33 148 -35 151 C-35.66 151 -36.32 151 -37 151 C-37.185625 152.175625 -37.185625 152.175625 -37.375 153.375 C-38 156 -38 156 -40 158 C-40.4125 157.401875 -40.825 156.80375 -41.25 156.1875 C-43.00669315 153.99163357 -44.7291245 152.63219177 -47 151 C-48.75 149.375 -48.75 149.375 -50 148 C-50 147.67 -50 147.34 -50 147 C-50.33 146.67 -50.66 146.34 -51 146 C-51.99 148.31 -52.98 150.62 -54 153 C-55.32 152.67 -56.64 152.34 -58 152 C-58 150.68 -58 149.36 -58 148 C-59.485 148.99 -59.485 148.99 -61 150 C-61.99 150 -62.98 150 -64 150 C-64 149.34 -64 148.68 -64 148 C-63.01 148 -62.02 148 -61 148 C-61.495 147.54625 -61.99 147.0925 -62.5 146.625 C-64 145 -64 145 -64 143 C-64.66 143 -65.32 143 -66 143 C-66.495 143.99 -66.495 143.99 -67 145 C-67 144.01 -67 143.02 -67 142 C-68.32 141.67 -69.64 141.34 -71 141 C-69.99070174 133.9349122 -67.646846 127.98128078 -64.41796875 121.65234375 C-63.89132881 120.61012917 -63.89132881 120.61012917 -63.35404968 119.54685974 C-59.80301816 112.55050352 -56.13704388 105.61535421 -52.44708252 98.69152832 C-50.47482046 94.990606 -48.50870244 91.28642423 -46.54296875 87.58203125 C-46.15254395 86.84644989 -45.76211914 86.11086853 -45.35986328 85.35299683 C-41.90689255 78.83985988 -38.50958588 72.29894721 -35.125 65.75 C-30.7592858 57.3097994 -26.26628169 48.95113953 -21.68066406 40.62866211 C-16.58118279 31.32708019 -11.73474731 21.89657058 -6.89892578 12.45605469 C-6.5877179 11.84990829 -6.27651001 11.2437619 -5.95587158 10.61924744 C-5.10681504 8.96485227 -4.26011713 7.30924723 -3.41357422 5.65356445 C-2 3 -2 3 0 0 Z " fill="#115390" transform="translate(189,374)"/>
<path d="M0 0 C0.87454834 0.00523682 1.74909668 0.01047363 2.65014648 0.01586914 C3.59438477 0.0190918 4.53862305 0.02231445 5.51147461 0.02563477 C6.50469727 0.03401367 7.49791992 0.04239258 8.52124023 0.05102539 C9.51833008 0.05553711 10.51541992 0.06004883 11.54272461 0.06469727 C14.01478872 0.07652532 16.48673541 0.0930069 18.95874023 0.11352539 C19.16790573 0.71009949 19.37707123 1.30667358 19.59257507 1.92132568 C22.2746007 9.5696144 24.95962104 17.21684911 27.64624023 24.86352539 C28.07514557 26.08437836 28.5040509 27.30523132 28.94595337 28.56307983 C34.97875263 45.72729018 41.06798229 62.86897498 47.29931641 79.9621582 C47.67793823 81.00290749 47.67793823 81.00290749 48.06420898 82.06468201 C48.73022599 83.89443309 49.39846495 85.72337498 50.06689453 87.55224609 C50.95874023 90.11352539 50.95874023 90.11352539 50.95874023 91.11352539 C44.35874023 91.11352539 37.75874023 91.11352539 30.95874023 91.11352539 C28.38091231 85.0431564 26.9102155 80.77385222 25.95874023 74.11352539 C14.40874023 74.11352539 2.85874023 74.11352539 -9.04125977 74.11352539 C-10.03125977 77.74352539 -11.02125977 81.37352539 -12.04125977 85.11352539 C-12.70125977 87.09352539 -13.36125977 89.07352539 -14.04125977 91.11352539 C-20.64125977 91.11352539 -27.24125977 91.11352539 -34.04125977 91.11352539 C-31.99865239 83.30053211 -29.61294661 75.71254299 -26.90844727 68.10571289 C-26.51231232 66.98198273 -26.11617737 65.85825256 -25.70803833 64.70046997 C-24.44775299 61.12852357 -23.18202109 57.55853445 -21.91625977 53.98852539 C-21.09039862 51.64880173 -20.26487536 49.30895878 -19.43969727 46.96899414 C-16.9843969 40.01330032 -14.51509512 33.06264567 -12.04125977 26.11352539 C-11.61397583 24.91135376 -11.18669189 23.70918213 -10.74645996 22.47058105 C-9.49646986 18.95714317 -8.2422583 15.44524356 -6.98657227 11.93383789 C-6.60387177 10.8575412 -6.22117126 9.78124451 -5.82687378 8.67233276 C-5.47496979 7.69144684 -5.1230658 6.71056091 -4.76049805 5.69995117 C-4.45153595 4.835242 -4.14257385 3.97053284 -3.82424927 3.07962036 C-2.65664363 0.14775018 -2.65664363 0.14775018 0 0 Z " fill="#012444" transform="translate(372.041259765625,415.886474609375)"/>
<path d="M0 0 C1.45951119 2.58267413 2.91764881 5.16610741 4.375 7.75 C4.7875 8.47960937 5.2 9.20921875 5.625 9.9609375 C6.02460938 10.66992188 6.42421875 11.37890625 6.8359375 12.109375 C7.20251465 12.75874023 7.5690918 13.40810547 7.94677734 14.07714844 C9.01554043 16.02837191 10.01758503 18.00410556 11 20 C10.05125 20.185625 9.1025 20.37125 8.125 20.5625 C2.68983449 22.09493003 -1.52419042 25.68376485 -6 29 C-11.54202899 33 -11.54202899 33 -15 33 C-15 33.66 -15 34.32 -15 35 C-17.90548882 37.04169485 -19.40142046 38 -23 38 C-23 38.66 -23 39.32 -23 40 C-24.65 40.66 -26.3 41.32 -28 42 C-28 42.66 -28 43.32 -28 44 C-29.38638672 44.52980469 -29.38638672 44.52980469 -30.80078125 45.0703125 C-36.26641929 47.41879673 -41.17612981 50.69720456 -46.1875 53.875 C-47.23744141 54.53250244 -48.28738281 55.19000488 -49.36914062 55.86743164 C-54.54930138 59.12457104 -59.68055334 62.43442675 -64.73828125 65.87890625 C-66.07306519 66.77923584 -66.07306519 66.77923584 -67.43481445 67.69775391 C-69.10195612 68.82843359 -70.75879591 69.97450826 -72.40307617 71.13818359 C-77.60682713 74.65851527 -80.72829425 75.55218279 -87 75 C-89.35529281 75.41731018 -89.35529281 75.41731018 -91 76 C-90.67 75.34 -90.34 74.68 -90 74 C-90 73.67 -90 73.34 -90 73 C-90.66 73 -91.32 73 -92 73 C-92.495 74.485 -92.495 74.485 -93 76 C-94.98 75.67 -96.96 75.34 -99 75 C-97.88820837 71.66462511 -96.52588702 70.36292656 -94 68 C-94.33 67.01 -94.66 66.02 -95 65 C-96.485 64.505 -96.485 64.505 -98 64 C-98.66 63.34 -99.32 62.68 -100 62 C-100.33 62.66 -100.66 63.32 -101 64 C-102.98 63.67 -104.96 63.34 -107 63 C-107.33 63.66 -107.66 64.32 -108 65 C-109.98 64.67 -111.96 64.34 -114 64 C-113.67 64.99 -113.34 65.98 -113 67 C-114.485 67.99 -114.485 67.99 -116 69 C-117.32 67.02 -118.64 65.04 -120 63 C-121.32 63.99 -122.64 64.98 -124 66 C-124.66 65.67 -125.32 65.34 -126 65 C-125.01 61.7 -124.02 58.4 -123 55 C-121.68 55.66 -120.36 56.32 -119 57 C-119 56.01 -119 55.02 -119 54 C-118.21625 53.71125 -117.4325 53.4225 -116.625 53.125 C-113.90328368 52.15087746 -113.90328368 52.15087746 -112 50 C-110.39566191 50.47859241 -108.79153584 50.95789558 -107.1875 51.4375 C-106.29417969 51.70433594 -105.40085938 51.97117187 -104.48046875 52.24609375 C-102.64526945 52.80387873 -100.81966274 53.39344575 -99 54 C-99 53.34 -99 52.68 -99 52 C-97.68 52 -96.36 52 -95 52 C-94.67 51.01 -94.34 50.02 -94 49 C-91 50 -91 50 -89 51 C-88.01 51 -87.02 51 -86 51 C-85.896875 50.38125 -85.79375 49.7625 -85.6875 49.125 C-85 47 -85 47 -82 45 C-83.3921875 44.814375 -83.3921875 44.814375 -84.8125 44.625 C-88 44 -88 44 -91 42 C-91.33 42.99 -91.66 43.98 -92 45 C-94.875 45.1875 -94.875 45.1875 -98 45 C-98.66 44.01 -99.32 43.02 -100 42 C-99.67 41.01 -99.34 40.02 -99 39 C-97.35 39.33 -95.7 39.66 -94 40 C-94 39.01 -94 38.02 -94 37 C-93.34 36.34 -92.68 35.68 -92 35 C-92 35.66 -92 36.32 -92 37 C-87.87851657 38.82660197 -87.87851657 38.82660197 -83.625 38.125 C-83.08875 37.75375 -82.5525 37.3825 -82 37 C-82.061875 36.21625 -82.12375 35.4325 -82.1875 34.625 C-82.0946875 33.325625 -82.0946875 33.325625 -82 32 C-81.01 31.34 -80.02 30.68 -79 30 C-77.7934375 28.9790625 -77.7934375 28.9790625 -76.5625 27.9375 C-74.20697011 26.15648959 -72.86285638 25.42412687 -70 25 C-70 24.01 -70 23.02 -70 22 C-69.10804932 21.54149658 -68.21609863 21.08299316 -67.29711914 20.6105957 C-63.94723878 18.88811047 -60.59835787 17.16368961 -57.24975586 15.4387207 C-55.80796509 14.69634088 -54.36591373 13.9544669 -52.92358398 13.21313477 C-51.52321171 12.49329002 -50.12328811 11.77257174 -48.72383118 11.0509491 C-47.34793491 10.34244569 -45.9704764 9.63696793 -44.59147644 8.93452454 C-41.06112928 7.12409078 -37.7283077 5.19417303 -34.3984375 3.03125 C-28.59127943 -0.24067036 -22.05801124 0.21761829 -15.5625 0.1875 C-14.28439453 0.16236328 -13.00628906 0.13722656 -11.68945312 0.11132812 C-7.79274385 0.03905212 -3.89734985 0 0 0 Z " fill="#10528D" transform="translate(234,502)"/>
<path d="M0 0 C6.19523131 4.89157929 10.46369075 11.68402292 11.84765625 19.53125 C11.94069535 21.92563869 11.97762245 24.32255952 11.97265625 26.71875 C11.97652344 28.59626953 11.97652344 28.59626953 11.98046875 30.51171875 C11.84765625 33.53125 11.84765625 33.53125 10.84765625 34.53125 C9.40475838 34.62420815 7.9573584 34.64871513 6.51147461 34.64477539 C5.13015602 34.64466209 5.13015602 34.64466209 3.72093201 34.64454651 C2.71989944 34.63938522 1.71886688 34.63422394 0.6875 34.62890625 C-0.33210312 34.6274913 -1.35170624 34.62607635 -2.40220642 34.62461853 C-5.67311482 34.61900097 -8.94395588 34.6064455 -12.21484375 34.59375 C-14.42643131 34.58873726 -16.63801993 34.58417396 -18.84960938 34.58007812 C-24.28387732 34.56902584 -29.71810572 34.55227063 -35.15234375 34.53125 C-34.86359375 35.08554687 -34.57484375 35.63984375 -34.27734375 36.2109375 C-33.90609375 36.93539062 -33.53484375 37.65984375 -33.15234375 38.40625 C-32.78109375 39.12554687 -32.40984375 39.84484375 -32.02734375 40.5859375 C-31.15234375 42.53125 -31.15234375 42.53125 -31.15234375 44.53125 C-24.46552893 47.24212087 -19.59145187 48.6387594 -12.46484375 46.34375 C-9.02441415 44.46125078 -7.32876136 42.75234806 -5.15234375 39.53125 C-1.5295806 40.8568081 1.48270973 42.47471955 4.66015625 44.65625 C5.84544922 45.46449219 5.84544922 45.46449219 7.0546875 46.2890625 C7.64636719 46.69898438 8.23804688 47.10890625 8.84765625 47.53125 C6.67882461 54.17472376 1.79354323 57.05420641 -3.92578125 60.64453125 C-12.16309837 64.57682517 -24.61201489 63.74150951 -33.15234375 61.03125 C-41.83683058 57.25653384 -47.36746246 51.35383836 -51.27734375 42.828125 C-54.58228714 34.15264859 -54.80433883 21.75823407 -51.65234375 12.96875 C-47.41862953 4.41281185 -41.6037575 -0.9027571 -32.86328125 -4.59375 C-21.55342806 -8.24419253 -9.76051362 -6.66053198 0 0 Z " fill="#012443" transform="translate(690.15234375,445.46875)"/>
<path d="M0 0 C6.31849513 5.21091251 10.88814502 12.14258546 12.33984375 20.3046875 C12.43288285 22.69907619 12.46980995 25.09599702 12.46484375 27.4921875 C12.46871094 29.36970703 12.46871094 29.36970703 12.47265625 31.28515625 C12.33984375 34.3046875 12.33984375 34.3046875 11.33984375 35.3046875 C9.89694588 35.39764565 8.4495459 35.42215263 7.00366211 35.41821289 C5.62234352 35.41809959 5.62234352 35.41809959 4.21311951 35.41798401 C3.21208694 35.41282272 2.21105438 35.40766144 1.1796875 35.40234375 C0.16008438 35.4009288 -0.85951874 35.39951385 -1.91001892 35.39805603 C-5.18092732 35.39243847 -8.45176838 35.379883 -11.72265625 35.3671875 C-13.93424381 35.36217476 -16.14583243 35.35761146 -18.35742188 35.35351562 C-23.79168982 35.34246334 -29.22591822 35.32570813 -34.66015625 35.3046875 C-34.05374639 36.59050274 -33.43879642 37.87229243 -32.8203125 39.15234375 C-32.4787915 39.86656494 -32.13727051 40.58078613 -31.78540039 41.31665039 C-29.6193576 45.14352963 -26.73842195 46.9452656 -22.66015625 48.3046875 C-16.68118176 48.89086147 -12.57229042 47.57944362 -7.66015625 44.3046875 C-5.68590756 42.23923856 -5.68590756 42.23923856 -4.66015625 40.3046875 C-1.0373931 41.6302456 1.97489723 43.24815705 5.15234375 45.4296875 C6.33763672 46.23792969 6.33763672 46.23792969 7.546875 47.0625 C8.13855469 47.47242188 8.73023438 47.88234375 9.33984375 48.3046875 C7.16396372 54.93485597 2.26900416 58.15120535 -3.69140625 61.41796875 C-12.3656001 64.93768971 -23.86621052 64.58368529 -32.66015625 61.7421875 C-42.83081716 57.33540938 -47.54277341 50.40581012 -51.66015625 40.3046875 C-54.5674065 31.88429805 -53.84788329 19.39650043 -49.98046875 11.4453125 C-44.7050736 2.89230498 -37.92394492 -2.55546851 -28.09765625 -5.0078125 C-18.17029024 -6.76774141 -8.66352141 -5.52124566 0 0 Z " fill="#032544" transform="translate(807.66015625,444.6953125)"/>
<path d="M0 0 C5.94 0 11.88 0 18 0 C18.33 10.56 18.66 21.12 19 32 C21.64 29.69 24.28 27.38 27 25 C33.15060174 22.94979942 41.39517544 22.78751753 47.58984375 24.87109375 C53.84432928 28.53254881 57.65186715 33.89289538 59.57687378 40.82220459 C60.43401738 45.23385129 60.24089823 49.70647496 60.1953125 54.18359375 C60.1924826 55.23909927 60.18965271 56.2946048 60.18673706 57.38209534 C60.17559415 60.73401504 60.15050024 64.08566184 60.125 67.4375 C60.1149626 69.71809508 60.10583808 71.99869438 60.09765625 74.27929688 C60.07567407 79.85296881 60.04118473 85.42643822 60 91 C54.06 91 48.12 91 42 91 C41.95101562 88.12152344 41.90203125 85.24304688 41.8515625 82.27734375 C41.79747474 79.47398913 41.74019792 76.67071643 41.68261719 73.86743164 C41.64445341 71.92673911 41.60957905 69.98597889 41.578125 68.04516602 C41.53219974 65.24731332 41.47425172 62.44992162 41.4140625 59.65234375 C41.40251129 58.7916478 41.39096008 57.93095184 41.37905884 57.04417419 C41.25777335 52.03689088 40.84019102 47.6878847 39 43 C34.38187125 41.46062375 29.82274505 41.47824103 25 42 C21.38308725 44.09780939 20.31708591 45.04874226 19 49 C18.88705254 50.39579273 18.82410813 51.79599909 18.79467773 53.19604492 C18.77473251 54.03668991 18.75478729 54.8773349 18.73423767 55.74345398 C18.70916893 57.09827629 18.70916893 57.09827629 18.68359375 58.48046875 C18.66281265 59.40845779 18.64203156 60.33644684 18.62062073 61.29255676 C18.55522677 64.2574624 18.49628738 67.22245672 18.4375 70.1875 C18.39430513 72.1972748 18.35069053 74.20704063 18.30664062 76.21679688 C18.19955573 81.14444032 18.09825955 86.07217299 18 91 C12.06 91 6.12 91 0 91 C0 60.97 0 30.94 0 0 Z " fill="#002342" transform="translate(897,416)"/>
<path d="M0 0 C3.82428832 4.31323843 6.14216409 8.98198276 8.625 14.125 C9.51396589 15.93440982 10.40463231 17.74298502 11.296875 19.55078125 C11.74740234 20.46424316 12.19792969 21.37770508 12.66210938 22.31884766 C14.67305621 26.34881446 16.7672946 30.3325063 18.875 34.3125 C19.47441406 35.45211182 19.47441406 35.45211182 20.0859375 36.61474609 C22.45650463 41.11453724 24.86427037 45.5920223 27.296875 50.05859375 C28.40638589 52.12232278 29.51576287 54.18612381 30.625 56.25 C31.15851074 57.21462158 31.69202148 58.17924316 32.24169922 59.1730957 C34.96512202 64.27201308 36.86629765 68.05857803 36 74 C33.38513784 78.93918408 30.02530244 82.48734878 25 85 C21.84170178 85.48177431 20.01986465 85.75771149 17 85 C14.22893918 82.67702561 12.20561883 79.84871498 10 77 C8.85402327 75.81300397 7.68763529 74.64531421 6.5 73.5 C3.37111513 70.42723863 0.50016818 67.18557964 -2.35546875 63.859375 C-3.82325682 62.19983315 -5.33851979 60.65641767 -6.9375 59.125 C-9 57 -9 57 -9 55 C-9.66 55 -10.32 55 -11 55 C-12.41015625 53.6015625 -12.41015625 53.6015625 -14.0625 51.625 C-16.76806724 48.43209456 -19.53490416 45.32386906 -22.375 42.25 C-28.10662335 35.90883866 -33.25851019 29.11223472 -38 22 C-38.5775 21.46375 -39.155 20.9275 -39.75 20.375 C-43.03562494 16.90684034 -46.00492417 13.37156322 -48 9 C-47.9166476 6.1451802 -47.23505315 4.63852264 -46 2 C-45.67 3.32 -45.34 4.64 -45 6 C-44.34 6 -43.68 6 -43 6 C-42.34 4.68 -41.68 3.36 -41 2 C-40.67 2.99 -40.34 3.98 -40 5 C-38.08333333 5.83333333 -38.08333333 5.83333333 -36 6 C-35.34 5.67 -34.68 5.34 -34 5 C-33.87625 5.804375 -33.7525 6.60875 -33.625 7.4375 C-33.41875 8.283125 -33.2125 9.12875 -33 10 C-32.34 10.33 -31.68 10.66 -31 11 C-30.67 9.68 -30.34 8.36 -30 7 C-29.01 7 -28.02 7 -27 7 C-26.896875 6.38125 -26.79375 5.7625 -26.6875 5.125 C-26 3 -26 3 -23 1 C-22.67 1.66 -22.34 2.32 -22 3 C-22.66 3 -23.32 3 -24 3 C-24 4.98 -24 6.96 -24 9 C-21.35261084 10.4606285 -20.10551666 11 -17 11 C-16.34 11.33 -15.68 11.66 -15 12 C-15 12.66 -15 13.32 -15 14 C-14.01 14.33 -13.02 14.66 -12 15 C-12.33 16.32 -12.66 17.64 -13 19 C-11.02 19 -9.04 19 -7 19 C-6.34 17.68 -5.68 16.36 -5 15 C-5.66 15 -6.32 15 -7 15 C-7.33 15.66 -7.66 16.32 -8 17 C-8.17942163 13.05272412 -8.09350689 10.4019487 -6 7 C-5.34 7 -4.68 7 -4 7 C-3.896875 6.401875 -3.79375 5.80375 -3.6875 5.1875 C-2.91123545 2.71756736 -1.92911079 1.67748765 0 0 Z " fill="#0872B9" transform="translate(295,516)"/>
<path d="M0 0 C1.8034668 0.17260742 1.8034668 0.17260742 4 1 C5.59301758 3.23950195 5.59301758 3.23950195 7.14453125 6.23828125 C8.02625 7.91458618 8.02625 7.91458618 8.92578125 9.62475586 C9.55513624 10.85377422 10.18403139 12.08302815 10.8125 13.3125 C11.4648878 14.56779329 12.11855189 15.82242402 12.7734375 17.07641602 C13.7957051 19.03404964 14.81695216 20.99213948 15.8331604 22.95292664 C18.27064577 27.64671897 20.79080607 32.28871742 23.35546875 36.9140625 C24.39950879 38.80969647 25.44256313 40.70586997 26.48544312 42.60214233 C27.15936629 43.82128548 27.83774872 45.03797471 28.5206604 46.25210571 C29.47472905 47.95117901 30.40968238 49.66094325 31.34375 51.37109375 C31.88193359 52.33974365 32.42011719 53.30839355 32.97460938 54.30639648 C34.14357437 57.37715619 33.95987242 58.90398922 33 62 C32.29319092 61.95697754 31.58638184 61.91395508 30.8581543 61.86962891 C10.87437543 60.92728607 -1.70206696 64.78335927 -18.87158203 75.12109375 C-22.79680119 77.4785533 -26.78460619 79.70775188 -30.79492188 81.91650391 C-32.50882958 82.86244668 -34.21516399 83.8222949 -35.91210938 84.79833984 C-36.66169922 85.22324707 -37.41128906 85.6481543 -38.18359375 86.0859375 C-38.82868896 86.4576709 -39.47378418 86.8294043 -40.13842773 87.21240234 C-42 88 -42 88 -46 88 C-45.62207008 81.66967389 -42.39354211 77.0073405 -39.25 71.6875 C-34.44910667 63.3935979 -29.8674983 55.03000928 -25.5 46.5 C-20.24113043 36.25954815 -14.69322458 26.21544147 -8.97265625 16.2265625 C-5.9017746 10.86094488 -2.94091266 5.43771681 0 0 Z " fill="#FAFBFB" transform="translate(199,441)"/>
<path d="M0 0 C5.94 0 11.88 0 18 0 C18.00410889 1.30670654 18.00821777 2.61341309 18.01245117 3.9597168 C18.03424804 8.81493395 18.08854402 13.66934134 18.15258789 18.52416992 C18.17576296 20.62402578 18.19016244 22.7239978 18.19555664 24.82397461 C18.20484963 27.84562525 18.24584846 30.86545017 18.29296875 33.88671875 C18.2890361 34.82335861 18.28510345 35.75999847 18.28105164 36.72502136 C18.3834073 41.31328899 18.50810397 43.3624613 21.38793945 47.0949707 C25.5270384 50.1137004 29.08192756 49.74418201 34 49 C37.93246682 47.36147216 39.39690362 45.86918859 41 42 C41.32168886 39.90436064 41.32168886 39.90436064 41.31884766 37.69042969 C41.33871735 36.84986023 41.35858704 36.00929077 41.37905884 35.14324951 C41.39638565 33.79616913 41.39638565 33.79616913 41.4140625 32.421875 C41.43342865 31.4953009 41.4527948 30.56872681 41.4727478 29.61407471 C41.53244767 26.65947629 41.57889068 23.70483871 41.625 20.75 C41.6631886 18.74477483 41.70224085 16.73956591 41.7421875 14.734375 C41.8381414 9.82304889 41.92220803 4.911646 42 0 C47.94 0 53.88 0 60 0 C60 21.78 60 43.56 60 66 C54.06 66 48.12 66 42 66 C41.505 62.535 41.505 62.535 41 59 C40.55269531 59.40992188 40.10539062 59.81984375 39.64453125 60.2421875 C39.03996094 60.78101563 38.43539062 61.31984375 37.8125 61.875 C37.22082031 62.40867187 36.62914062 62.94234375 36.01953125 63.4921875 C29.98144144 68.00031645 23.23053322 67.6915401 16 67 C9.87622123 65.34519247 5.32113178 61.35188752 2 56 C-0.54808867 50.24693009 -0.25521349 44.64344264 -0.1953125 38.4765625 C-0.1924826 37.37524994 -0.18965271 36.27393738 -0.18673706 35.13925171 C-0.17557478 31.63438892 -0.15047711 28.12978508 -0.125 24.625 C-0.11496511 22.24349328 -0.10584015 19.86198255 -0.09765625 17.48046875 C-0.07564832 11.65354661 -0.04114537 5.82681716 0 0 Z " fill="#012342" transform="translate(425,441)"/>
<path d="M0 0 C23.76 0 47.52 0 72 0 C72 5.94 72 11.88 72 18 C63.42 18 54.84 18 46 18 C46 42.09 46 66.18 46 91 C39.73 91 33.46 91 27 91 C27 66.91 27 42.82 27 18 C18.09 18 9.18 18 0 18 C0 12.06 0 6.12 0 0 Z " fill="#002443" transform="translate(695,416)"/>
<path d="M0 0 C4.06917133 2.85504245 6.03433564 4.84445419 7.66015625 9.640625 C6.03997783 10.97981306 4.41386282 12.3118219 2.78515625 13.640625 C1.88023437 14.383125 0.9753125 15.125625 0.04296875 15.890625 C-2.33984375 17.640625 -2.33984375 17.640625 -4.33984375 17.640625 C-6.02747226 15.9951872 -7.69387865 14.32773923 -9.33984375 12.640625 C-11.8175947 11.40174952 -13.57638082 11.47320831 -16.33984375 11.453125 C-17.22671875 11.43894531 -18.11359375 11.42476563 -19.02734375 11.41015625 C-21.53504359 11.41349374 -21.53504359 11.41349374 -23.33984375 13.640625 C-23.50671823 16.22416718 -23.50671823 16.22416718 -23.33984375 18.640625 C-18.55483029 20.82682806 -14.05484019 22.27893486 -8.90234375 23.453125 C-1.19984192 25.38040782 4.55024935 28.20633434 9.16015625 34.828125 C11.48794811 39.54633989 11.51239909 44.52716795 10.66015625 49.640625 C7.96105777 56.27775241 3.57713377 60.36661536 -2.953125 63.21875 C-7.41634527 64.84593928 -11.4943762 65.14135458 -16.21484375 65.078125 C-17.0027832 65.07127686 -17.79072266 65.06442871 -18.60253906 65.05737305 C-27.68575809 64.80755645 -34.9329969 62.20764302 -41.33984375 55.640625 C-42.05540223 53.99435701 -42.73092535 52.32924592 -43.33984375 50.640625 C-41.73996519 49.32290138 -40.13478409 48.01161363 -38.52734375 46.703125 C-37.63402344 45.97222656 -36.74070312 45.24132812 -35.8203125 44.48828125 C-33.33984375 42.640625 -33.33984375 42.640625 -30.33984375 41.640625 C-29.28796875 43.0328125 -29.28796875 43.0328125 -28.21484375 44.453125 C-24.67792533 48.65569941 -21.29105974 50.43523384 -15.77734375 51.015625 C-12.07040817 50.61123203 -10.14182564 50.10297272 -7.33984375 47.640625 C-6.50651042 45.140625 -6.50651042 45.140625 -7.33984375 42.640625 C-11.4519027 39.50687021 -15.7093339 38.74860684 -20.65234375 37.765625 C-28.37376954 36.06971733 -35.14423081 34.35419533 -39.77734375 27.453125 C-42.27093715 22.29820771 -43.11154894 16.79852386 -41.74609375 11.2109375 C-39.58167425 5.66927723 -36.46720876 1.69355989 -31.33984375 -1.359375 C-20.96473409 -5.89419114 -9.89239203 -5.74716599 0 0 Z " fill="#022443" transform="translate(592.33984375,443.359375)"/>
<path d="M0 0 C3.06604164 2.49561529 5.2741308 5.06431633 7.6875 8.1875 C4.51797153 11.44758643 1.28812011 14.40987877 -2.3125 17.1875 C-5.23340003 15.87813102 -7.06869462 14.43130538 -9.3125 12.1875 C-12.11407448 11.25364184 -13.96697803 11.02395405 -16.875 11 C-17.66003906 10.98582031 -18.44507813 10.97164063 -19.25390625 10.95703125 C-21.5368545 10.99582491 -21.5368545 10.99582491 -23.3125 13.1875 C-23.47937448 15.77104218 -23.47937448 15.77104218 -23.3125 18.1875 C-19.30529969 20.59182019 -15.65387529 21.58931399 -11.0625 22.5 C-3.64318674 24.13648853 3.77915853 26.8362979 8.3125 33.3125 C10.93651997 38.94789527 10.53687685 45.60456526 9.1328125 51.52734375 C6.66874772 57.64057113 1.52808472 60.58668493 -4.3125 63.1875 C-14.53778523 65.98707726 -26.99275993 65.26799547 -36.3125 60.1875 C-39.94139427 57.23902341 -41.96804661 54.17706699 -44.3125 50.1875 C-42.71262144 48.86977638 -41.10744034 47.55848863 -39.5 46.25 C-38.60667969 45.51910156 -37.71335937 44.78820312 -36.79296875 44.03515625 C-34.3125 42.1875 -34.3125 42.1875 -31.3125 41.1875 C-30.260625 42.5796875 -30.260625 42.5796875 -29.1875 44 C-25.65058158 48.20257441 -22.26371599 49.98210884 -16.75 50.5625 C-13.04306442 50.15810703 -11.11448189 49.64984772 -8.3125 47.1875 C-7.47916667 44.6875 -7.47916667 44.6875 -8.3125 42.1875 C-12.43227649 39.03989514 -16.6697059 38.33496296 -21.625 37.375 C-29.22970607 35.72331376 -34.90462777 33.83281287 -39.66796875 27.33984375 C-42.50450444 22.47029613 -43.25434712 17.73177529 -42.3125 12.1875 C-40.38211552 5.93945083 -36.64505833 1.84307732 -31.3125 -1.8125 C-21.15774219 -7.01371742 -9.69036243 -5.30227378 0 0 Z " fill="#022443" transform="translate(535.3125,443.8125)"/>
<path d="M0 0 C3.35738147 2.71954908 6.32043452 5.49145494 7.93359375 9.578125 C7.02175575 12.75361678 5.97372046 13.55389336 3.11328125 15.28125 C2.02273438 15.79171875 0.9321875 16.3021875 -0.19140625 16.828125 C-1.28710938 17.34890625 -2.3828125 17.8696875 -3.51171875 18.40625 C-4.35476563 18.79296875 -5.1978125 19.1796875 -6.06640625 19.578125 C-6.46472656 19.08441406 -6.86304688 18.59070313 -7.2734375 18.08203125 C-7.80324219 17.44136719 -8.33304688 16.80070312 -8.87890625 16.140625 C-9.40097656 15.50253906 -9.92304687 14.86445313 -10.4609375 14.20703125 C-13.39320024 11.23196175 -16.83710033 11.30727106 -20.81640625 11.140625 C-25.16454796 11.17220956 -27.7990533 11.47444852 -31.19140625 14.265625 C-34.92767491 18.17461654 -36.13725816 21.46539634 -36.37890625 26.828125 C-36.21273326 33.04922632 -35.04452976 38.60000149 -30.56640625 43.078125 C-25.58678702 46.06589654 -20.73485377 46.22367363 -15.06640625 45.578125 C-10.84884656 43.3912422 -8.4719575 40.98367625 -5.06640625 37.578125 C-0.77640625 39.888125 3.51359375 42.198125 7.93359375 44.578125 C6.64852213 51.00348312 3.94340564 53.56018862 -1.06640625 57.578125 C-10.6703652 63.07058519 -21.68283797 64.4090446 -32.4375 61.7421875 C-40.88603634 58.53497243 -47.17411331 53.5518409 -51.44140625 45.515625 C-52.00920261 44.21421564 -52.5530801 42.90196611 -53.06640625 41.578125 C-53.47890625 40.52625 -53.89140625 39.474375 -54.31640625 38.390625 C-56.45742277 27.50712436 -55.29190644 17.97596119 -49.78125 8.328125 C-44.52242562 0.59369805 -37.05591339 -3.89330899 -28.0234375 -6.015625 C-18.16924223 -7.36943783 -8.25528991 -5.68038852 0 0 Z " fill="#022444" transform="translate(881.06640625,445.421875)"/>
<path d="M0 0 C4.46549183 -0.19834763 8.92863025 -0.3431785 13.3972168 -0.43945312 C14.91557479 -0.47959307 16.43362522 -0.5341233 17.95092773 -0.60351562 C30.59156559 -1.166979 30.59156559 -1.166979 34.06494141 1.7109375 C35.35480773 3.78002899 36.19016064 5.70780372 37 8 C37.66 8.99 38.32 9.98 39 11 C39 16.23317064 36.47350223 19.72525237 33.7890625 24 C31.77702662 27.37389424 30.03305667 30.8475536 28.3125 34.375 C24.66023846 41.8446278 20.68489261 49.11168937 16.59301758 56.34912109 C16.14079834 57.15687988 15.6885791 57.96463867 15.22265625 58.796875 C14.81797119 59.51198242 14.41328613 60.22708984 13.99633789 60.96386719 C13.01403764 62.97131245 12.45353428 64.81788376 12 67 C11.34 67 10.68 67 10 67 C9.7525 67.804375 9.505 68.60875 9.25 69.4375 C8 72 8 72 5.875 72.8125 C5.25625 72.874375 4.6375 72.93625 4 73 C3.6596875 71.8553125 3.6596875 71.8553125 3.3125 70.6875 C2.2130261 67.80714341 2.2130261 67.80714341 -0.5625 66.5 C-3 65 -3 65 -3.875 62.4375 C-4 60 -4 60 -3 58 C-3.99 58 -4.98 58 -6 58 C-5.67 57.34 -5.34 56.68 -5 56 C-4.67 56 -4.34 56 -4 56 C-3.93941406 55.25234375 -3.87882813 54.5046875 -3.81640625 53.734375 C-3.73261719 52.74953125 -3.64882812 51.7646875 -3.5625 50.75 C-3.48128906 49.77546875 -3.40007812 48.8009375 -3.31640625 47.796875 C-2.78910318 43.13577628 -2.78910318 43.13577628 -2 41 C-1.01 40.34 -0.02 39.68 1 39 C0.01 38.67 -0.98 38.34 -2 38 C-3.1875 35.9375 -3.1875 35.9375 -4 34 C-4.66 34.66 -5.32 35.32 -6 36 C-7.485 36.495 -7.485 36.495 -9 37 C-8.67 37.66 -8.34 38.32 -8 39 C-6.68 38.34 -5.36 37.68 -4 37 C-4.350625 37.5775 -4.70125 38.155 -5.0625 38.75 C-6.14917407 41.35801776 -5.93065133 42.39417629 -5 45 C-5.66 45 -6.32 45 -7 45 C-6.67 45.99 -6.34 46.98 -6 48 C-6.99 48 -7.98 48 -9 48 C-9.495 46.515 -9.495 46.515 -10 45 C-9.34 44.34 -8.68 43.68 -8 43 C-9.65 42.34 -11.3 41.68 -13 41 C-12.7215625 40.071875 -12.7215625 40.071875 -12.4375 39.125 C-11.76313824 36.95839822 -11.76313824 36.95839822 -13 35 C-11 33 -11 33 -8 32 C-8.99 32 -9.98 32 -11 32 C-11.66 32 -12.32 32 -13 32 C-13.33 32.66 -13.66 33.32 -14 34 C-15 31 -15 31 -14.0625 27.9375 C-11.83399648 24.76357075 -11.36315939 24.50007386 -7.8125 23.625 C-6.554375 23.41875 -5.29625 23.2125 -4 23 C-4.66 22.34 -5.32 21.68 -6 21 C-7.67080932 16.75871481 -6.48097753 13.59111037 -5.08203125 9.4765625 C-3.63172521 6.15708946 -1.83520875 3.12327451 0 0 Z " fill="#155C9A" transform="translate(189,374)"/>
<path d="M0 0 C5.67538697 3.45616514 9.86229399 8.89380885 11.4375 15.375 C12.50662541 23.68128205 11.49488576 30.56325794 6.4375 37.375 C-0.22350791 43.73794725 -5.87967254 44.81019186 -14.9765625 44.70703125 C-20.15031366 44.22798022 -23.68295766 42.8331986 -27.5625 39.375 C-33.07389162 32.70761734 -34.98972408 27.20463655 -34.90625 18.5859375 C-34.22166271 12.19126991 -31.38141266 6.65709079 -26.5625 2.375 C-18.92970491 -2.71353006 -8.5177459 -3.90125766 0 0 Z " fill="#036FAE" transform="translate(490.5625,539.625)"/>
<path d="M0 0 C5.6555154 3.94958945 8.820843 8.64031966 10.375 15.375 C11.18255511 22.53287483 10.15123342 28.20348584 6.375 34.375 C2.07254891 39.32281875 -1.98229468 43.09265562 -8.69921875 43.61328125 C-22.21595652 43.89092235 -22.21595652 43.89092235 -27.625 39.375 C-33.95757186 32.57387462 -36.06337042 26.54918447 -35.87109375 17.30859375 C-35.28348488 10.30392292 -31.67813725 5.03110503 -26.625 0.375 C-18.85491225 -4.64318167 -7.9740753 -4.50092251 0 0 Z " fill="#046FAE" transform="translate(759.625,540.625)"/>
<path d="M0 0 C2.2341153 2.83461804 3.98581871 5.68758244 5.63671875 8.89453125 C6.12825439 9.84344238 6.61979004 10.79235352 7.1262207 11.77001953 C7.64144287 12.77403809 8.15666504 13.77805664 8.6875 14.8125 C13.04007834 23.29993827 13.04007834 23.29993827 17.6015625 31.67578125 C17.97966064 32.35342529 18.35775879 33.03106934 18.74731445 33.72924805 C19.74492132 35.5047276 20.75672427 37.27220961 21.76953125 39.0390625 C23.12488918 42.30052697 23.2473724 43.72490849 22 47 C21.01 47.495 21.01 47.495 20 48 C19.67 48.99 19.34 49.98 19 51 C18.34 51.66 17.68 52.32 17 53 C16.60235737 54.98821313 16.26224651 56.98944339 16 59 C16.66 59 17.32 59 18 59 C17.67 60.65 17.34 62.3 17 64 C14.69 64 12.38 64 10 64 C9.67 63.34 9.34 62.68 9 62 C9.33 61.01 9.66 60.02 10 59 C9.01 58.01 8.02 57.02 7 56 C6.01 56.495 6.01 56.495 5 57 C3.32345271 56.72057545 1.65391846 56.39171753 0 56 C0 55.34 0 54.68 0 54 C-0.66 53.67 -1.32 53.34 -2 53 C-1.67 51.02 -1.34 49.04 -1 47 C-1.99 47.495 -1.99 47.495 -3 48 C-3.33 48.99 -3.66 49.98 -4 51 C-4.99 51 -5.98 51 -7 51 C-7.33 52.32 -7.66 53.64 -8 55 C-9.485 54.505 -9.485 54.505 -11 54 C-11.6875 51.9375 -11.6875 51.9375 -12 50 C-14.94887974 49.89279635 -14.94887974 49.89279635 -17.5625 50.5625 C-20 51 -20 51 -22 50 C-22.37890625 48.07421875 -22.37890625 48.07421875 -22.5625 45.6875 C-22.75577719 43.30111836 -22.95627308 41.15444573 -23.609375 38.84765625 C-24 37 -24 37 -22.6875 34.75 C-22.130625 34.1725 -21.57375 33.595 -21 33 C-20.34 33 -19.68 33 -19 33 C-19 32.01 -19 31.02 -19 30 C-18.34 29.34 -17.68 28.68 -17 28 C-17.66 27.01 -18.32 26.02 -19 25 C-19.99 25.66 -20.98 26.32 -22 27 C-24.6875 26.625 -24.6875 26.625 -27 26 C-27 25.01 -27 24.02 -27 23 C-26.34 23 -25.68 23 -25 23 C-25 22.34 -25 21.68 -25 21 C-23 19.375 -23 19.375 -21 18 C-20.67 18.66 -20.34 19.32 -20 20 C-20.33 20.66 -20.66 21.32 -21 22 C-16.12128699 21.34137666 -16.12128699 21.34137666 -11.3125 20.3125 C-8.53819536 19.93759397 -7.3326456 20.53129721 -5 22 C-4.67 21.34 -4.34 20.68 -4 20 C-3.34 19.67 -2.68 19.34 -2 19 C0.31 21.97 2.62 24.94 5 28 C6.65 27.67 8.3 27.34 10 27 C8.99206168 19.8184395 6.29346235 14.36514093 2.74414062 8.14233398 C0 3.28407218 0 3.28407218 0 0 Z " fill="#047FCA" transform="translate(272,472)"/>
<path d="M0 0 C6.27 0 12.54 0 19 0 C19 21.78 19 43.56 19 66 C12.73 66 6.46 66 0 66 C0 44.22 0 22.44 0 0 Z " fill="#002747" transform="translate(610,441)"/>
<path d="M0 0 C3.99039165 5.02491001 6.67761117 10.7647418 9.625 16.4375 C10.223125 17.56994141 10.82125 18.70238281 11.4375 19.86914062 C12.00726563 20.96291016 12.57703125 22.05667969 13.1640625 23.18359375 C13.68436035 24.17931396 14.2046582 25.17503418 14.74072266 26.20092773 C15.93405691 28.85342428 16.50145894 31.15218192 17 34 C17.433125 34.928125 17.86625 35.85625 18.3125 36.8125 C19.31400137 41.45582452 17.36169399 44.07268865 15 48 C14.505 48.99 14.505 48.99 14 50 C13.01 49.01 12.02 48.02 11 47 C11 47.99 11 48.98 11 50 C9.515 50.495 9.515 50.495 8 51 C7.67 50.34 7.34 49.68 7 49 C6.01 49 5.02 49 4 49 C3.67 49.99 3.34 50.98 3 52 C2.38125 51.814375 1.7625 51.62875 1.125 51.4375 C-1.04160178 50.76313824 -1.04160178 50.76313824 -3 52 C-3 51.01 -3 50.02 -3 49 C-4.32 49.99 -5.64 50.98 -7 52 C-7.350625 51.38125 -7.70125 50.7625 -8.0625 50.125 C-10.68887702 47.24445747 -13.26627537 46.84537162 -17 46 C-17 45.34 -17 44.68 -17 44 C-17.66 43.67 -18.32 43.34 -19 43 C-19 42.01 -19 41.02 -19 40 C-19.99 40.495 -19.99 40.495 -21 41 C-19.4655675 35.63801087 -16.99479942 31.12210607 -14.25 26.3125 C-13.34737922 24.7097914 -12.44503472 23.10692718 -11.54296875 21.50390625 C-11.10645996 20.73191895 -10.66995117 19.95993164 -10.22021484 19.16455078 C-6.6635868 12.85541428 -3.16883629 6.51371904 0 0 Z " fill="#0990DD" transform="translate(228,387)"/>
<path d="M0 0 C8 0 8 0 10.06640625 1.56958008 C10.56011719 2.29556396 11.05382812 3.02154785 11.5625 3.76953125 C12.13226562 4.57712891 12.70203125 5.38472656 13.2890625 6.21679688 C14.13597656 7.50166992 14.13597656 7.50166992 15 8.8125 C15.56460938 9.62654297 16.12921875 10.44058594 16.7109375 11.27929688 C18.48838448 13.84292232 20.24390648 16.42170041 22 19 C24.64 22.63 27.28 26.26 30 30 C30.33 20.43 30.66 10.86 31 1 C33.64 1 36.28 1 39 1 C39 15.52 39 30.04 39 45 C31 45 31 45 29.14892578 43.75341797 C28.7517334 43.17221191 28.35454102 42.59100586 27.9453125 41.9921875 C27.4802832 41.34121094 27.01525391 40.69023438 26.53613281 40.01953125 C26.07045898 39.31183594 25.60478516 38.60414063 25.125 37.875 C24.62323242 37.15957031 24.12146484 36.44414063 23.60449219 35.70703125 C22.56630649 34.2233481 21.53901308 32.73198677 20.52246094 31.23339844 C18.63259305 28.4610265 16.67474142 25.74169121 14.70751953 23.02392578 C12.78942473 20.3604407 10.89720406 17.67840573 9 15 C8.67 24.9 8.34 34.8 8 45 C5.36 45 2.72 45 0 45 C0 30.15 0 15.3 0 0 Z " fill="#026DAD" transform="translate(793,538)"/>
<path d="M0 0 C1.13199353 0.9080162 2.25532363 1.82683826 3.375 2.75 C4.00148438 3.26046875 4.62796875 3.7709375 5.2734375 4.296875 C7.08312318 6.08199481 8.00117455 7.67949644 9 10 C9.66 10 10.32 10 11 10 C12.45629883 11.4621582 12.45629883 11.4621582 14.14453125 13.48828125 C18.47607812 18.58270092 23.05570524 23.41485597 27.65820312 28.26367188 C28.29048828 28.93333984 28.92277344 29.60300781 29.57421875 30.29296875 C30.13713623 30.8861792 30.70005371 31.47938965 31.2800293 32.09057617 C33.28115742 34.31212664 35.13219312 36.6652414 37 39 C17.53 39 -1.94 39 -22 39 C-22 38.01 -22 37.02 -22 36 C-22.66 35.67 -23.32 35.34 -24 35 C-23.34 35 -22.68 35 -22 35 C-21.67 34.34 -21.34 33.68 -21 33 C-20.34 33 -19.68 33 -19 33 C-18.34 33.66 -17.68 34.32 -17 35 C-14.05868357 35.3200922 -14.05868357 35.3200922 -12.5 33.75 C-12.005 33.1725 -11.51 32.595 -11 32 C-10.4225 31.34 -9.845 30.68 -9.25 30 C-8.8375 29.34 -8.425 28.68 -8 28 C-8.7763932 24.9254644 -8.7763932 24.9254644 -11 23 C-9.97407374 19.92222122 -9.24530756 19.15549526 -7 17 C-6.34 16.01 -5.68 15.02 -5 14 C-4.34 14.33 -3.68 14.66 -3 15 C-2.34 14.34 -1.68 13.68 -1 13 C-0.34 12.34 0.32 11.68 1 11 C1 10.34 1 9.68 1 9 C1.99 8.67 2.98 8.34 4 8 C3.25621612 5.02329237 3.25621612 5.02329237 1.4375 3.4375 C0.963125 2.963125 0.48875 2.48875 0 2 C0 1.34 0 0.68 0 0 Z " fill="#1A93DC" transform="translate(275,561)"/>
<path d="M0 0 C0.66 0.33 1.32 0.66 2 1 C2 1.99 2 2.98 2 4 C3.32 4.66 4.64 5.32 6 6 C5.79375 6.928125 5.5875 7.85625 5.375 8.8125 C4.63307034 12.15173402 4.63307034 12.15173402 7 15 C6.67 15.66 6.34 16.32 6 17 C6.66 17 7.32 17 8 17 C8 18.98 8 20.96 8 23 C7.01 23.495 7.01 23.495 6 24 C4.86649466 26.01669827 4.86649466 26.01669827 4 28 C3.34 28 2.68 28 2 28 C1.67 28.66 1.34 29.32 1 30 C0.05125 29.938125 -0.8975 29.87625 -1.875 29.8125 C-3.421875 29.9053125 -3.421875 29.9053125 -5 30 C-5.66 30.99 -6.32 31.98 -7 33 C-10.465 32.505 -10.465 32.505 -14 32 C-14.99 34.475 -14.99 34.475 -16 37 C-16.66 37 -17.32 37 -18 37 C-17.5359375 38.36125 -17.5359375 38.36125 -17.0625 39.75 C-16.2727737 42.16563338 -15.57050703 44.52780285 -15 47 C-19.20582857 45.43021891 -21.6045649 42.30340899 -24.375 38.9375 C-25.09973511 38.06992065 -25.09973511 38.06992065 -25.83911133 37.18481445 C-29.56249242 32.66986318 -32.94161731 27.99406793 -36 23 C-35.67 22.34 -35.34 21.68 -35 21 C-32.4375 20.375 -32.4375 20.375 -30 20 C-30 19.34 -30 18.68 -30 18 C-24.25 15 -24.25 15 -22 15 C-22 14.34 -22 13.68 -22 13 C-21.46632812 12.72027344 -20.93265625 12.44054687 -20.3828125 12.15234375 C-15.02160163 9.26767839 -10.08056423 6.04295166 -5.1640625 2.453125 C-3 1 -3 1 0 0 Z " fill="#0B74B8" transform="translate(241,522)"/>
<path d="M0 0 C2.97 0 5.94 0 9 0 C9.01401855 1.41478638 9.01401855 1.41478638 9.02832031 2.8581543 C9.0724431 6.37175542 9.13410205 9.88415253 9.20751953 13.3972168 C9.2356717 14.91500685 9.2569149 16.43294193 9.27099609 17.95092773 C9.29250723 20.13861021 9.33919228 22.32455965 9.390625 24.51171875 C9.41157227 25.82615967 9.43251953 27.14060059 9.45410156 28.49487305 C10.07748278 32.49750457 11.17019791 34.15993541 14 37 C17.55006768 38.77503384 21.46424654 38.38393837 25.25 37.4375 C28.94219097 34.40462885 29.85627608 30.3737699 30.33447266 25.80297852 C30.51841581 22.05494668 30.62121152 18.31442814 30.6875 14.5625 C30.72166016 13.25861328 30.75582031 11.95472656 30.79101562 10.61132812 C30.87316153 7.40763802 30.9424241 4.20421021 31 1 C33.64 1 36.28 1 39 1 C39.09985537 5.10751239 39.17192603 9.21454209 39.21972656 13.32299805 C39.23967995 14.71667814 39.26685319 16.1102763 39.30175781 17.50366211 C39.49903634 25.58918052 39.66186205 33.03180777 35 40 C30.30614101 44.57651252 26.2783975 46.30600384 19.75 46.4375 C13.64477089 46.32101415 9.33841878 45.45596214 5 41 C0.94519263 35.01263824 -0.12903876 29.42083746 -0.09765625 22.265625 C-0.09443359 20.97011719 -0.09121094 19.67460938 -0.08789062 18.33984375 C-0.07953598 16.97656183 -0.07107104 15.61328058 -0.0625 14.25 C-0.05748168 12.87109535 -0.05291935 11.49218896 -0.04882812 10.11328125 C-0.03704093 6.74214341 -0.02058635 3.37109372 0 0 Z " fill="#0271B0" transform="translate(574,538)"/>
<path d="M0 0 C3.83963084 1.90333632 6.40612896 4.36848214 8.34765625 8.28515625 C10.05977323 13.61399372 9.9456404 19.17089223 7.4453125 24.21484375 C4.22529276 28.34307419 1.2276629 30.79178411 -4.01171875 31.68359375 C-8.73334672 31.90026501 -12.08433562 30.9154734 -15.9921875 28.33984375 C-20.87326483 22.93108239 -21.3465841 19.48157243 -21.26953125 12.32421875 C-20.76566839 6.90237055 -18.23501194 4.43815372 -14.3046875 0.96484375 C-9.45804911 -1.41275244 -5.15776301 -1.70914108 0 0 Z " fill="#F9FBFB" transform="translate(752.9921875,545.66015625)"/>
<path d="M0 0 C4.79176632 2.59426839 7.32332299 5.13403146 9.02734375 10.24609375 C9.53710994 15.56938985 9.69786973 19.90504179 7.27734375 24.74609375 C3.26101745 29.20867853 0.36442746 31.05133677 -5.72265625 31.55859375 C-10.28960132 31.47464255 -13.49815907 30.2104116 -16.97265625 27.24609375 C-20.73809964 22.41860223 -21.57031276 18.70169846 -21.29296875 12.609375 C-20.65177108 7.87858733 -18.9328554 5.13427797 -15.47265625 1.93359375 C-10.80034472 -1.22021653 -5.30719369 -2.02829382 0 0 Z " fill="#F9FBFC" transform="translate(484.97265625,545.75390625)"/>
<path d="M0 0 C1.32 0 2.64 0 4 0 C4.3815625 1.01964844 4.763125 2.03929687 5.15625 3.08984375 C6.93425206 7.2374718 9.48654185 10.24929468 12.5 13.5625 C21 22.97562997 21 22.97562997 21 28 C22.32 28.66 23.64 29.32 25 30 C24.505 31.485 24.505 31.485 24 33 C23.01 33 22.02 33 21 33 C21.33 33.99 21.66 34.98 22 36 C20.35 37.32 18.7 38.64 17 40 C16.01 39.505 16.01 39.505 15 39 C14.54625 39.825 14.0925 40.65 13.625 41.5 C13.08875 42.325 12.5525 43.15 12 44 C11.34 44 10.68 44 10 44 C10.53091974 46.38913883 11.1467716 48.29354319 12.25 50.5 C12.4975 51.325 12.745 52.15 13 53 C11.75 55.125 11.75 55.125 10 57 C9.34 57.99 8.68 58.98 8 60 C7.67 60 7.34 60 7 60 C6.195625 60.20625 5.39125 60.4125 4.5625 60.625 C3.716875 60.74875 2.87125 60.8725 2 61 C1.34 60.34 0.68 59.68 0 59 C-0.99 59.495 -0.99 59.495 -2 60 C-2 60.99 -2 61.98 -2 63 C-1.45349792 62.83544815 -0.90699585 62.6708963 -0.34393311 62.50135803 C2.35180919 61.9247494 4.74607426 61.92136392 7.50292969 61.97827148 C8.60376892 61.99836777 9.70460815 62.01846405 10.83880615 62.03916931 C12.61242523 62.07972191 12.61242523 62.07972191 14.421875 62.12109375 C15.63699768 62.14470474 16.85212036 62.16831573 18.10406494 62.19264221 C21.98616351 62.2692318 25.86806026 62.35327693 29.75 62.4375 C32.38150053 62.49072536 35.01301092 62.54346573 37.64453125 62.59570312 C44.09647912 62.72484068 50.54827701 62.86010026 57 63 C57 63.33 57 63.66 57 64 C48.94170631 64.25587159 40.88513214 64.45080189 32.82376957 64.56993389 C29.07953135 64.62714081 25.33808815 64.70458731 21.59545898 64.82983398 C17.97715197 64.95015008 14.36151563 65.0152786 10.74136162 65.04364967 C9.3667845 65.06383968 7.9923397 65.1032746 6.61891365 65.16303062 C0.56176221 65.4158733 -4.11841674 65.60497444 -8.8742981 61.54824829 C-11.63978623 58.2128954 -14.06028259 54.87943482 -16 51 C-15.34 51 -14.68 51 -14 51 C-14.20625 50.21625 -14.4125 49.4325 -14.625 48.625 C-14.74875 47.75875 -14.8725 46.8925 -15 46 C-14.34 45.34 -13.68 44.68 -13 44 C-13 45.32 -13 46.64 -13 48 C-12.67 47.34 -12.34 46.68 -12 46 C-10.02 46.33 -8.04 46.66 -6 47 C-5.67 46.01 -5.34 45.02 -5 44 C-1.60977608 40.02859484 1.04038422 38.46534102 6 37 C6.33 36.34 6.66 35.68 7 35 C10.875 36.875 10.875 36.875 12 38 C11.938125 36.88625 11.87625 35.7725 11.8125 34.625 C11.9053125 32.830625 11.9053125 32.830625 12 31 C12.99 30.34 13.98 29.68 15 29 C15.41666667 26.5 15.41666667 26.5 15 24 C14.34 23.34 13.68 22.68 13 22 C13.99 21.34 14.98 20.68 16 20 C12.38026598 18.68373308 9.90432869 18 6 18 C5.67 19.65 5.34 21.3 5 23 C4.67 23 4.34 23 4 23 C3.33588391 18.51721639 2.97551475 14.344621 3.125 9.8125 C3.18811556 5.71630016 2.63319084 3.29148856 0 0 Z " fill="#108AD4" transform="translate(255,537)"/>
<path d="M0 0 C2.73077478 1.43040584 4.43553022 2.60542879 5.63671875 5.48828125 C5.65734375 6.06578125 5.67796875 6.64328125 5.69921875 7.23828125 C4.04921875 8.22828125 2.39921875 9.21828125 0.69921875 10.23828125 C0.03921875 9.74328125 -0.62078125 9.24828125 -1.30078125 8.73828125 C-5.37478544 6.70127915 -7.76801469 6.79962642 -12.30078125 7.23828125 C-14.47578772 8.24316351 -14.47578772 8.24316351 -15.30078125 10.23828125 C-15.50378948 12.75213429 -15.50378948 12.75213429 -14.30078125 15.23828125 C-11.66117506 16.49179287 -9.31937749 17.39990352 -6.55078125 18.23828125 C-0.9363679 19.97511416 2.88401716 21.47656018 6.69921875 26.23828125 C8.39240866 30.38985267 7.82297205 33.84096802 6.51171875 38.05078125 C4.1093361 42.27566107 2.2502945 43.721256 -2.30078125 45.23828125 C-9.69049622 45.94591469 -15.65645598 45.9793766 -21.91015625 41.72265625 C-23.56746979 39.95361371 -23.91666516 38.60362767 -24.30078125 36.23828125 C-22.98078125 35.24828125 -21.66078125 34.25828125 -20.30078125 33.23828125 C-16.30078125 35.23828125 -16.30078125 35.23828125 -14.55078125 36.36328125 C-11.02439146 37.73465506 -8.07994356 37.47822806 -4.30078125 37.23828125 C-3.31078125 36.57828125 -2.32078125 35.91828125 -1.30078125 35.23828125 C-1.05047148 32.65447948 -1.05047148 32.65447948 -1.30078125 30.23828125 C-2.63266196 29.63091898 -3.96639075 29.0276094 -5.30078125 28.42578125 C-6.120625 28.05582031 -6.94046875 27.68585937 -7.78515625 27.3046875 C-10.02174548 26.35656815 -12.23910732 25.60001702 -14.55078125 24.86328125 C-18.78330067 23.27185395 -20.96158162 21.18568063 -23.30078125 17.23828125 C-24.25918616 12.50562691 -23.77003966 9.17679806 -21.61328125 4.86328125 C-15.88638675 -1.63751791 -8.14701107 -2.69722777 0 0 Z " fill="#036EAD" transform="translate(878.30078125,538.76171875)"/>
<path d="M0 0 C3.77260108 1.47153082 5.74673253 3.6200988 8 7 C6.35 8.32 4.7 9.64 3 11 C2.34 10.505 1.68 10.01 1 9.5 C-3.07400419 7.4629979 -5.46723344 7.56134517 -10 8 C-12.17500647 9.00488226 -12.17500647 9.00488226 -13 11 C-12.99867236 13.5343362 -12.99867236 13.5343362 -12 16 C-9.68304009 17.3749241 -9.68304009 17.3749241 -6.8125 18.125 C-5.81734375 18.44855469 -4.8221875 18.77210938 -3.796875 19.10546875 C-2.87390625 19.40066406 -1.9509375 19.69585938 -1 20 C3.60519607 21.92580927 6.54511537 23.56232394 9 28 C9.7402381 32.13703163 9.98311313 36.09983273 8.01171875 39.91015625 C4.99142723 43.71591058 2.05171425 45.74793225 -2.734375 46.3359375 C-9.19766738 46.4196589 -14.8177585 46.24618217 -20 42 C-21.5 39.25 -21.5 39.25 -22 37 C-20.68 36.01 -19.36 35.02 -18 34 C-14 36 -14 36 -12.25 37.125 C-8.72361021 38.49637381 -5.77916231 38.23994681 -2 38 C-1.01 37.34 -0.02 36.68 1 36 C1.25030977 33.41619823 1.25030977 33.41619823 1 31 C0.45472656 30.75765625 -0.09054687 30.5153125 -0.65234375 30.265625 C-2.24163034 29.5592754 -3.82871874 28.84796757 -5.4140625 28.1328125 C-7.08050528 27.4027998 -8.76259904 26.70706513 -10.4609375 26.0546875 C-15.63094377 24.01073153 -18.64472364 22.32497264 -21 17 C-21.8430763 12.56275629 -21.37003787 9.72637064 -19.3125 5.6875 C-13.83130578 -0.68253653 -7.99882318 -0.99579395 0 0 Z " fill="#046EAE" transform="translate(425,538)"/>
<path d="M0 0 C2 1 2 1 3.0625 3.9375 C3.5265625 5.4534375 3.5265625 5.4534375 4 7 C4.33 7.66 4.66 8.32 5 9 C5.70125 8.773125 6.4025 8.54625 7.125 8.3125 C10.87700275 7.90467361 12.79431057 9.13622707 16 11 C15.67 11.66 15.34 12.32 15 13 C15.495 13.495 15.495 13.495 16 14 C16.25 17.4375 16.25 17.4375 16 21 C15.01 21.66 14.02 22.32 13 23 C12.26656572 26.06556598 12.26656572 26.06556598 12 29 C10 28 10 28 7 26 C6.79375 26.61875 6.5875 27.2375 6.375 27.875 C4.44444875 30.8585792 2.34938072 31.09287605 -1 32 C-1.99 32.495 -1.99 32.495 -3 33 C-3.33 33.99 -3.66 34.98 -4 36 C-5.31647119 36.69937532 -6.65022151 37.36729133 -8 38 C-8.33 38.66 -8.66 39.32 -9 40 C-9 39.01 -9 38.02 -9 37 C-10.32 37.66 -11.64 38.32 -13 39 C-13.33 38.67 -13.66 38.34 -14 38 C-14 39.32 -14 40.64 -14 42 C-15.875 41.375 -15.875 41.375 -18 40 C-19.25 36.875 -19.25 36.875 -20 34 C-18.68 32.68 -17.36 31.36 -16 30 C-16.66 28.68 -17.32 27.36 -18 26 C-17.01 25.67 -16.02 25.34 -15 25 C-13.02756333 22.24250892 -13.02756333 22.24250892 -12.125 19.9375 C-10.73942786 17.55123687 -9.51885313 17.02328408 -7 16 C-6.34 15.67 -5.68 15.34 -5 15 C-5.33 12.69 -5.66 10.38 -6 8 C-4.68 8.33 -3.36 8.66 -2 9 C-1.7763932 6.0745356 -1.7763932 6.0745356 -3 4 C-1 1 -1 1 0 0 Z " fill="#0782CA" transform="translate(255,546)"/>
<path d="M0 0 C11.88 0 23.76 0 36 0 C36 2.31 36 4.62 36 7 C31.38 7 26.76 7 22 7 C22 19.21 22 31.42 22 44 C19.36 44 16.72 44 14 44 C14 31.79 14 19.58 14 7 C9.38 7 4.76 7 0 7 C0 4.69 0 2.38 0 0 Z " fill="#006AAA" transform="translate(634,539)"/>
<path d="M0 0 C2.64 0 5.28 0 8 0 C8 12.21 8 24.42 8 37 C14.6 37 21.2 37 28 37 C28 39.31 28 41.62 28 44 C18.76 44 9.52 44 0 44 C0 29.48 0 14.96 0 0 Z " fill="#006BAC" transform="translate(526,539)"/>
<path d="M0 0 C3.47485838 2.07012839 5.74352278 4.11634312 7 8 C7.36258891 11.40833571 7.20191108 13.51765687 5.875 16.6875 C2.85915394 20.40704347 -0.30917116 21.75342079 -5 22.4375 C-8.91682344 21.86629658 -10.9829928 20.53702878 -14 18 C-15.92693706 14.90014474 -16.00600905 13.16825346 -15.875 9.5 C-14.92080906 5.68323625 -13.71834365 3.8007177 -11 1 C-7.53749757 -0.73125121 -3.78591771 -0.47815224 0 0 Z " fill="#042443" transform="translate(624,411)"/>
<path d="M0 0 C2 1 2 1 3.14501953 3.83569336 C3.55349121 5.07456299 3.96196289 6.31343262 4.3828125 7.58984375 C4.60194305 8.2495668 4.82107361 8.90928986 5.04684448 9.58900452 C5.50920133 10.98582745 5.96793656 12.38385355 6.42333984 13.78295898 C7.12181386 15.92771653 7.83137753 18.06854754 8.54296875 20.20898438 C12 30.68896648 12 30.68896648 12 33 C4.74 33 -2.52 33 -10 33 C-7.9678346 25.3653109 -5.73760384 17.83082818 -3.3125 10.3125 C-2.99216797 9.31283203 -2.67183594 8.31316406 -2.34179688 7.28320312 C-1.5633079 4.85478228 -0.78268758 2.42707018 0 0 Z " fill="#F8F9FA" transform="translate(379,440)"/>
<path d="M0 0 C6.27 0 12.54 0 19 0 C19 21.78 19 43.56 19 66 C12.73 66 6.46 66 0 66 C0 44.22 0 22.44 0 0 Z M2 1 C2 21.79 2 42.58 2 64 C6.95 64 11.9 64 17 64 C17 43.21 17 22.42 17 1 C12.05 1 7.1 1 2 1 Z " fill="#192D49" transform="translate(610,441)"/>
<path d="M0 0 C2.31 0 4.62 0 7 0 C7 14.52 7 29.04 7 44 C4.69 44 2.38 44 0 44 C0 29.48 0 14.96 0 0 Z " fill="#006BAC" transform="translate(693,539)"/>
<path d="M0 0 C1.94326172 0.07734375 1.94326172 0.07734375 3.92578125 0.15625 C5.28907357 0.22112188 6.65235472 0.28622903 8.015625 0.3515625 C9.39449002 0.40983808 10.77339653 0.46714058 12.15234375 0.5234375 C15.52396872 0.66490428 18.89484866 0.81632078 22.265625 0.9765625 C20.453125 2.9765625 20.453125 2.9765625 18.265625 4.9765625 C17.275625 4.9765625 16.285625 4.9765625 15.265625 4.9765625 C16.255625 6.4615625 16.255625 6.4615625 17.265625 7.9765625 C17.595625 7.3165625 17.925625 6.6565625 18.265625 5.9765625 C19.255625 5.6465625 20.245625 5.3165625 21.265625 4.9765625 C19.7060985 8.80449118 17.42930664 11.34016114 14.265625 13.9765625 C12.015625 13.9140625 12.015625 13.9140625 10.265625 12.9765625 C9.935625 12.3165625 9.605625 11.6565625 9.265625 10.9765625 C8.894375 11.4509375 8.523125 11.9253125 8.140625 12.4140625 C5.59438845 14.53592629 3.52927494 14.70459167 0.265625 14.9765625 C-0.724375 14.6465625 -1.714375 14.3165625 -2.734375 13.9765625 C-3.064375 12.3265625 -3.394375 10.6765625 -3.734375 8.9765625 C-2.744375 8.6465625 -1.754375 8.3165625 -0.734375 7.9765625 C-0.734375 6.6565625 -0.734375 5.3365625 -0.734375 3.9765625 C-4.25819187 6.52260847 -4.25819187 6.52260847 -6.734375 9.9765625 C-7.394375 9.9765625 -8.054375 9.9765625 -8.734375 9.9765625 C-9.064375 10.6365625 -9.394375 11.2965625 -9.734375 11.9765625 C-10.064375 11.3165625 -10.394375 10.6565625 -10.734375 9.9765625 C-11.394375 9.9765625 -12.054375 9.9765625 -12.734375 9.9765625 C-12.734375 8.9865625 -12.734375 7.9965625 -12.734375 6.9765625 C-12.074375 6.9765625 -11.414375 6.9765625 -10.734375 6.9765625 C-10.734375 5.3265625 -10.734375 3.6765625 -10.734375 1.9765625 C-7.11135087 -0.32115627 -4.22137254 -0.18514792 0 0 Z M-0.734375 10.9765625 C0.265625 12.9765625 0.265625 12.9765625 0.265625 12.9765625 Z " fill="#18609E" transform="translate(210.734375,503.0234375)"/>
<path d="M0 0 C3.80670035 1.33925978 6.44510109 3.2840014 8.9375 6.5 C10 9 10 9 10 13 C0.43 13 -9.14 13 -19 13 C-16.84256209 5.44896733 -16.69027681 5.03061274 -11 1 C-7.51706314 -0.74146843 -3.80805141 -0.44873928 0 0 Z " fill="#F9FAFA" transform="translate(674,454)"/>
<path d="M0 0 C4.12118752 1.37898244 6.58678614 3.34685552 8.9375 7.0625 C10 10 10 10 10 13 C0.43 13 -9.14 13 -19 13 C-16.84256209 5.44896733 -16.69027681 5.03061274 -11 1 C-7.51453824 -0.74273088 -3.8107704 -0.44282275 0 0 Z " fill="#F9FAFA" transform="translate(792,454)"/>
<path d="M0 0 C5.27002208 4.39168507 10.35302051 8.9426379 15 14 C15 14.33 15 14.66 15 15 C3.78 15 -7.44 15 -19 15 C-16.97079115 12.97079115 -15.10023633 11.7474792 -12.625 10.3125 C-11.85414063 9.85488281 -11.08328125 9.39726563 -10.2890625 8.92578125 C-7.67418334 7.86822773 -6.59444399 8.02264096 -4 9 C-3.67 7.68 -3.34 6.36 -3 5 C-2.34 5 -1.68 5 -1 5 C-0.67 3.35 -0.34 1.7 0 0 Z " fill="#2CA2E8" transform="translate(297,585)"/>
<path d="M0 0 C0.33 0.66 0.66 1.32 1 2 C0 4.33333333 -1 6.66666667 -2 9 C-1.67 9.66 -1.34 10.32 -1 11 C-0.9603287 12.66619446 -0.95615553 14.33391013 -1 16 C-1.66 16.33 -2.32 16.66 -3 17 C-3.99 16.34 -4.98 15.68 -6 15 C-7.65 18.63 -9.3 22.26 -11 26 C-9.68 26.99 -8.36 27.98 -7 29 C-7.495 31.475 -7.495 31.475 -8 34 C-9.98 33.34 -11.96 32.68 -14 32 C-14.33 32.99 -14.66 33.98 -15 35 C-16 36 -17 37 -18 38 C-18.33 38.99 -18.66 39.98 -19 41 C-19.66 41 -20.32 41 -21 41 C-19.71477728 36.87295624 -18.16758082 33.12878578 -16.171875 29.296875 C-15.61886719 28.23339844 -15.06585938 27.16992188 -14.49609375 26.07421875 C-13.91988281 24.97722656 -13.34367187 23.88023437 -12.75 22.75 C-12.18925781 21.66847656 -11.62851563 20.58695313 -11.05078125 19.47265625 C-7.58602971 12.83921738 -3.93524056 6.36572519 0 0 Z " fill="#0B3E77" transform="translate(111,522)"/>
<path d="M0 0 C4.46549183 -0.19834763 8.92863025 -0.3431785 13.3972168 -0.43945312 C14.91557479 -0.47959307 16.43362522 -0.5341233 17.95092773 -0.60351562 C30.54039447 -1.16469802 30.54039447 -1.16469802 34.10009766 1.67578125 C36.20715355 4.94516772 37.12566186 8.23817733 38 12 C37.01 12 36.02 12 35 12 C34.01 9.03 33.02 6.06 32 3 C31.175 3.01160156 30.35 3.02320313 29.5 3.03515625 C20.28689565 3.10713363 11.18497363 2.66799808 2 2 C2 2.66 2 3.32 2 4 C2.66 4.33 3.32 4.66 4 5 C3.01 5.33 2.02 5.66 1 6 C0.67 5.34 0.34 4.68 0 4 C-1.32 6.31 -2.64 8.62 -4 11 C-4.33 10.34 -4.66 9.68 -5 9 C-4.00390625 6.8359375 -4.00390625 6.8359375 -2.5625 4.375 C-2.08941406 3.55773437 -1.61632812 2.74046875 -1.12890625 1.8984375 C-0.75636719 1.27195312 -0.38382813 0.64546875 0 0 Z " fill="#0A5092" transform="translate(189,374)"/>
<path d="M0 0 C0.83272934 0.00222061 1.66545868 0.00444122 2.52342224 0.00672913 C3.46432205 0.00680466 4.40522186 0.00688019 5.37463379 0.00695801 C6.39754013 0.01211929 7.42044647 0.01728058 8.47434998 0.02259827 C9.51614914 0.02401321 10.5579483 0.02542816 11.63131714 0.02688599 C14.97355467 0.03250372 18.31572629 0.04505922 21.65794373 0.05775452 C23.91770839 0.06276723 26.17747409 0.06733053 28.4372406 0.07142639 C33.98999763 0.08247891 39.54271597 0.09923428 45.09544373 0.12025452 C45.09544373 0.78025452 45.09544373 1.44025452 45.09544373 2.12025452 C29.91544373 2.12025452 14.73544373 2.12025452 -0.90455627 2.12025452 C-1.23455627 3.11025452 -1.56455627 4.10025452 -1.90455627 5.12025452 C-2.46705627 3.18275452 -2.46705627 3.18275452 -2.90455627 1.12025452 C-1.90455627 0.12025452 -1.90455627 0.12025452 0 0 Z " fill="#20304C" transform="translate(655.9045562744141,477.87974548339844)"/>
<path d="M0 0 C1.08667969 0.20367188 2.17335937 0.40734375 3.29296875 0.6171875 C4.12441406 0.78476562 4.95585937 0.95234375 5.8125 1.125 C4.4375 3.125 4.4375 3.125 2.8125 5.125 C2.1525 5.125 1.4925 5.125 0.8125 5.125 C0.4825 5.785 0.1525 6.445 -0.1875 7.125 C-2.22301214 9.43808198 -3.16356934 10.11702311 -6.1875 11.125 C-6.8475 10.795 -7.5075 10.465 -8.1875 10.125 C-7.8575 8.475 -7.5275 6.825 -7.1875 5.125 C-8.5075 5.455 -9.8275 5.785 -11.1875 6.125 C-11.8475 5.135 -12.5075 4.145 -13.1875 3.125 C-12.2903125 2.691875 -12.2903125 2.691875 -11.375 2.25 C-5.0859375 -0.984375 -5.0859375 -0.984375 0 0 Z M-5.1875 1.125 C-5.1875 2.115 -5.1875 3.105 -5.1875 4.125 C-4.5275 3.795 -3.8675 3.465 -3.1875 3.125 C-3.1875 2.465 -3.1875 1.805 -3.1875 1.125 C-3.8475 1.125 -4.5075 1.125 -5.1875 1.125 Z " fill="#155B98" transform="translate(202.1875,516.875)"/>
<path d="M0 0 C2.97 0 5.94 0 9 0 C9 0.66 9 1.32 9 2 C6.69 2 4.38 2 2 2 C2.04448823 6.12666652 2.11466356 10.25206109 2.20751953 14.37792969 C2.23555071 15.77819961 2.25685316 17.17862251 2.27099609 18.57910156 C2.37159314 27.98157191 2.68902599 35.21002887 9.25 42.5 C9.8275 42.995 10.405 43.49 11 44 C7.53772321 43.03825645 6.11248388 42.13819448 3.8125 39.3125 C0.69793653 33.62036676 -0.25261086 28.41872188 -0.1953125 21.97265625 C-0.18886719 20.68681641 -0.18242188 19.40097656 -0.17578125 18.07617188 C-0.15907601 16.73827846 -0.14214619 15.40038783 -0.125 14.0625 C-0.11495322 12.69727217 -0.10583036 11.3320372 -0.09765625 9.96679688 C-0.07417605 6.64434801 -0.04133359 3.32226679 0 0 Z " fill="#227AB4" transform="translate(574,538)"/>
<path d="M0 0 C2.5 1.5 2.5 1.5 3.8125 4.875 C4.5 8.5 4.5 8.5 4.5 12.5 C5.79009392 14.91795268 5.79009392 14.91795268 7.5 17.25 C8.056875 18.04921875 8.61375 18.8484375 9.1875 19.671875 C9.620625 20.27515625 10.05375 20.8784375 10.5 21.5 C10.17 22.16 9.84 22.82 9.5 23.5 C4.79575946 17.46289131 0.83416414 11.40648286 -2.5 4.5 C-2.87125 3.7575 -3.2425 3.015 -3.625 2.25 C-3.91375 1.6725 -4.2025 1.095 -4.5 0.5 C-2.5 -0.5 -2.5 -0.5 0 0 Z " fill="#0480CB" transform="translate(244.5,513.5)"/>
<path d="M0 0 C3.98397473 3.41483548 5.79148413 7.331873 6.4375 12.5 C5.76278518 17.89771853 3.30375903 20.75983898 -0.5625 24.4375 C-1.7690625 25.2109375 -1.7690625 25.2109375 -3 26 C-3.99 25.67 -4.98 25.34 -6 25 C-5.38125 24.773125 -4.7625 24.54625 -4.125 24.3125 C-1.38589791 22.62070165 -0.94975528 21.00755839 0 18 C0.66 18 1.32 18 2 18 C2.66 14.7 3.32 11.4 4 8 C1.525 7.01 1.525 7.01 -1 6 C-0.67 4.02 -0.34 2.04 0 0 Z " fill="#0D5CA0" transform="translate(325,574)"/>
<path d="M0 0 C2.31 1.98 4.62 3.96 7 6 C6.34 8.97 5.68 11.94 5 15 C3 11 3 11 3 8 C2.34 8 1.68 8 1 8 C0.34 9.32 -0.32 10.64 -1 12 C-1.33 11.34 -1.66 10.68 -2 10 C-1.67 9.030625 -1.34 8.06125 -1 7.0625 C0.33339097 4.00837152 0.33339097 4.00837152 -1 1 C-0.67 0.67 -0.34 0.34 0 0 Z M3 5 C4 8 4 8 4 8 Z " fill="#239AE1" transform="translate(291,578)"/>
<path d="M0 0 C1.10865985 0.91122727 2.21172219 1.82926659 3.3125 2.75 C4.23482422 3.51570312 4.23482422 3.51570312 5.17578125 4.296875 C7 6 7 6 10 10 C5.38 10 0.76 10 -4 10 C-3.67 9.34 -3.34 8.68 -3 8 C-2.01 8.33 -1.02 8.66 0 9 C0 8.01 0 7.02 0 6 C0.66 5.34 1.32 4.68 2 4 C1.34 2.68 0.68 1.36 0 0 Z " fill="#36ADF1" transform="translate(302,590)"/>
<path d="M0 0 C0.33 0 0.66 0 1 0 C1.33 10.89 1.66 21.78 2 33 C2.66 33 3.32 33 4 33 C3.505 35.475 3.505 35.475 3 38 C1.515 38.495 1.515 38.495 0 39 C0 26.13 0 13.26 0 0 Z " fill="#12406C" transform="translate(78,584)"/>
<path d="M0 0 C0.33 0 0.66 0 1 0 C1 2.31 1 4.62 1 7 C1.98742187 6.91621094 2.97484375 6.83242188 3.9921875 6.74609375 C5.27351563 6.64425781 6.55484375 6.54242188 7.875 6.4375 C9.78925781 6.28087891 9.78925781 6.28087891 11.7421875 6.12109375 C15 6 15 6 17 7 C17 7.66 17 8.32 17 9 C11.39 9 5.78 9 0 9 C0 6.03 0 3.06 0 0 Z " fill="#011D3E" transform="translate(467,498)"/>
<path d="M0 0 C0.66 0.33 1.32 0.66 2 1 C2 1.99 2 2.98 2 4 C2.66 4.33 3.32 4.66 4 5 C3.01 6.485 3.01 6.485 2 8 C2.33 8.99 2.66 9.98 3 11 C2.01 11.495 2.01 11.495 1 12 C0.34 11.01 -0.32 10.02 -1 9 C-1.66 9 -2.32 9 -3 9 C-3.33 9.66 -3.66 10.32 -4 11 C-3.39301257 6.87248551 -1.96189209 3.6678852 0 0 Z " fill="#0890DE" transform="translate(206,428)"/>
<path d="M0 0 C6.28980521 0.06470993 10.11103341 1.00606138 15.375 4.375 C15.375 5.365 15.375 6.355 15.375 7.375 C13.70833333 7.375 12.04166667 7.375 10.375 7.375 C10.271875 6.735625 10.16875 6.09625 10.0625 5.4375 C9.835625 4.756875 9.60875 4.07625 9.375 3.375 C5.75632441 2.1687748 2.44993749 2.26683082 -1.3125 2.3125 C-2.01439453 2.31701172 -2.71628906 2.32152344 -3.43945312 2.32617188 C-5.16800538 2.33793073 -6.89651365 2.35586546 -8.625 2.375 C-5.81406338 -0.43593662 -3.9236708 0.04200932 0 0 Z " fill="#0662A6" transform="translate(478.625,537.625)"/>
<path d="M0 0 C1.3125 1.75 1.3125 1.75 2.3125 4.75 C1.3125 5.75 1.3125 5.75 -1.75 5.8125 C-2.719375 5.791875 -3.68875 5.77125 -4.6875 5.75 C-5.0175 3.77 -5.3475 1.79 -5.6875 -0.25 C-2.1493016 -1.59207526 -2.1493016 -1.59207526 0 0 Z " fill="#0C8CD9" transform="translate(252.6875,433.25)"/>
<path d="M0 0 C0.66 0.33 1.32 0.66 2 1 C-1.96 3.64 -5.92 6.28 -10 9 C-10.33 8.34 -10.66 7.68 -11 7 C-10.34 7 -9.68 7 -9 7 C-9.33 5.68 -9.66 4.36 -10 3 C-9.01 2.34 -8.02 1.68 -7 1 C-6.34 1.66 -5.68 2.32 -5 3 C-4.21625 2.484375 -3.4325 1.96875 -2.625 1.4375 C-1.75875 0.963125 -0.8925 0.48875 0 0 Z " fill="#09356C" transform="translate(106,605)"/>
<path d="M0 0 C0 3 0 3 -1.5625 5.1875 C-4.80948625 7.60192567 -7.05115643 7.3037572 -11 7 C-8.90163884 4.90163884 -6.97389739 3.78583001 -4.375 2.375 C-3.55773437 1.92898438 -2.74046875 1.48296875 -1.8984375 1.0234375 C-0.95871094 0.51683594 -0.95871094 0.51683594 0 0 Z " fill="#249CE3" transform="translate(289,593)"/>
<path d="M0 0 C2.475 0.495 2.475 0.495 5 1 C5.33 1.99 5.66 2.98 6 4 C7.95603147 5.17166072 7.95603147 5.17166072 10.3125 6.0625 C13.27083374 7.28006215 16.15468579 8.53502129 19 10 C12.46087909 9.64968995 8.15873777 8.07955354 3 4 C1 1.6875 1 1.6875 0 0 Z " fill="#051431" transform="translate(835,497)"/>
<path d="M0 0 C0.33 1.32 0.66 2.64 1 4 C6.445 2.02 6.445 2.02 12 0 C12 0.66 12 1.32 12 2 C10.3203125 3.21875 10.3203125 3.21875 8.125 4.5 C5.74637514 5.89818809 3.96207916 7.03792084 2 9 C2 7.68 2 6.36 2 5 C1.01 4.67 0.02 4.34 -1 4 C-0.67 2.68 -0.34 1.36 0 0 Z " fill="#08407E" transform="translate(152,525)"/>
<path d="M0 0 C0.33 0.99 0.66 1.98 1 3 C-1.16888758 6.73440042 -3.75500739 9.59402415 -7.875 10.9375 C-8.57625 10.958125 -9.2775 10.97875 -10 11 C-9.38125 10.608125 -8.7625 10.21625 -8.125 9.8125 C-5.67503632 7.72282509 -4.98120002 6.02536673 -4 3 C-3.34 3 -2.68 3 -2 3 C-1.34 2.01 -0.68 1.02 0 0 Z " fill="#07549B" transform="translate(329,589)"/>
<path d="M0 0 C1.32 0 2.64 0 4 0 C4 0.66 4 1.32 4 2 C4.99 2 5.98 2 7 2 C6.67 2.99 6.34 3.98 6 5 C3.36 4.67 0.72 4.34 -2 4 C-1.34 2.68 -0.68 1.36 0 0 Z " fill="#0076B3" transform="translate(868,539)"/>
<path d="M0 0 C4.8 2.46153846 4.8 2.46153846 5.8125 5.1875 C5.874375 5.785625 5.93625 6.38375 6 7 C5.01 7.66 4.02 8.32 3 9 C2.01 8.01 1.02 7.02 0 6 C0.33 5.01 0.66 4.02 1 3 C0.67 2.01 0.34 1.02 0 0 Z " fill="#1271B0" transform="translate(878,539)"/>
<path d="M0 0 C4.62 2.31 9.24 4.62 14 7 C13.67 7.66 13.34 8.32 13 9 C12.00419922 8.44119141 12.00419922 8.44119141 10.98828125 7.87109375 C10.10527344 7.39800781 9.22226562 6.92492187 8.3125 6.4375 C7.44238281 5.96183594 6.57226562 5.48617188 5.67578125 4.99609375 C2.61671247 3.85731632 1.08136961 4.07281311 -2 5 C-1.34 3.35 -0.68 1.7 0 0 Z " fill="#0A1632" transform="translate(875,483)"/>
<path d="M0 0 C4.08288689 1.3609623 4.88685817 3.47953322 7.1875 7.0625 C7.90292969 8.16722656 8.61835938 9.27195312 9.35546875 10.41015625 C9.89816406 11.26480469 10.44085938 12.11945312 11 13 C10.67 13.66 10.34 14.32 10 15 C6.24351901 10.17918273 2.91214197 5.3762621 0 0 Z " fill="#2C92D6" transform="translate(244,522)"/>
<path d="M0 0 C-2.43010963 3.64516445 -3.92248817 4.04858057 -8 5 C-8.33 3.68 -8.66 2.36 -9 1 C-2.25 -1.125 -2.25 -1.125 0 0 Z " fill="#155996" transform="translate(190,514)"/>
<path d="M0 0 C2.8675003 2.69835 4.4497184 5.35683825 6 9 C5.67 9.66 5.34 10.32 5 11 C3.046875 10.2890625 3.046875 10.2890625 1 9 C0.390625 6.8359375 0.390625 6.8359375 0.25 4.375 C0.19328125 3.55773437 0.1365625 2.74046875 0.078125 1.8984375 C0.05234375 1.27195312 0.0265625 0.64546875 0 0 Z " fill="#0D82CF" transform="translate(264,457)"/>
<path d="M0 0 C0.66 0 1.32 0 2 0 C1.48847632 3.78527521 0.79154158 5.44108688 -2 8 C-2.33 8.99 -2.66 9.98 -3 11 C-3.66 11 -4.32 11 -5 11 C-3.78065514 6.96678237 -2.44045073 3.45730521 0 0 Z " fill="#06346E" transform="translate(95,552)"/>
<path d="M0 0 C0.99 0.33 1.98 0.66 3 1 C2.27683594 1.61488281 2.27683594 1.61488281 1.5390625 2.2421875 C0.90742188 2.78101563 0.27578125 3.31984375 -0.375 3.875 C-1.00148438 4.40867187 -1.62796875 4.94234375 -2.2734375 5.4921875 C-3.55836651 6.61432007 -4.79371975 7.79371975 -6 9 C-5.70381606 5.44579276 -5.19662957 4.19662957 -2.625 1.625 C-1.325625 0.820625 -1.325625 0.820625 0 0 Z " fill="#0564A7" transform="translate(411,539)"/>
<path d="M0 0 C2.02054804 1.64169528 4.02043058 3.30911778 6 5 C6 5.33 6 5.66 6 6 C3.69 6 1.38 6 -1 6 C-1 3 -1 3 0 0 Z " fill="#41B4F5" transform="translate(306,594)"/>
<path d="M0 0 C0.33 0.66 0.66 1.32 1 2 C0.22265625 3.9453125 0.22265625 3.9453125 -0.9375 6.125 C-1.31777344 6.84945312 -1.69804688 7.57390625 -2.08984375 8.3203125 C-2.39019531 8.87460937 -2.69054687 9.42890625 -3 10 C-2.34 10 -1.68 10 -1 10 C-1.33 10.66 -1.66 11.32 -2 12 C-2.99 12 -3.98 12 -5 12 C-4.42365861 7.24518354 -2.44931479 4.02951788 0 0 Z " fill="#052F66" transform="translate(86,569)"/>
<path d="M0 0 C0.33 0.66 0.66 1.32 1 2 C0.05719096 4.3570226 -0.94647157 6.69034152 -2 9 C-2.33 9.99 -2.66 10.98 -3 12 C-3.99 12.33 -4.98 12.66 -6 13 C-4.58707905 8.1725201 -2.57025846 4.2837641 0 0 Z " fill="#063674" transform="translate(121,503)"/>
<path d="M0 0 C1.32 1.32 2.64 2.64 4 4 C3.34 4 2.68 4 2 4 C1.67 4.99 1.34 5.98 1 7 C-0.32 6.67 -1.64 6.34 -3 6 C-2.01 4.02 -1.02 2.04 0 0 Z " fill="#104884" transform="translate(124,497)"/>
<path d="M0 0 C0.99 0.33 1.98 0.66 3 1 C1.54550599 2.0055761 0.08627557 3.00430435 -1.375 4 C-2.59316406 4.8353125 -2.59316406 4.8353125 -3.8359375 5.6875 C-6 7 -6 7 -8 7 C-7.67 6.01 -7.34 5.02 -7 4 C-5.35 3.67 -3.7 3.34 -2 3 C-2 2.34 -2 1.68 -2 1 C-1.34 0.67 -0.68 0.34 0 0 Z " fill="#093873" transform="translate(140,583)"/>
<path d="M0 0 C0.66 0.33 1.32 0.66 2 1 C-0.31 3.97 -2.62 6.94 -5 10 C-5.33 9.01 -5.66 8.02 -6 7 C-4.78515625 5.17578125 -4.78515625 5.17578125 -3.0625 3.3125 C-2.49660156 2.68988281 -1.93070312 2.06726563 -1.34765625 1.42578125 C-0.90292969 0.95527344 -0.45820313 0.48476563 0 0 Z " fill="#051431" transform="translate(501,444)"/>
<path d="M0 0 C2.97526665 2.55022856 4.50122302 5.40293526 6 9 C5.67 9.99 5.34 10.98 5 12 C4.67 10.68 4.34 9.36 4 8 C3.34 8 2.68 8 2 8 C1.34 5.36 0.68 2.72 0 0 Z " fill="#0485DB" transform="translate(233,398)"/>
<path d="M0 0 C3 3.75 3 3.75 3 6 C1.35 6.33 -0.3 6.66 -2 7 C-1.125 2.25 -1.125 2.25 0 0 Z " fill="#129AE4" transform="translate(228,387)"/>
<path d="M0 0 C3 3 6 6 9 9 C6.1875 8.875 6.1875 8.875 3 8 C1.26090967 5.27542515 0 3.27517534 0 0 Z " fill="#091836" transform="translate(773,484)"/>
<path d="M0 0 C0.99 0 1.98 0 3 0 C2.67 1.98 2.34 3.96 2 6 C0.68 6.33 -0.64 6.66 -2 7 C-2 5.35 -2 3.7 -2 2 C-1.34 2 -0.68 2 0 2 C0 1.34 0 0.68 0 0 Z " fill="#0F96E2" transform="translate(229,410)"/>
<path d="M0 0 C1.32 0.33 2.64 0.66 4 1 C3.67 2.65 3.34 4.3 3 6 C2.01 6.33 1.02 6.66 0 7 C0 4.69 0 2.38 0 0 Z " fill="#134B7B" transform="translate(78,616)"/>
<path d="M0 0 C2.0625 0.4375 2.0625 0.4375 4 1 C4 1.66 4 2.32 4 3 C2.35 3.33 0.7 3.66 -1 4 C-1 1 -1 1 0 0 Z " fill="#0B477E" transform="translate(135,558)"/>
<path d="M0 0 C5.875 4.625 5.875 4.625 7 8 C6.01 8.495 6.01 8.495 5 9 C4.731875 8.38125 4.46375 7.7625 4.1875 7.125 C3.04443152 4.7004767 3.04443152 4.7004767 0 3 C0 2.01 0 1.02 0 0 Z " fill="#2090D6" transform="translate(268,553)"/>
</svg>
